<svg width="27" height="25" viewBox="0 0 27 25" fill="none" xmlns="http://www.w3.org/2000/svg">
<path d="M13.5 9.04305C16.715 9.04305 19.6476 8.65283 21.795 8.00861C22.8651 7.68758 23.7724 7.29404 24.4249 6.83122C25.0627 6.37887 25.5681 5.77672 25.5681 5.02495C25.5681 4.27318 25.0627 3.67103 24.4249 3.21868C23.7724 2.75586 22.8651 2.36232 21.795 2.04129C19.6476 1.39707 16.715 1.00685 13.5 1.00685C10.285 1.00685 7.35244 1.39707 5.20503 2.04129C4.13494 2.36232 3.22758 2.75586 2.57506 3.21868C1.9373 3.67103 1.4319 4.27318 1.4319 5.02495C1.4319 5.77672 1.9373 6.37887 2.57506 6.83122C3.22758 7.29404 4.13494 7.68758 5.20503 8.00861C7.35244 8.65283 10.285 9.04305 13.5 9.04305Z" stroke="black" stroke-width="1.1362" stroke-linecap="round" stroke-linejoin="round"/>
<path d="M6.03803 9.36327C5.94272 9.33805 5.84249 9.33808 5.7472 9.36334C4.52512 9.68726 3.48753 10.0957 2.74176 10.5808C2.01919 11.0508 1.4319 11.6881 1.4319 12.5C1.4319 13.2518 1.93726 13.8539 2.57503 14.3063C3.22754 14.7691 4.13489 15.1627 5.20497 15.4837C7.35236 16.1279 10.2849 16.5181 13.5 16.5181C16.7151 16.5181 19.6476 16.1279 21.795 15.4837C22.8651 15.1627 23.7725 14.7691 24.425 14.3063C25.0627 13.8539 25.5681 13.2518 25.5681 12.5C25.5681 11.6882 24.9811 11.0509 24.2585 10.5808C23.5128 10.0957 22.4751 9.68725 21.2528 9.36333C21.1575 9.33808 21.0572 9.33806 20.9619 9.36328C18.9918 9.88459 16.3787 10.2069 13.5 10.2069C10.6213 10.2069 8.00881 9.8846 6.03803 9.36327Z" stroke="black" stroke-width="1.1362" stroke-linecap="round" stroke-linejoin="round"/>
<path d="M6.03818 16.8383C5.94283 16.813 5.84254 16.813 5.7472 16.8383C4.52512 17.1622 3.48753 17.5707 2.74176 18.0558C2.01919 18.5258 1.4319 19.1631 1.4319 19.975C1.4319 20.7267 1.93726 21.3289 2.57503 21.7813C3.22754 22.2441 4.13489 22.6377 5.20497 22.9587C7.35236 23.6029 10.2849 23.9931 13.5 23.9931C16.7151 23.9931 19.6476 23.6029 21.795 22.9587C22.8651 22.6377 23.7725 22.2441 24.425 21.7813C25.0627 21.3289 25.5681 20.7267 25.5681 19.975C25.5681 19.1632 24.9811 18.5259 24.2585 18.0558C23.5128 17.5707 22.4751 17.1622 21.2528 16.8383C21.1574 16.813 21.0571 16.813 20.9618 16.8383C18.9918 17.3601 16.3788 17.6819 13.5 17.6819C10.6212 17.6819 8.00878 17.3601 6.03818 16.8383Z" stroke="black" stroke-width="1.1362" stroke-linecap="round" stroke-linejoin="round"/>
</svg>
