<svg width="63" height="63" viewBox="0 0 63 63" fill="none" xmlns="http://www.w3.org/2000/svg">
<path d="M0.302612 13.3455C0.302612 6.14218 6.14206 0.302734 13.3454 0.302734H49.8651C57.0684 0.302734 62.9079 6.14218 62.9079 13.3455V49.8652C62.9079 57.0685 57.0684 62.908 49.8651 62.908H13.3454C6.14206 62.908 0.302612 57.0686 0.302612 49.8652V13.3455Z" fill="#41A36E" fill-opacity="0.1"/>
<path d="M0.95475 13.3455C0.95475 6.50235 6.50222 0.954873 13.3454 0.954873H49.8651C56.7083 0.954873 62.2557 6.50235 62.2557 13.3455V49.8652C62.2557 56.7084 56.7083 62.2559 49.8651 62.2559H13.3454C6.50223 62.2559 0.95475 56.7084 0.95475 49.8652V13.3455Z" stroke="black" stroke-opacity="0.05" stroke-width="1.30428"/>
<path d="M39.431 25.2926C39.3528 25.2795 39.2615 25.2795 39.1832 25.2926C37.3833 25.2274 35.9486 23.7535 35.9486 21.9275C35.9486 20.0624 37.4485 18.5625 39.3136 18.5625C41.1788 18.5625 42.6787 20.0755 42.6787 21.9275C42.6656 23.7535 41.2309 25.2274 39.431 25.2926Z" stroke="#41A36E" stroke-width="1.95641" stroke-linecap="round" stroke-linejoin="round"/>
<path d="M38.0876 34.7881C39.8745 35.088 41.8439 34.775 43.2264 33.849C45.0655 32.623 45.0655 30.6144 43.2264 29.3884C41.8309 28.4623 39.8353 28.1493 38.0485 28.4623" stroke="#41A36E" stroke-width="1.95641" stroke-linecap="round" stroke-linejoin="round"/>
<path d="M23.7404 25.2926C23.8187 25.2795 23.91 25.2795 23.9883 25.2926C25.7882 25.2274 27.2229 23.7535 27.2229 21.9275C27.2229 20.0624 25.7229 18.5625 23.8578 18.5625C21.9927 18.5625 20.4928 20.0755 20.4928 21.9275C20.5058 23.7535 21.9405 25.2274 23.7404 25.2926Z" stroke="#41A36E" stroke-width="1.95641" stroke-linecap="round" stroke-linejoin="round"/>
<path d="M25.0839 34.7881C23.2971 35.088 21.3276 34.775 19.9451 33.849C18.106 32.623 18.106 30.6144 19.9451 29.3884C21.3406 28.4623 23.3362 28.1493 25.123 28.4623" stroke="#41A36E" stroke-width="1.95641" stroke-linecap="round" stroke-linejoin="round"/>
<path d="M31.6052 35.0357C31.527 35.0227 31.4357 35.0227 31.3574 35.0357C29.5575 34.9705 28.1228 33.4967 28.1228 31.6707C28.1228 29.8056 29.6227 28.3057 31.4878 28.3057C33.3529 28.3057 34.8529 29.8186 34.8529 31.6707C34.8398 33.4967 33.4051 34.9836 31.6052 35.0357Z" stroke="#41A36E" stroke-width="1.95641" stroke-linecap="round" stroke-linejoin="round"/>
<path d="M27.8098 39.1443C25.9708 40.3703 25.9708 42.3789 27.8098 43.6049C29.8967 45.0005 33.3139 45.0005 35.4007 43.6049C37.2397 42.3789 37.2397 40.3703 35.4007 39.1443C33.3269 37.7618 29.8967 37.7618 27.8098 39.1443Z" stroke="#41A36E" stroke-width="1.95641" stroke-linecap="round" stroke-linejoin="round"/>
</svg>
