<svg width="28" height="27" viewBox="0 0 28 27" fill="none" xmlns="http://www.w3.org/2000/svg">
<path d="M2.59136 1.82554C1.92888 2.37111 1.62568 3.07726 1.48407 3.94415C1.34995 4.76523 1.34997 5.80734 1.35 7.09044L1.35 7.14706V19.8529L1.35 19.9096C1.34997 21.1927 1.34995 22.2348 1.48407 23.0559C1.62568 23.9227 1.92888 24.6289 2.59136 25.1745C3.23565 25.7051 4.03802 25.9335 5.02357 26.0426C5.9928 26.15 7.23427 26.15 8.81598 26.15H8.85714H19.1429H19.184C20.7657 26.15 22.0072 26.15 22.9764 26.0426C23.962 25.9335 24.7643 25.7051 25.4086 25.1745C26.0711 24.6289 26.3743 23.9227 26.5159 23.0559C26.6501 22.2348 26.65 21.1927 26.65 19.9095V19.8529V7.14706V7.09045C26.65 5.80734 26.6501 4.76523 26.5159 3.94415C26.3743 3.07726 26.0711 2.37111 25.4086 1.82554C24.7643 1.29495 23.962 1.06655 22.9764 0.957364C22.0072 0.849986 20.7657 0.849992 19.184 0.85L19.1429 0.85H8.85714L8.81603 0.85C7.23429 0.849992 5.99281 0.849986 5.02357 0.957364C4.03802 1.06655 3.23565 1.29495 2.59136 1.82554ZM8.05817 8.06231C8.25235 7.90239 8.53845 7.79706 8.85714 7.79706H19.1429C19.4615 7.79706 19.7476 7.90239 19.9418 8.06231C20.1324 8.21928 20.2071 8.40203 20.2071 8.55882C20.2071 8.71562 20.1324 8.89836 19.9418 9.05534C19.7476 9.21525 19.4615 9.32059 19.1429 9.32059H8.85714C8.53845 9.32059 8.25236 9.21525 8.05817 9.05534C7.86756 8.89836 7.79286 8.71562 7.79286 8.55882C7.79286 8.40203 7.86756 8.21928 8.05817 8.06231ZM8.05817 13.7094C8.25236 13.5495 8.53845 13.4441 8.85714 13.4441H19.1429C19.4615 13.4441 19.7476 13.5495 19.9418 13.7094C20.1324 13.8663 20.2071 14.0491 20.2071 14.2059C20.2071 14.3627 20.1324 14.5454 19.9418 14.7024C19.7476 14.8623 19.4615 14.9676 19.1429 14.9676H8.85714C8.53845 14.9676 8.25235 14.8623 8.05817 14.7024C7.86756 14.5454 7.79286 14.3627 7.79286 14.2059C7.79286 14.0491 7.86756 13.8663 8.05817 13.7094ZM8.05817 19.3564C8.25235 19.1965 8.53845 19.0912 8.85714 19.0912H15.7143C16.033 19.0912 16.3191 19.1965 16.5133 19.3564C16.7039 19.5134 16.7786 19.6961 16.7786 19.8529C16.7786 20.0097 16.7039 20.1925 16.5133 20.3495C16.3191 20.5094 16.033 20.6147 15.7143 20.6147H8.85714C8.53845 20.6147 8.25235 20.5094 8.05817 20.3495C7.86756 20.1925 7.79286 20.0097 7.79286 19.8529C7.79286 19.6961 7.86756 19.5134 8.05817 19.3564Z" stroke="#4A4A4A" stroke-width="1.3"/>
</svg>
