<svg width="24" height="25" viewBox="0 0 24 25" fill="none" xmlns="http://www.w3.org/2000/svg">
<path d="M5.61495 1C4.11535 1.14835 3.10565 1.48185 2.35125 2.2374C1 3.59095 1 5.7702 1 10.1298V14.7528C1 19.1113 1 21.2917 2.35125 22.6464C3.7025 24.0011 5.8783 24 10.2287 24H12.5368C16.8872 24 19.063 24 20.4143 22.6464C21.6413 21.4159 21.7552 19.5219 21.7656 15.9235" stroke="#4A4A4A" stroke-width="1.3" stroke-linecap="round" stroke-linejoin="round"/>
<path d="M10.2288 6.75004L11.3822 10.775C12.0262 12.0515 12.8347 12.385 14.8437 12.5C16.4411 12.4609 17.368 12.2723 18.1592 11.5846C18.6985 11.1154 18.9423 10.4082 19.0608 9.70439L19.4564 7.32504M22.3406 5.02504V10.775M8.01501 4.37299C9.84006 2.85844 11.4662 2.04539 14.8391 1.15069C15.2196 1.05023 15.62 1.05222 15.9995 1.15644C18.9849 1.97754 20.5972 2.70664 22.7569 4.32814C22.8489 4.39714 22.8765 4.52594 22.8121 4.62139C22.1071 5.65869 20.5328 6.49934 16.6711 7.99664C15.8667 8.30614 14.9753 8.30121 14.1744 7.98284C10.062 6.34984 8.17141 5.47584 7.94141 4.56849C7.93394 4.53228 7.93689 4.49469 7.94991 4.46009C7.96294 4.42549 7.98552 4.39529 8.01501 4.37299Z" stroke="#4A4A4A" stroke-width="1.3" stroke-linecap="round" stroke-linejoin="round"/>
</svg>
