<svg width="64" height="63" viewBox="0 0 64 63" fill="none" xmlns="http://www.w3.org/2000/svg">
<path d="M0.504333 13.3455C0.504333 6.14218 6.34378 0.302734 13.5471 0.302734H50.0668C57.2701 0.302734 63.1096 6.14218 63.1096 13.3455V49.8652C63.1096 57.0685 57.2701 62.908 50.0668 62.908H13.5471C6.34378 62.908 0.504333 57.0686 0.504333 49.8652V13.3455Z" fill="#ECF6F0"/>
<path d="M1.15647 13.3455C1.15647 6.50235 6.70395 0.954873 13.5471 0.954873H50.0668C56.91 0.954873 62.4575 6.50235 62.4575 13.3455V49.8652C62.4575 56.7084 56.91 62.2559 50.0668 62.2559H13.5471C6.70395 62.2559 1.15647 56.7084 1.15647 49.8652V13.3455Z" stroke="black" stroke-opacity="0.05" stroke-width="1.30428"/>
<path d="M29.2636 19.2535L21.4119 24.3793C18.8946 26.0226 18.8946 29.7007 21.4119 31.3441L29.2636 36.4699C30.6722 37.3959 32.9938 37.3959 34.4025 36.4699L42.2151 31.3441C44.7193 29.7007 44.7193 26.0357 42.2151 24.3923L34.4025 19.2665C32.9938 18.3274 30.6722 18.3274 29.2636 19.2535Z" stroke="#41A36E" stroke-width="1.95641" stroke-linecap="round" stroke-linejoin="round"/>
<path d="M23.4987 33.0142L23.4857 39.1312C23.4857 40.7876 24.7638 42.5615 26.329 43.0832L30.4896 44.4657C31.207 44.7005 32.3939 44.7005 33.1243 44.4657L37.2849 43.0832C38.85 42.5615 40.1282 40.7876 40.1282 39.1312V33.0794" stroke="#41A36E" stroke-width="1.95641" stroke-linecap="round" stroke-linejoin="round"/>
<path d="M44.0671 35.518V27.6924" stroke="#41A36E" stroke-width="1.95641" stroke-linecap="round" stroke-linejoin="round"/>
</svg>
