<svg width="63" height="63" viewBox="0 0 63 63" fill="none" xmlns="http://www.w3.org/2000/svg">
<path d="M0.403442 13.3455C0.403442 6.14218 6.24289 0.302734 13.4462 0.302734H49.9659C57.1693 0.302734 63.0087 6.14218 63.0087 13.3455V49.8652C63.0087 57.0685 57.1693 62.908 49.9659 62.908H13.4462C6.24289 62.908 0.403442 57.0686 0.403442 49.8652V13.3455Z" fill="#ECF6F0"/>
<path d="M1.05558 13.3455C1.05558 6.50235 6.60305 0.954873 13.4462 0.954873H49.9659C56.8091 0.954873 62.3566 6.50235 62.3566 13.3455V49.8652C62.3566 56.7084 56.8091 62.2559 49.9659 62.2559H13.4462C6.60306 62.2559 1.05558 56.7084 1.05558 49.8652V13.3455Z" stroke="black" stroke-opacity="0.05" stroke-width="1.30428"/>
<path d="M44.7489 37.7878V22.0452C44.7489 20.4801 43.4707 19.3193 41.9186 19.4497H41.8403C39.1013 19.6845 34.9407 21.08 32.6191 22.5408L32.3974 22.6843C32.0191 22.9191 31.3931 22.9191 31.0148 22.6843L30.6888 22.4887C28.3671 21.0409 24.2195 19.6584 21.4806 19.4367C19.9285 19.3062 18.6633 20.4801 18.6633 22.0322V37.7878C18.6633 39.0399 19.6807 40.2138 20.9328 40.3703L21.311 40.4225C24.1413 40.8007 28.5106 42.2354 31.0148 43.6049L31.067 43.631C31.4192 43.8266 31.98 43.8266 32.3191 43.631C34.8233 42.2485 39.2057 40.8007 42.049 40.4225L42.4794 40.3703C43.7315 40.2138 44.7489 39.0399 44.7489 37.7878Z" stroke="#41A36E" stroke-width="1.95641" stroke-linecap="round" stroke-linejoin="round"/>
<path d="M31.7062 23.1147V42.6789" stroke="#41A36E" stroke-width="1.95641" stroke-linecap="round" stroke-linejoin="round"/>
<path d="M26.1629 27.0278H23.2283" stroke="#41A36E" stroke-width="1.95641" stroke-linecap="round" stroke-linejoin="round"/>
<path d="M27.1411 30.9404H23.2283" stroke="#41A36E" stroke-width="1.95641" stroke-linecap="round" stroke-linejoin="round"/>
</svg>
