<svg width="63" height="64" viewBox="0 0 63 64" fill="none" xmlns="http://www.w3.org/2000/svg">
<path d="M0.403442 13.7962C0.403442 6.59287 6.24289 0.753418 13.4462 0.753418H49.9659C57.1693 0.753418 63.0087 6.59286 63.0087 13.7962V50.3159C63.0087 57.5192 57.1693 63.3587 49.9659 63.3587H13.4462C6.24289 63.3587 0.403442 57.5192 0.403442 50.3159V13.7962Z" fill="#41A36E" fill-opacity="0.1"/>
<path d="M1.05558 13.7962C1.05558 6.95303 6.60305 1.40556 13.4462 1.40556H49.9659C56.8091 1.40556 62.3566 6.95303 62.3566 13.7962V50.3159C62.3566 57.1591 56.8091 62.7065 49.9659 62.7065H13.4462C6.60306 62.7065 1.05558 57.1591 1.05558 50.3159V13.7962Z" stroke="black" stroke-opacity="0.05" stroke-width="1.30428"/>
<path d="M31.7061 35.9688C36.5683 35.9688 40.51 32.1731 40.51 27.491C40.51 22.8088 36.5683 19.0132 31.7061 19.0132C26.8438 19.0132 22.9022 22.8088 22.9022 27.491C22.9022 32.1731 26.8438 35.9688 31.7061 35.9688Z" stroke="#41A36E" stroke-width="1.95641" stroke-linecap="round" stroke-linejoin="round"/>
<path d="M25.863 34.038L25.85 43.6635C25.85 44.8374 26.6717 45.4113 27.689 44.9287L31.1845 43.2723C31.4714 43.1288 31.954 43.1288 32.2409 43.2723L35.7494 44.9287C36.7537 45.3982 37.5885 44.8374 37.5885 43.6635V33.8032" stroke="#41A36E" stroke-width="1.95641" stroke-linecap="round" stroke-linejoin="round"/>
</svg>
