<svg width="28" height="25" viewBox="0 0 28 25" fill="none" xmlns="http://www.w3.org/2000/svg">
<path d="M1 18.7917C3.92324 21.9265 7.99822 21.4592 10.4106 21.3854M1 14.8706C3.65973 17.9063 7.1873 18.1466 10.5315 17.7658M10.1892 7.89983C-0.458109 5.66664 -1.77216 15.3021 10.1892 14.1918M12.1688 21.1444C14.9465 24.0254 24.3234 24.6719 27 20.8422M12.1688 16.7405C14.2495 20.5703 23.9158 20.5183 27 17.0427M12.1688 12.9705C16.5115 17.5233 24.4661 15.9655 27 12.9705" stroke="#4A4A4A" stroke-width="1.31" stroke-linecap="round" stroke-linejoin="round"/>
<path d="M12.1685 9.20007C14.9062 12.9708 23.9176 13.0804 26.9997 9.2605" stroke="#4A4A4A" stroke-width="1.31" stroke-linecap="round" stroke-linejoin="round"/>
<path d="M19.5969 8.44388C23.4281 8.44388 26.534 6.88687 26.534 4.9662C26.534 3.04553 23.4281 1.48853 19.5969 1.48853C15.7656 1.48853 12.6598 3.04553 12.6598 4.9662C12.6598 6.88687 15.7656 8.44388 19.5969 8.44388Z" stroke="#4A4A4A" stroke-width="1.31" stroke-linecap="round" stroke-linejoin="round"/>
</svg>
