<svg width="26" height="25" viewBox="0 0 26 25" fill="none" xmlns="http://www.w3.org/2000/svg">
<path d="M20.6876 22.403H23.461C23.705 22.4068 23.9462 22.3515 24.1642 22.2418C24.3821 22.1321 24.5703 21.9713 24.7125 21.7731C24.8548 21.5749 24.9469 21.3451 24.9811 21.1036C25.0153 20.862 24.9904 20.6157 24.9087 20.3858C24.2015 18.8721 23.0819 17.5885 21.6784 16.6821C20.2749 15.7758 18.6442 15.2835 16.9736 15.2618M16.9736 11.6828C17.5979 11.6829 18.2161 11.5601 18.7929 11.3213C19.3697 11.0825 19.8939 10.7325 20.3354 10.2911C20.7769 9.84972 21.1271 9.32569 21.366 8.74894C21.605 8.1722 21.7279 7.55403 21.7279 6.92974C21.7296 6.30437 21.6079 5.6848 21.3697 5.10656C21.1316 4.52831 20.7816 4.00275 20.3399 3.56C19.8983 3.11725 19.3736 2.76601 18.7959 2.52642C18.2183 2.28682 17.599 2.16358 16.9736 2.16375M9.54703 11.8319C10.9762 11.8285 12.3457 11.2583 13.355 10.2463C14.3642 9.23439 14.9308 7.86341 14.9305 6.43421C14.9305 5.00608 14.3632 3.63644 13.3533 2.6266C12.3435 1.61676 10.9739 1.04944 9.54573 1.04944C8.1176 1.04944 6.74797 1.61676 5.73813 2.6266C4.72829 3.63644 4.16096 5.00608 4.16096 6.43421C4.16096 7.86341 4.72791 9.23425 5.73742 10.2459C6.74692 11.2576 8.11653 11.8276 9.54573 11.8306M15.6245 23.9506C16.0814 23.95 16.5293 23.8229 16.9184 23.5834C17.3076 23.3439 17.6228 23.0014 17.8292 22.5937C18.0357 22.1861 18.1253 21.7293 18.088 21.2738C18.0508 20.8184 17.8882 20.3822 17.6183 20.0135C16.6728 18.7584 15.4556 17.7335 14.0578 17.0155C12.6601 16.2976 11.118 15.9051 9.54703 15.8676C7.97598 15.9053 6.43382 16.2979 5.03604 17.0161C3.63826 17.7343 2.4211 18.7595 1.47572 20.0148C1.20675 20.3835 1.04491 20.8194 1.00808 21.2744C0.971246 21.7293 1.06085 22.1855 1.267 22.5927C1.47315 22.9999 1.78783 23.3422 2.17628 23.5819C2.56473 23.8215 3.01184 23.9491 3.46825 23.9506H15.6245Z" stroke="black" stroke-width="1.3" stroke-linecap="round" stroke-linejoin="round"/>
</svg>
