<svg width="63" height="64" viewBox="0 0 63 64" fill="none" xmlns="http://www.w3.org/2000/svg">
<path d="M0.302612 13.7962C0.302612 6.59287 6.14206 0.753418 13.3454 0.753418H49.8651C57.0684 0.753418 62.9079 6.59286 62.9079 13.7962V50.3159C62.9079 57.5192 57.0684 63.3587 49.8651 63.3587H13.3454C6.14206 63.3587 0.302612 57.5192 0.302612 50.3159V13.7962Z" fill="#41A36E" fill-opacity="0.1"/>
<path d="M0.95475 13.7962C0.95475 6.95303 6.50222 1.40556 13.3454 1.40556H49.8651C56.7083 1.40556 62.2557 6.95303 62.2557 13.7962V50.3159C62.2557 57.1591 56.7083 62.7065 49.8651 62.7065H13.3454C6.50223 62.7065 0.95475 57.1591 0.95475 50.3159V13.7962Z" stroke="black" stroke-opacity="0.05" stroke-width="1.30428"/>
<path d="M21.5103 30.7777V37.2599C21.5103 39.6337 21.5103 39.6337 23.7536 41.1467L29.9228 44.7074C30.8489 45.2421 32.3618 45.2421 33.2879 44.7074L39.4571 41.1467C41.7005 39.6337 41.7004 39.6337 41.7004 37.2599V30.7777C41.7004 28.4039 41.7005 28.4039 39.4571 26.8909L33.2879 23.3303C32.3618 22.7955 30.8489 22.7955 29.9228 23.3303L23.7536 26.8909C21.5103 28.4039 21.5103 28.4039 21.5103 30.7777Z" stroke="#41A36E" stroke-width="1.95641" stroke-linecap="round" stroke-linejoin="round"/>
<path d="M38.7788 26.3563V22.926C38.7788 20.3175 37.4745 19.0132 34.866 19.0132H28.3446C25.736 19.0132 24.4318 20.3175 24.4318 22.926V26.265" stroke="#41A36E" stroke-width="1.95641" stroke-linecap="round" stroke-linejoin="round"/>
<path d="M32.4271 30.7382L33.1705 31.899C33.2879 32.0816 33.5488 32.2642 33.7444 32.3164L35.0748 32.6555C35.8965 32.8642 36.1182 33.5685 35.5834 34.2206L34.7096 35.2771C34.5792 35.4466 34.4748 35.7466 34.4879 35.9553L34.5661 37.3248C34.6183 38.1726 34.0183 38.603 33.2357 38.29L31.9576 37.7813C31.7619 37.703 31.4358 37.703 31.2402 37.7813L29.962 38.29C29.1794 38.603 28.5795 38.1595 28.6317 37.3248L28.7099 35.9553C28.723 35.7466 28.6186 35.4336 28.4882 35.2771L27.6143 34.2206C27.0796 33.5685 27.3013 32.8642 28.123 32.6555L29.4533 32.3164C29.662 32.2642 29.9229 32.0686 30.0272 31.899L30.7707 30.7382C31.2402 30.0339 31.9706 30.0339 32.4271 30.7382Z" stroke="#41A36E" stroke-width="1.95641" stroke-linecap="round" stroke-linejoin="round"/>
</svg>
