<svg width="25" height="29" viewBox="0 0 25 29" fill="none" xmlns="http://www.w3.org/2000/svg">
<path d="M23.9238 14.5139C23.9247 14.5054 23.9255 14.4969 23.9261 14.4884C24.1077 11.8898 24.0929 9.28136 23.8803 6.68447C23.8406 6.12048 23.5925 5.59134 23.1843 5.19999C22.7753 4.80793 22.235 4.58232 21.6687 4.56716C19.0859 4.48749 16.2533 4.05585 14.081 1.91636C13.7134 1.55348 13.2177 1.35 12.7012 1.35C12.1847 1.35 11.689 1.55345 11.3214 1.91628C9.14844 4.05588 6.31567 4.4875 3.73357 4.56717C3.16729 4.58234 2.62695 4.80794 2.218 5.19999L2.54577 5.54189L2.218 5.19999C1.80977 5.59134 1.56174 6.12049 1.52202 6.68449C1.30937 9.28089 1.29385 11.8897 1.47561 14.4884C1.4762 14.497 1.47697 14.5055 1.4779 14.514C2.15766 20.7111 6.48774 25.546 12.489 27.6145C12.6263 27.6618 12.7754 27.6618 12.9126 27.6145C18.9139 25.546 23.2447 20.7111 23.9238 14.5139Z" stroke="black" stroke-width="1.3" stroke-linecap="round" stroke-linejoin="round"/>
<mask id="path-2-outside-1_479_144" maskUnits="userSpaceOnUse" x="5.30286" y="8.65393" width="15" height="11" fill="black">
<rect fill="white" x="5.30286" y="8.65393" width="15" height="11"/>
<path d="M7.30286 13.4488L11.5028 17.7051L18.0989 10.6539"/>
</mask>
<path d="M8.22821 12.5357C7.72392 12.0246 6.90083 12.0191 6.38977 12.5234C5.87871 13.0277 5.87322 13.8508 6.37751 14.3619L8.22821 12.5357ZM11.5028 17.7051L10.5775 18.6182C10.826 18.8701 11.1664 19.0097 11.5201 19.005C11.8739 19.0003 12.2105 18.8516 12.4522 18.5932L11.5028 17.7051ZM19.0483 11.542C19.5387 11.0177 19.5113 10.195 18.987 9.70456C18.4627 9.21409 17.64 9.24152 17.1495 9.76584L19.0483 11.542ZM6.37751 14.3619L10.5775 18.6182L12.4282 16.7921L8.22821 12.5357L6.37751 14.3619ZM12.4522 18.5932L19.0483 11.542L17.1495 9.76584L10.5534 16.817L12.4522 18.5932Z" fill="black" mask="url(#path-2-outside-1_479_144)"/>
</svg>
