<svg width="72" height="48" viewBox="0 0 72 48" fill="none" xmlns="http://www.w3.org/2000/svg">
<path d="M9.64939 0.594482H62.3506C62.9719 0.594482 63.587 0.716845 64.161 0.954584C64.7349 1.19232 65.2564 1.54078 65.6957 1.98007C66.135 2.41935 66.4835 2.94086 66.7212 3.51481C66.9589 4.08877 67.0813 4.70392 67.0813 5.32517V34.994C67.0813 36.2487 66.5829 37.452 65.6957 38.3391C64.8085 39.2263 63.6053 39.7247 62.3506 39.7247H9.64939C8.39473 39.7247 7.19146 39.2263 6.30429 38.3391C5.41711 37.452 4.9187 36.2487 4.9187 34.994V5.32517C4.9187 4.07051 5.41711 2.86724 6.30429 1.98007C7.19146 1.09289 8.39473 0.594482 9.64939 0.594482Z" fill="#60707D"/>
<g opacity="0.66">
<path d="M66.818 5.22281V34.8924C66.819 35.5175 66.6955 36.1366 66.4549 36.7135C66.2142 37.2904 65.8612 37.8136 65.4163 38.2527C65.7298 37.6094 65.892 36.903 65.8905 36.1873V5.69425C65.8905 4.65827 65.479 3.66471 64.7464 2.93216C64.0139 2.19961 63.0203 1.78807 61.9844 1.78807H8.45967C7.21208 1.78623 6.01469 2.27927 5.13013 3.15906C5.51745 2.35988 6.12204 1.68595 6.87464 1.21446C7.62725 0.742973 8.49744 0.492997 9.38553 0.493164H62.0883C63.3427 0.493164 64.5457 0.991466 65.4327 1.87845C66.3197 2.76543 66.818 3.96843 66.818 5.22281Z" fill="white"/>
</g>
<path d="M62.3506 40.319H9.64935C6.71316 40.319 4.32434 37.9302 4.32434 34.9939V5.32508C4.32434 2.38882 6.71316 0 9.64935 0H62.3506C65.2868 0 67.6756 2.38882 67.6756 5.32508V34.9939C67.6756 37.9302 65.2868 40.319 62.3506 40.319ZM9.64935 1.1887C7.36855 1.1887 5.51304 3.04428 5.51304 5.32508V34.9939C5.51304 37.2748 7.36855 39.1304 9.64935 39.1304H62.3506C64.6314 39.1304 66.4869 37.2748 66.4869 34.9939V5.32508C66.4869 3.04428 64.6314 1.1887 62.3506 1.1887H9.64935Z" fill="#102770"/>
<path d="M63.3938 6.46836V33.6809C63.3941 33.9523 63.3408 34.221 63.2371 34.4718C63.1335 34.7226 62.9814 34.9505 62.7895 35.1425C62.5977 35.3344 62.3699 35.4867 62.1192 35.5906C61.8685 35.6945 61.5998 35.7479 61.3284 35.7479H10.6716C10.4002 35.7479 10.1315 35.6945 9.88078 35.5906C9.63007 35.4867 9.4023 35.3344 9.21049 35.1425C9.01867 34.9505 8.86657 34.7226 8.76289 34.4718C8.6592 34.221 8.60596 33.9523 8.6062 33.6809V6.46836C8.60609 6.19702 8.65943 5.92832 8.76316 5.6776C8.8669 5.42688 9.01901 5.19904 9.21079 5.0071C9.40258 4.81517 9.6303 4.66288 9.88094 4.55895C10.1316 4.45502 10.4002 4.40147 10.6716 4.40137H61.3284C61.5998 4.40129 61.8686 4.45471 62.1193 4.55857C62.37 4.66244 62.5978 4.81472 62.7896 5.00669C62.9815 5.19867 63.1336 5.42658 63.2372 5.67738C63.3409 5.92819 63.3941 6.19697 63.3938 6.46836Z" fill="#22A7F0"/>
<g opacity="0.3">
<path d="M64.4055 5.25425V32.4668C64.406 32.8434 64.3035 33.213 64.1088 33.5354C63.9142 33.8579 63.635 34.1209 63.3015 34.2958C63.3628 34.0966 63.3939 33.8892 63.3938 33.6808V6.46823C63.3941 6.19684 63.3409 5.92806 63.2372 5.67725C63.1335 5.42644 62.9814 5.19854 62.7896 5.00656C62.5978 4.81459 62.37 4.66231 62.1193 4.55844C61.8686 4.45458 61.5998 4.40116 61.3284 4.40124H10.6716C10.3364 4.40047 10.0062 4.48218 9.71008 4.63917C9.84144 4.21856 10.1037 3.85088 10.4586 3.58972C10.8135 3.32855 11.2426 3.18755 11.6832 3.18726H62.3401C62.6115 3.18718 62.8802 3.2406 63.1309 3.34447C63.3817 3.44834 63.6094 3.60061 63.8013 3.79259C63.9931 3.98456 64.1452 4.21247 64.2489 4.46327C64.3525 4.71408 64.4057 4.98286 64.4055 5.25425Z" fill="#102770"/>
</g>
<g opacity="0.66">
<path d="M8.60619 6.46829V33.6808C8.60589 34.0759 8.71887 34.4627 8.93174 34.7955C9.14461 35.1283 9.44844 35.3931 9.80721 35.5584H9.511C9.23963 35.5585 8.9709 35.505 8.7202 35.4011C8.4695 35.2973 8.24173 35.145 8.04991 34.953C7.8581 34.761 7.706 34.5332 7.60231 34.2824C7.49862 34.0316 7.44537 33.7628 7.44562 33.4914V6.27892C7.44551 6.00758 7.49885 5.73888 7.60258 5.48815C7.70632 5.23743 7.85843 5.0096 8.05021 4.81766C8.242 4.62572 8.46972 4.47343 8.72036 4.3695C8.97101 4.26557 9.23966 4.21202 9.511 4.21191H60.1679C60.3578 4.21197 60.5468 4.23812 60.7295 4.28962C60.8334 4.31834 60.9346 4.3557 61.0322 4.4013H10.6716C10.4002 4.40141 10.1316 4.45495 9.88092 4.55888C9.63028 4.66282 9.40257 4.8151 9.21078 5.00704C9.01899 5.19898 8.86689 5.42681 8.76315 5.67753C8.65942 5.92826 8.60608 6.19696 8.60619 6.46829Z" fill="white"/>
</g>
<g opacity="0.3">
<path d="M63.3938 6.46836V33.6809C63.3943 34.063 63.2887 34.4378 63.0886 34.7633C62.8885 35.0889 62.6019 35.3524 62.2608 35.5245V6.65289C62.2609 6.50598 62.232 6.36049 62.1758 6.22474C62.1196 6.089 62.0373 5.96566 61.9334 5.86178C61.8295 5.7579 61.7062 5.67551 61.5704 5.61934C61.4347 5.56317 61.2892 5.53431 61.1423 5.53441H8.82953C9.00157 5.19354 9.26487 4.90712 9.5901 4.70707C9.91533 4.50701 10.2897 4.40118 10.6715 4.40137H61.3284C61.5997 4.40147 61.8684 4.45502 62.119 4.55895C62.3697 4.66288 62.5974 4.81516 62.7892 5.0071C62.981 5.19904 63.1331 5.42687 63.2368 5.6776C63.3406 5.92832 63.3939 6.19702 63.3938 6.46836Z" fill="#102770"/>
</g>
<mask id="mask0_516_2562" style="mask-type:luminance" maskUnits="userSpaceOnUse" x="8" y="4" width="22" height="29">
<path style="mix-blend-mode:multiply" d="M29.71 4.40137L8.6062 32.9007V14.2459L15.8949 4.40137H29.71Z" fill="url(#paint0_linear_516_2562)"/>
</mask>
<g mask="url(#mask0_516_2562)">
<path opacity="0.3" d="M29.71 4.40137L8.6062 32.9007V14.2459L15.8949 4.40137H29.71Z" fill="url(#paint1_linear_516_2562)"/>
</g>
<mask id="mask1_516_2562" style="mask-type:luminance" maskUnits="userSpaceOnUse" x="38" y="4" width="26" height="32">
<path style="mix-blend-mode:multiply" d="M63.3938 6.46806V21.107L52.5522 35.7476H38.7371L61.8901 4.47876C62.3232 4.60139 62.7044 4.86204 62.9758 5.22109C63.2472 5.58014 63.394 6.01797 63.3938 6.46806Z" fill="url(#paint2_linear_516_2562)"/>
</mask>
<g mask="url(#mask1_516_2562)">
<path opacity="0.3" d="M63.3938 6.46806V21.107L52.5522 35.7476H38.7371L61.8901 4.47876C62.3232 4.60139 62.7044 4.86204 62.9758 5.22109C63.2472 5.58014 63.394 6.01797 63.3938 6.46806Z" fill="url(#paint3_linear_516_2562)"/>
</g>
<mask id="mask2_516_2562" style="mask-type:luminance" maskUnits="userSpaceOnUse" x="14" y="4" width="32" height="32">
<path style="mix-blend-mode:multiply" d="M45.1113 4.40137L21.9 35.7479H14.9933L38.203 4.40137H45.1113Z" fill="url(#paint4_linear_516_2562)"/>
</mask>
<g mask="url(#mask2_516_2562)">
<path opacity="0.3" d="M45.1113 4.40137L21.9 35.7479H14.9933L38.203 4.40137H45.1113Z" fill="url(#paint5_linear_516_2562)"/>
</g>
<path d="M61.3278 36.3424H10.6722C9.96673 36.3416 9.29042 36.061 8.79161 35.5622C8.29279 35.0634 8.01221 34.3871 8.01141 33.6816V6.46763C8.01222 5.76221 8.29281 5.0859 8.79162 4.58709C9.29043 4.08828 9.96674 3.80769 10.6722 3.80688H61.3278C62.0333 3.80769 62.7096 4.08828 63.2084 4.58709C63.7072 5.0859 63.9878 5.76221 63.9886 6.46763V33.6816C63.9878 34.3871 63.7072 35.0634 63.2084 35.5622C62.7096 36.061 62.0333 36.3416 61.3278 36.3424ZM10.6722 4.99558C10.2819 4.99604 9.90773 5.15127 9.63176 5.42723C9.3558 5.7032 9.20056 6.07736 9.20011 6.46763V33.6816C9.20054 34.0719 9.35576 34.4461 9.63172 34.7221C9.90769 34.9981 10.2819 35.1534 10.6722 35.1538H61.3278C61.7181 35.1534 62.0923 34.9981 62.3683 34.7221C62.6442 34.4461 62.7995 34.0719 62.7999 33.6816V6.46763C62.7994 6.07736 62.6442 5.7032 62.3682 5.42723C62.0923 5.15127 61.7181 4.99604 61.3278 4.99558H10.6722Z" fill="#102770"/>
<g opacity="0.3">
<path d="M13.0477 22.6077C13.0833 22.4296 13.1238 22.2564 13.1691 22.0913C13.1238 22.258 13.0833 22.4296 13.0477 22.6077Z" fill="#5F5A57"/>
</g>
<path d="M37.517 12.2178L35.9456 19.4881L32.2842 18.6975L33.8552 11.4255L35.299 13.3629L37.517 12.2178Z" fill="#FF5722"/>
<g opacity="0.57">
<path d="M34.6595 14.1941L33.5749 12.7389L32.3066 18.6106L32.2654 18.6012L33.8365 11.3298L35.2815 13.2671L37.4986 12.1209L37.1896 13.5545L35.552 14.4C35.4029 14.477 35.2314 14.4985 35.068 14.4608C34.9045 14.4231 34.7598 14.3285 34.6595 14.1941Z" fill="white"/>
</g>
<path d="M34.157 17.9609L31.1944 20.2542L26.642 14.3699L29.2091 14.491L29.605 12.0781L34.157 17.9609Z" fill="#FF5722"/>
<g opacity="0.57">
<path d="M34.2197 18.0418L30.3739 13.0718L30.088 14.8132C30.0576 14.9984 29.9601 15.166 29.8142 15.2841C29.6683 15.4022 29.484 15.4626 29.2965 15.4537L27.4608 15.3668L26.7341 14.4276L29.3008 14.5479L29.6966 12.1353L34.2492 18.0182L34.2197 18.0418Z" fill="white"/>
</g>
<path d="M35.946 19.9135C35.9157 19.9135 35.8855 19.9102 35.8558 19.9038L32.1944 19.1132C32.1398 19.1014 32.088 19.079 32.042 19.0472C31.9961 19.0154 31.9569 18.9748 31.9266 18.9279C31.8963 18.8809 31.8756 18.8285 31.8656 18.7735C31.8556 18.7185 31.8565 18.6621 31.8683 18.6075L33.4394 11.3356C33.4566 11.2557 33.4965 11.1825 33.5542 11.1248C33.612 11.067 33.6851 11.027 33.7649 11.0097C33.8448 10.9924 33.9279 10.9984 34.0044 11.027C34.0809 11.0556 34.1475 11.1057 34.1964 11.1712L35.4245 12.8192L37.3219 11.8397C37.3935 11.8027 37.4743 11.7868 37.5546 11.7939C37.635 11.801 37.7116 11.8308 37.7757 11.8799C37.8397 11.9289 37.8885 11.9952 37.9163 12.0709C37.9442 12.1466 37.9499 12.2286 37.9329 12.3075L36.3614 19.5778C36.3409 19.6728 36.2885 19.7579 36.2129 19.8189C36.1373 19.88 36.0432 19.9134 35.946 19.9135ZM32.7898 18.3713L35.6197 18.9823L36.9106 13.0095L35.4942 13.7407C35.4046 13.7869 35.3015 13.7999 35.2033 13.7772C35.1051 13.7545 35.0181 13.6977 34.9579 13.6169L34.0734 12.4301L32.7898 18.3713Z" fill="#102770"/>
<path d="M31.1944 20.6798C31.1294 20.6798 31.0653 20.665 31.0069 20.6364C30.9486 20.6077 30.8976 20.5661 30.8579 20.5147L26.3055 14.6304C26.2558 14.5662 26.2256 14.489 26.2183 14.4081C26.2111 14.3272 26.2271 14.2458 26.2646 14.1738C26.3021 14.1017 26.3595 14.0419 26.4299 14.0013C26.5004 13.9608 26.5809 13.9413 26.6621 13.9452L28.8506 14.0483L29.1852 12.0094C29.1986 11.9276 29.2356 11.8516 29.2916 11.7905C29.3476 11.7295 29.4203 11.6862 29.5006 11.6658C29.5809 11.6455 29.6654 11.6491 29.7437 11.6761C29.822 11.7031 29.8907 11.7524 29.9415 11.8179L34.4935 17.7005C34.5625 17.7897 34.5933 17.9027 34.579 18.0146C34.5648 18.1265 34.5066 18.2282 34.4174 18.2972L31.4548 20.5907C31.3803 20.6485 31.2887 20.6798 31.1944 20.6798ZM27.5422 14.8385L31.2705 19.6575L33.5603 17.8849L29.8666 13.1115L29.6289 14.56C29.6126 14.6632 29.5586 14.7568 29.4774 14.8225C29.3961 14.8883 29.2934 14.9216 29.189 14.9161L27.5422 14.8385Z" fill="#102770"/>
<path d="M11.4856 22.3934C11.4856 22.3934 11.2518 20.0421 12.6698 16.5337C25.9761 18.816 38.6374 16.5126 50.4948 8.49341L50.4443 10.9337L28.9678 21.569L11.4856 22.3934Z" fill="white"/>
<g opacity="0.3">
<path d="M49.3604 11.4709L28.9674 21.5692L11.4865 22.3933C11.4865 22.3933 11.2526 20.0421 12.6697 16.533C25.4506 18.7258 37.6337 16.6868 49.0822 9.41895C49.1651 10.0632 49.2702 10.8234 49.3604 11.4709Z" fill="#102770"/>
</g>
<path d="M11.4853 22.819C11.3798 22.8189 11.2781 22.7796 11.1999 22.7088C11.1218 22.6379 11.0727 22.5405 11.0622 22.4356C11.0523 22.3354 10.8347 19.9391 12.2753 16.3745C12.3118 16.2845 12.3779 16.2096 12.4627 16.1623C12.5475 16.1151 12.646 16.0982 12.7417 16.1145C26.3587 18.4504 38.9803 15.7673 50.2565 8.14117C50.3211 8.09747 50.3965 8.07236 50.4744 8.06861C50.5523 8.06485 50.6297 8.08259 50.6982 8.11988C50.7667 8.15716 50.8237 8.21257 50.8628 8.28003C50.9019 8.34749 50.9218 8.42441 50.9201 8.50239L50.8695 10.9427C50.8679 11.0205 50.845 11.0963 50.8033 11.162C50.7616 11.2276 50.7027 11.2806 50.633 11.3151L29.1566 21.9502C29.104 21.9763 29.0465 21.9912 28.9878 21.9939L11.5056 22.8184C11.4988 22.8188 11.492 22.819 11.4853 22.819ZM12.9393 17.0106C12.0286 19.3876 11.9026 21.1837 11.8978 21.9482L28.8588 21.1483L50.0243 10.6671L50.0527 9.29925C44.4052 13.0041 38.4068 15.5241 32.2111 16.7935C26.1031 18.0447 19.6212 18.1177 12.9393 17.0106Z" fill="#102770"/>
<path d="M17.367 24.1526C18.0557 27.192 17.3491 29.9437 15.7888 30.2973C14.2268 30.6513 12.403 28.473 11.7142 25.4336C11.0255 22.3942 11.7321 19.6425 13.2941 19.2886C14.3247 19.055 15.4718 19.9273 16.3293 21.4238C16.7699 22.1912 17.1338 23.1236 17.367 24.1526Z" fill="white"/>
<g opacity="0.3">
<path d="M16.2944 30.0829L16.2929 30.0822C14.8312 30.0239 13.2522 27.9634 12.622 25.1821C12.0135 22.494 12.4966 20.0292 13.6982 19.2522C14.6163 19.2913 15.5831 20.1199 16.3288 21.4244C16.7706 22.1914 17.1343 23.1244 17.367 24.1531C17.9769 26.8419 17.493 29.3046 16.2944 30.0829Z" fill="#102770"/>
</g>
<path d="M15.4519 30.7603C13.7565 30.7603 11.9925 28.5865 11.2993 25.5276C10.9515 23.9927 10.9333 22.4728 11.2481 21.248C11.5881 19.9251 12.2813 19.0818 13.2 18.8736C14.3958 18.6024 15.7039 19.4767 16.6983 21.2123C17.1722 22.0374 17.5469 23.0217 17.7819 24.0585C18.534 27.3777 17.6998 30.3004 15.8828 30.7122C15.7414 30.7442 15.5968 30.7604 15.4519 30.7603ZM13.633 19.6763C13.5506 19.6762 13.4685 19.6852 13.3881 19.7034C12.8047 19.8356 12.325 20.4758 12.0721 21.4598C11.7904 22.5562 11.8106 23.934 12.1291 25.3396C12.7543 28.0983 14.3871 30.1782 15.6947 29.8824C16.8589 29.6185 17.6419 27.291 16.9521 24.2465C16.7357 23.2914 16.3927 22.3886 15.9603 21.6356C15.2522 20.3996 14.3829 19.6763 13.633 19.6763Z" fill="#282E6A"/>
<path d="M15.7888 30.2972C15.914 30.2504 16.0393 30.2036 16.1633 30.1587C16.045 30.221 15.9191 30.2675 15.7888 30.2972Z" fill="white"/>
<path d="M15.7885 30.7228C15.6888 30.7228 15.5924 30.6877 15.5159 30.6238C15.4394 30.5599 15.3879 30.4711 15.3701 30.3731C15.3524 30.275 15.3697 30.1738 15.4189 30.0872C15.4681 30.0006 15.5462 29.934 15.6396 29.899C15.7663 29.8516 15.893 29.8042 16.0185 29.7588C16.1199 29.7221 16.2315 29.7253 16.3306 29.7677C16.4298 29.8101 16.5091 29.8886 16.5526 29.9873C16.5961 30.086 16.6005 30.1975 16.5648 30.2993C16.5292 30.4011 16.4563 30.4856 16.3607 30.5356C16.2098 30.6149 16.0492 30.6743 15.883 30.7123C15.852 30.7193 15.8203 30.7228 15.7885 30.7228Z" fill="#282E6A"/>
<path d="M16.6955 29.7298C14.7805 29.0974 12.7641 25.1955 13.5336 21.9291L16.4908 21.719C17.8915 24.2123 17.9597 26.8826 16.6955 29.7298Z" fill="white"/>
<g opacity="0.3">
<path d="M16.9443 29.1263C15.3214 27.9156 13.8984 24.6748 14.4933 21.8602L16.4906 21.7183C17.7911 24.0362 17.9423 26.5055 16.9443 29.1263Z" fill="#102770"/>
</g>
<path d="M53.2593 21.8058C50.2229 21.9739 47.0681 22.3165 43.855 22.8077C37.9037 23.7198 31.7509 25.1426 25.7655 26.9298C23.5351 27.5946 21.3288 28.3118 19.1645 29.0719C18.1644 29.4218 17.164 29.7843 16.1633 30.1594C17.4576 29.4807 17.9981 26.9365 17.3671 24.1531C17.1343 23.1244 16.7706 22.1914 16.3289 21.4244C15.5904 20.1353 14.6371 19.3074 13.7269 19.2543C17.0453 18.9993 20.3906 18.6237 23.7111 18.1257C29.7018 17.2309 35.6164 15.9421 41.1674 14.2637C44.5208 13.2507 47.742 12.0944 50.7656 10.7972C52.2512 10.4602 53.9772 12.4198 54.7333 15.2319C54.771 15.3721 54.8074 15.5153 54.8396 15.66C55.5285 18.7005 54.8198 21.4529 53.2593 21.8058Z" fill="white"/>
<g opacity="0.3">
<path d="M25.8609 18.8667C30.3512 18.1285 34.7816 17.1682 39.0291 15.9867C39.1889 15.9419 39.3575 15.938 39.5192 15.9753C39.681 16.0126 39.8308 16.0899 39.955 16.2001C40.0791 16.3103 40.1736 16.4499 40.2298 16.6061C40.286 16.7623 40.3022 16.9301 40.2767 17.0941C40.1412 17.9734 40.1763 18.7677 40.3819 19.4771C40.5562 20.0855 40.8652 20.6469 41.286 21.1196C42.0389 20.9901 42.7898 20.8679 43.5388 20.7529C46.751 20.261 49.9057 19.9191 52.9423 19.7511C54.1892 19.4675 54.8929 17.6517 54.772 15.3811C54.7956 15.474 54.8184 15.5658 54.8398 15.6601C54.9246 16.0342 54.9895 16.4124 55.0342 16.7933C55.3353 19.3573 54.6232 21.4979 53.2596 21.8053C50.223 21.9733 47.068 22.317 43.855 22.8078C37.9035 23.7192 31.7509 25.142 25.765 26.9298C23.5355 27.5948 21.3286 28.3117 19.1641 29.0717C18.6032 29.2684 18.0425 29.4687 17.4822 29.6726C17.0433 29.8322 16.6036 29.9945 16.163 30.1596C16.9024 29.7716 17.3956 28.7764 17.5647 27.4743C17.9923 27.3192 18.42 27.1667 18.8479 27.0167C21.0124 26.2568 23.2127 25.5428 25.4488 24.8748C25.8742 24.7469 26.3007 24.623 26.7291 24.4995C26.8328 24.0169 26.8721 23.5226 26.8458 23.0296C26.7811 21.9427 26.3664 20.87 25.5075 19.8162C25.2228 19.467 25.4163 18.9398 25.8609 18.8667Z" fill="#102770"/>
</g>
<path d="M16.1634 30.5843C16.0682 30.5843 15.9758 30.5524 15.9009 30.4937C15.826 30.435 15.773 30.3529 15.7502 30.2604C15.7275 30.168 15.7364 30.0707 15.7755 29.9839C15.8146 29.8972 15.8817 29.826 15.966 29.7819C16.9505 29.2665 17.5886 27.0551 16.9521 24.2465C16.7357 23.2914 16.3927 22.3886 15.9603 21.6356C15.2834 20.4538 14.4393 19.7225 13.7022 19.6787C13.5946 19.6723 13.4934 19.6253 13.4191 19.5471C13.3448 19.469 13.303 19.3655 13.302 19.2577C13.3011 19.1499 13.3411 19.0457 13.414 18.9663C13.4869 18.8869 13.5873 18.8381 13.6948 18.8298C27.2632 17.7857 40.3689 14.7941 50.5976 10.4063C50.6214 10.3961 50.6461 10.388 50.6713 10.3823C52.3916 9.9928 54.3139 12.0303 55.1436 15.1221C55.1831 15.266 55.2206 15.4164 55.2548 15.5668V15.567C56.0069 18.8861 55.172 21.8088 53.354 22.2209C53.3309 22.2261 53.3074 22.2294 53.2837 22.2307C43.0548 22.8015 30.9876 25.3734 19.3051 29.4724C18.3163 29.8194 17.3094 30.1843 16.3124 30.5573C16.2647 30.5751 16.2143 30.5843 16.1634 30.5843ZM15.3602 19.5459C15.8417 19.9496 16.298 20.5133 16.6984 21.2124C17.1722 22.0374 17.547 23.0217 17.7819 24.0585C18.2347 26.0567 18.1122 27.9437 17.5278 29.2031C18.0285 29.0216 18.5282 28.8434 19.0234 28.6697C30.7642 24.55 42.8994 21.9629 53.1976 21.3834C54.345 21.0846 55.1086 18.7716 54.425 15.7549C54.3937 15.6168 54.3592 15.4788 54.3224 15.3449C53.6427 12.812 52.1117 10.9697 50.8943 11.2048C40.9915 15.4462 28.4294 18.3906 15.3602 19.5459Z" fill="#102770"/>
<path d="M37.7941 23.8824L32.4238 25.0994C32.2692 22.2791 31.6405 19.5049 30.5643 16.8935L35.9346 15.6765C37.242 18.389 37.9325 21.1219 37.7941 23.8824Z" fill="#FF5722"/>
<g opacity="0.57">
<path d="M32.2686 23.3843C32.3729 23.9439 32.4573 24.5081 32.5216 25.0769L32.4228 25.0996C32.3904 24.5229 32.339 23.9511 32.2686 23.3843Z" fill="white"/>
</g>
<g opacity="0.57">
<path d="M37.7365 21.7164C37.427 20.1959 36.8909 18.6838 36.1658 17.1776L31.1025 18.3246C30.9392 17.8437 30.7583 17.3671 30.564 16.8934L35.9351 15.676C36.8992 17.6773 37.5289 19.6902 37.7365 21.7164Z" fill="white"/>
</g>
<g opacity="0.57">
<path d="M32.2686 23.3842C31.9511 21.6747 31.4571 20.0027 30.7947 18.3951L31.1025 18.3247C31.6662 19.966 32.057 21.6617 32.2686 23.3842Z" fill="white"/>
</g>
<g opacity="0.3">
<path d="M37.794 23.8824L32.4229 25.0997C32.3794 24.33 32.3034 23.5668 32.1907 22.812L37.3317 21.6468C37.3748 20.7766 37.3374 19.9043 37.2201 19.041C37.6702 20.6459 37.8758 22.2602 37.794 23.8824Z" fill="#102770"/>
</g>
<path d="M32.4239 25.5247C32.3151 25.5247 32.2106 25.4831 32.1316 25.4084C32.0526 25.3337 32.0052 25.2316 31.9991 25.123C31.8449 22.3504 31.2269 19.6233 30.1708 17.0551C30.1473 16.9978 30.1365 16.9362 30.1393 16.8744C30.142 16.8126 30.1582 16.7522 30.1868 16.6973C30.2153 16.6424 30.2554 16.5944 30.3044 16.5566C30.3533 16.5188 30.41 16.4922 30.4703 16.4785L35.8406 15.2615C35.9344 15.2402 36.0327 15.2514 36.1194 15.2932C36.2061 15.335 36.276 15.405 36.3178 15.4918C37.7337 18.4288 38.3555 21.1804 38.2191 23.9036C38.2144 23.9963 38.1795 24.085 38.1198 24.156C38.0601 24.2271 37.9787 24.2766 37.8882 24.2972L32.5179 25.5141C32.487 25.5211 32.4555 25.5246 32.4239 25.5247ZM31.1442 17.1982C32.0623 19.5609 32.6256 22.0466 32.8157 24.5743L37.3816 23.5396C37.4452 21.1599 36.8923 18.7412 35.696 16.1667L31.1442 17.1982Z" fill="#102770"/>
<path d="M16.6954 30.1555C16.6501 30.1554 16.605 30.1481 16.5619 30.1338C14.375 29.4117 12.3128 25.2559 13.1194 21.8316C13.1402 21.7433 13.1887 21.664 13.2578 21.6053C13.3268 21.5465 13.4129 21.5113 13.5033 21.5049L16.4606 21.2948C16.5164 21.2908 16.5723 21.2978 16.6254 21.3155C16.6784 21.3331 16.7274 21.3611 16.7697 21.3977C16.8119 21.4343 16.8465 21.4788 16.8715 21.5288C16.8965 21.5788 16.9114 21.6332 16.9153 21.689C16.9193 21.7447 16.9122 21.8007 16.8946 21.8537C16.8769 21.9067 16.8489 21.9557 16.8123 21.998C16.7757 22.0402 16.7311 22.0747 16.6811 22.0997C16.6311 22.1247 16.5767 22.1396 16.5209 22.1435L13.8847 22.3307C13.3377 25.3939 15.2724 28.812 16.8288 29.326C16.9248 29.3577 17.0064 29.4226 17.0589 29.509C17.1114 29.5954 17.1314 29.6977 17.1153 29.7975C17.0993 29.8973 17.0482 29.9882 16.9713 30.0538C16.8943 30.1194 16.7965 30.1554 16.6954 30.1555Z" fill="#282E6A"/>
<path d="M0.59436 39.7246H71.4057C71.4057 41.5823 70.6677 43.364 69.3541 44.6776C68.0405 45.9912 66.2589 46.7291 64.4011 46.7291H7.59888C5.74117 46.7291 3.95954 45.9912 2.64594 44.6776C1.33234 43.364 0.59436 41.5823 0.59436 39.7246Z" fill="#DBE3EE"/>
<g opacity="0.3">
<path d="M70.9836 39.7249C70.743 41.3923 69.9095 42.9172 68.636 44.0201C67.3624 45.123 65.7341 45.7301 64.0494 45.73H7.24815C4.38154 45.73 1.91636 44.0078 0.831869 41.541C0.673378 40.9486 0.593383 40.338 0.593936 39.7249H1.28186C2.35986 42.2078 4.83315 43.943 7.71108 43.943H64.5123C65.8783 43.9426 67.2145 43.5431 68.3566 42.7938C69.4988 42.0444 70.3972 40.9778 70.9415 39.7249H70.9836Z" fill="#26316B"/>
</g>
<path d="M64.4011 47.3234H7.59886C3.4088 47.3234 0 43.9146 0 39.7247C3.99928e-06 39.6466 0.0153806 39.5693 0.0452517 39.4972C0.0751228 39.4251 0.118903 39.3596 0.174094 39.3044C0.229284 39.2492 0.294804 39.2055 0.366912 39.1756C0.439019 39.1457 0.516303 39.1304 0.59435 39.1304H71.4056C71.4837 39.1304 71.561 39.1457 71.6331 39.1756C71.7052 39.2055 71.7707 39.2492 71.8259 39.3044C71.8811 39.3596 71.9249 39.4251 71.9547 39.4972C71.9846 39.5693 72 39.6466 72 39.7247C72 43.9146 68.5912 47.3234 64.4011 47.3234ZM1.21601 40.3189C1.51693 43.5759 4.26467 46.1348 7.59886 46.1348H64.4011C67.7353 46.1348 70.4831 43.5759 70.784 40.3189H1.21601Z" fill="#26316B"/>
<path d="M30.566 39.7246H41.434C41.434 40.3513 41.185 40.9524 40.7419 41.3955C40.2987 41.8387 39.6977 42.0876 39.0709 42.0876H32.9291C32.3023 42.0876 31.7013 41.8387 31.2581 41.3955C30.815 40.9524 30.566 40.3513 30.566 39.7246Z" fill="white"/>
<g opacity="0.3">
<path d="M41.4338 39.7249C41.4338 40.0352 41.3728 40.3426 41.2541 40.6293C41.1353 40.9161 40.9613 41.1766 40.7418 41.3961C40.5223 41.6156 40.2618 41.7896 39.975 41.9084C39.6883 42.0271 39.3809 42.0882 39.0705 42.0881H37.6138C37.9241 42.0882 38.2315 42.0271 38.5182 41.9084C38.805 41.7896 39.0656 41.6156 39.285 41.3961C39.5045 41.1766 39.6785 40.9161 39.7973 40.6293C39.916 40.3426 39.9771 40.0352 39.977 39.7249H41.4338Z" fill="#26316B"/>
</g>
<path d="M39.0709 42.597H32.929C32.1675 42.5962 31.4374 42.2933 30.8989 41.7548C30.3604 41.2164 30.0575 40.4863 30.0566 39.7247C30.0566 39.5896 30.1103 39.46 30.2058 39.3645C30.3014 39.269 30.4309 39.2153 30.566 39.2153H41.434C41.5691 39.2153 41.6987 39.269 41.7942 39.3645C41.8897 39.46 41.9434 39.5896 41.9434 39.7247C41.9425 40.4863 41.6396 41.2164 41.1011 41.7549C40.5626 42.2933 39.8325 42.5962 39.0709 42.597ZM31.1467 40.2341C31.2578 40.6211 31.4918 40.9615 31.8133 41.2039C32.1348 41.4464 32.5264 41.5778 32.929 41.5783H39.0709C39.4736 41.5778 39.8652 41.4464 40.1867 41.2039C40.5082 40.9615 40.7421 40.6211 40.8533 40.2341H31.1467Z" fill="#26316B"/>
<defs>
<linearGradient id="paint0_linear_516_2562" x1="27.3048" y1="-6.83511" x2="7.7193" y2="32.0122" gradientUnits="userSpaceOnUse">
<stop stop-color="white"/>
<stop offset="1"/>
</linearGradient>
<linearGradient id="paint1_linear_516_2562" x1="27.3048" y1="-6.83511" x2="7.7193" y2="32.0122" gradientUnits="userSpaceOnUse">
<stop stop-color="white"/>
<stop offset="1" stop-color="white"/>
</linearGradient>
<linearGradient id="paint2_linear_516_2562" x1="60.4251" y1="9.86276" x2="40.8396" y2="48.71" gradientUnits="userSpaceOnUse">
<stop stop-color="white"/>
<stop offset="1"/>
</linearGradient>
<linearGradient id="paint3_linear_516_2562" x1="60.4251" y1="9.86276" x2="40.8396" y2="48.71" gradientUnits="userSpaceOnUse">
<stop stop-color="white"/>
<stop offset="1" stop-color="white"/>
</linearGradient>
<linearGradient id="paint4_linear_516_2562" x1="40.3129" y1="-0.27684" x2="20.7273" y2="38.5705" gradientUnits="userSpaceOnUse">
<stop stop-color="white"/>
<stop offset="1"/>
</linearGradient>
<linearGradient id="paint5_linear_516_2562" x1="40.3129" y1="-0.27684" x2="20.7273" y2="38.5705" gradientUnits="userSpaceOnUse">
<stop stop-color="white"/>
<stop offset="1" stop-color="white"/>
</linearGradient>
</defs>
</svg>
