<svg width="55" height="64" viewBox="0 0 55 64" fill="none" xmlns="http://www.w3.org/2000/svg">
<path d="M52.3017 46.3293C51.6507 46.3292 51.0262 46.0714 50.5646 45.6123C50.1031 45.1532 49.842 44.5301 49.8384 43.8791C49.8348 43.2281 50.0889 42.6021 50.5454 42.1379C51.0019 41.6738 51.6235 41.4091 52.2744 41.4018C52.9254 41.3944 53.5528 41.6451 54.0196 42.0989C54.4864 42.5526 54.7546 43.1727 54.7657 43.8237C54.7767 44.4746 54.5297 45.1034 54.0786 45.5728C53.6275 46.0422 53.0089 46.3139 52.3581 46.3287C52.3393 46.3291 52.3204 46.3293 52.3017 46.3293ZM52.3037 42.4777C52.2933 42.4777 52.2828 42.4777 52.2724 42.478C51.9056 42.4863 51.5569 42.6394 51.3027 42.9038C51.0484 43.1683 50.9091 43.5227 50.9153 43.8895C50.9215 44.2564 51.0726 44.6059 51.3357 44.8616C51.5987 45.1174 51.9523 45.2586 52.3192 45.2545C52.6861 45.2504 53.0364 45.1012 53.2936 44.8396C53.5509 44.578 53.6941 44.2252 53.6921 43.8584C53.69 43.4915 53.5428 43.1403 53.2827 42.8816C53.0225 42.6229 52.6706 42.4777 52.3037 42.4777Z" fill="#19B5FE"/>
<path d="M48.403 36.3973C48.5183 36.0237 48.3089 35.6273 47.9353 35.512C47.5616 35.3966 47.1652 35.606 47.0499 35.9797C46.9346 36.3533 47.144 36.7497 47.5176 36.8651C47.8913 36.9804 48.2877 36.771 48.403 36.3973Z" fill="#F7C714"/>
<path d="M47.0345 52.1391C47.7437 51.9095 48.1325 51.1485 47.9029 50.4393C47.6733 49.7302 46.9123 49.3413 46.2032 49.5709C45.494 49.8005 45.1052 50.5615 45.3347 51.2707C45.5643 51.9798 46.3253 52.3686 47.0345 52.1391Z" fill="#FF5722"/>
<path d="M38.3865 11.5747V50.6025C38.3865 50.8798 38.3319 51.1545 38.2257 51.4107C38.1196 51.667 37.964 51.8998 37.7679 52.096C37.5717 52.2921 37.3389 52.4477 37.0826 52.5538C36.8264 52.66 36.5517 52.7146 36.2744 52.7146H2.68843C2.41106 52.7146 2.1364 52.66 1.88015 52.5538C1.62389 52.4477 1.39105 52.2921 1.19492 52.096C0.998793 51.8998 0.843214 51.667 0.73707 51.4107C0.630925 51.1545 0.576294 50.8798 0.576294 50.6025V2.65983C0.576294 2.38623 0.630181 2.11531 0.734882 1.86254C0.839583 1.60977 0.993045 1.38009 1.18651 1.18663C1.37997 0.99317 1.60964 0.839707 1.86241 0.735006C2.11518 0.630305 2.3861 0.576416 2.6597 0.576416H25.928L38.3865 11.5747Z" fill="#FFF7E1"/>
<g opacity="0.2">
<path d="M38.3869 48.5839V50.6025C38.3869 50.8798 38.3323 51.1545 38.2262 51.4107C38.12 51.667 37.9644 51.8998 37.7683 52.096C37.5722 52.2921 37.3393 52.4477 37.0831 52.5538C36.8268 52.66 36.5522 52.7146 36.2748 52.7146H2.68907C2.12889 52.7146 1.59165 52.4921 1.19554 52.096C0.799434 51.6999 0.576904 51.1626 0.576904 50.6024V2.65951C0.576904 2.38592 0.630791 2.11502 0.735489 1.86225C0.840187 1.60949 0.993644 1.37982 1.1871 1.18637C1.38056 0.992911 1.61022 0.839454 1.86299 0.734756C2.11575 0.630059 2.38666 0.576172 2.66025 0.576172H4.10678V37.0938C4.10678 43.4396 9.25108 48.5839 15.5969 48.5839H38.3869Z" fill="#102770"/>
</g>
<path d="M36.2744 53.2908H2.68842C1.97564 53.29 1.2923 53.0065 0.788297 52.5025C0.284295 51.9985 0.000798723 51.3151 0 50.6023V2.65972C0.000793413 1.95456 0.281267 1.27851 0.779889 0.779889C1.27851 0.281267 1.95456 0.000793416 2.65972 2.786e-09H25.928C26.0685 -1.38051e-05 26.2042 0.0512983 26.3095 0.144287L38.7679 11.1425C38.8292 11.1966 38.8782 11.2631 38.9118 11.3376C38.9454 11.412 38.9628 11.4928 38.9628 11.5745V50.6023C38.962 51.3151 38.6785 51.9985 38.1745 52.5025C37.6705 53.0065 36.9872 53.29 36.2744 53.2908ZM2.65972 1.15261C2.26014 1.15306 1.87706 1.31198 1.59452 1.59452C1.31198 1.87706 1.15306 2.26014 1.15261 2.65972V50.6023C1.15306 51.0095 1.31501 51.3999 1.60293 51.6878C1.89085 51.9758 2.28123 52.1377 2.68842 52.1382H36.2744C36.6816 52.1377 37.0719 51.9758 37.3599 51.6878C37.6478 51.3999 37.8097 51.0095 37.8102 50.6023V11.8345L25.71 1.15261H2.65972Z" fill="#102770"/>
<g opacity="0.3">
<path d="M38.3865 13.6878H26.8548C26.125 13.6878 25.4251 13.3979 24.909 12.8818C24.3929 12.3657 24.103 11.6658 24.103 10.936V0.576416H25.928L38.3865 11.3773V13.6878Z" fill="#102770"/>
</g>
<path d="M38.3865 11.5747H28.1142C27.8271 11.5747 27.5428 11.5181 27.2776 11.4082C27.0123 11.2984 26.7713 11.1374 26.5683 10.9344C26.3653 10.7314 26.2043 10.4904 26.0944 10.2251C25.9846 9.95989 25.928 9.67562 25.928 9.38853V0.576416L38.3865 11.5747Z" fill="#FFF7E1"/>
<path d="M38.3865 12.1508H27.761C27.1222 12.1501 26.5098 11.8961 26.0582 11.4444C25.6065 10.9927 25.3524 10.3804 25.3517 9.74162V0.5763C25.3517 0.465365 25.3837 0.356788 25.4439 0.263604C25.5041 0.17042 25.5899 0.0965895 25.691 0.0509749C25.7922 0.00536018 25.9043 -0.0101004 26.014 0.00645041C26.1237 0.0230013 26.2263 0.0708597 26.3094 0.14428L38.7679 11.1425C38.8556 11.22 38.9177 11.3223 38.9458 11.4359C38.974 11.5495 38.9669 11.669 38.9255 11.7784C38.8841 11.8879 38.8103 11.9821 38.714 12.0487C38.6177 12.1152 38.5035 12.1508 38.3865 12.1508ZM26.5043 1.85378V9.74162C26.5047 10.0748 26.6372 10.3942 26.8728 10.6298C27.1084 10.8653 27.4278 10.9978 27.761 10.9982H36.8628L26.5043 1.85378Z" fill="#102770"/>
<g opacity="0.3">
<path d="M24.103 19.8918H7.13647C7.00273 19.8918 6.87447 19.8387 6.7799 19.7441C6.68533 19.6496 6.6322 19.5213 6.6322 19.3876C6.6322 19.2538 6.68533 19.1256 6.7799 19.031C6.87447 18.9364 7.00273 18.8833 7.13647 18.8833H24.103C24.2368 18.8833 24.365 18.9364 24.4596 19.031C24.5542 19.1256 24.6073 19.2538 24.6073 19.3876C24.6073 19.5213 24.5542 19.6496 24.4596 19.7441C24.365 19.8387 24.2368 19.8918 24.103 19.8918Z" fill="#102770"/>
</g>
<g opacity="0.3">
<path d="M24.103 22.5732H7.13647C7.00273 22.5732 6.87447 22.5201 6.7799 22.4255C6.68533 22.331 6.6322 22.2027 6.6322 22.069C6.6322 21.9352 6.68533 21.807 6.7799 21.7124C6.87447 21.6178 7.00273 21.5647 7.13647 21.5647H24.103C24.2368 21.5647 24.365 21.6178 24.4596 21.7124C24.5542 21.807 24.6073 21.9352 24.6073 22.069C24.6073 22.2027 24.5542 22.331 24.4596 22.4255C24.365 22.5201 24.2368 22.5732 24.103 22.5732Z" fill="#102770"/>
</g>
<g opacity="0.3">
<path d="M24.103 33.2927H7.13647C7.00273 33.2927 6.87447 33.2396 6.7799 33.145C6.68533 33.0505 6.6322 32.9222 6.6322 32.7884C6.6322 32.6547 6.68533 32.5264 6.7799 32.4319C6.87447 32.3373 7.00273 32.2842 7.13647 32.2842H24.103C24.2368 32.2842 24.365 32.3373 24.4596 32.4319C24.5542 32.5264 24.6073 32.6547 24.6073 32.7884C24.6073 32.9222 24.5542 33.0505 24.4596 33.145C24.365 33.2396 24.2368 33.2927 24.103 33.2927Z" fill="#102770"/>
</g>
<g opacity="0.3">
<path d="M24.103 30.6177H7.13647C7.00273 30.6177 6.87447 30.5645 6.7799 30.47C6.68533 30.3754 6.6322 30.2471 6.6322 30.1134C6.6322 29.9797 6.68533 29.8514 6.7799 29.7568C6.87447 29.6623 7.00273 29.6091 7.13647 29.6091H24.103C24.2368 29.6091 24.365 29.6623 24.4596 29.7568C24.5542 29.8514 24.6073 29.9797 24.6073 30.1134C24.6073 30.2471 24.5542 30.3754 24.4596 30.47C24.365 30.5645 24.2368 30.6177 24.103 30.6177Z" fill="#102770"/>
</g>
<g opacity="0.3">
<path d="M19.0326 25.2549H7.13647C7.00273 25.2549 6.87447 25.2017 6.7799 25.1072C6.68533 25.0126 6.6322 24.8843 6.6322 24.7506C6.6322 24.6169 6.68533 24.4886 6.7799 24.394C6.87447 24.2995 7.00273 24.2463 7.13647 24.2463H19.0326C19.1663 24.2463 19.2946 24.2995 19.3891 24.394C19.4837 24.4886 19.5368 24.6169 19.5368 24.7506C19.5368 24.8843 19.4837 25.0126 19.3891 25.1072C19.2946 25.2017 19.1663 25.2549 19.0326 25.2549Z" fill="#102770"/>
</g>
<g opacity="0.3">
<path d="M14.1571 8.25976H7.13647C7.00273 8.25976 6.87447 8.20663 6.7799 8.11206C6.68533 8.01749 6.6322 7.88923 6.6322 7.75549C6.6322 7.62175 6.68533 7.49349 6.7799 7.39892C6.87447 7.30435 7.00273 7.25122 7.13647 7.25122H14.1571C14.2908 7.25122 14.4191 7.30435 14.5137 7.39892C14.6082 7.49349 14.6614 7.62175 14.6614 7.75549C14.6614 7.88923 14.6082 8.01749 14.5137 8.11206C14.4191 8.20663 14.2908 8.25976 14.1571 8.25976Z" fill="#102770"/>
</g>
<g opacity="0.3">
<path d="M14.1571 11.1042H7.13647C7.00273 11.1042 6.87447 11.0511 6.7799 10.9565C6.68533 10.862 6.6322 10.7337 6.6322 10.6C6.6322 10.4662 6.68533 10.338 6.7799 10.2434C6.87447 10.1488 7.00273 10.0957 7.13647 10.0957H14.1571C14.2908 10.0957 14.4191 10.1488 14.5137 10.2434C14.6082 10.338 14.6614 10.4662 14.6614 10.6C14.6614 10.7337 14.6082 10.862 14.5137 10.9565C14.4191 11.0511 14.2908 11.1042 14.1571 11.1042Z" fill="#102770"/>
</g>
<path d="M34.321 41.6265H24.3199V54.8494H34.321V41.6265Z" fill="#22A7F0"/>
<path d="M30.9845 41.6265H27.6565V50.4137H30.9845V41.6265Z" fill="#F7C414"/>
<g opacity="0.8">
<path d="M34.3212 41.6265H24.3196V43.1583H34.3212V41.6265Z" fill="#FCE5E5"/>
</g>
<path d="M34.3552 55.4236H24.354C24.2786 55.4236 24.204 55.4087 24.1343 55.3799C24.0647 55.351 24.0014 55.3088 23.9481 55.2554C23.8948 55.2021 23.8525 55.1388 23.8237 55.0692C23.7948 54.9995 23.78 54.9249 23.78 54.8495V43.0482C23.7806 42.5191 23.991 42.0118 24.3651 41.6377C24.7392 41.2635 25.2465 41.0531 25.7756 41.0525H32.9335C33.4627 41.0531 33.9699 41.2635 34.344 41.6377C34.7182 42.0118 34.9286 42.5191 34.9292 43.0482V54.8495C34.9292 54.9249 34.9144 54.9995 34.8855 55.0692C34.8567 55.1388 34.8144 55.2021 34.7611 55.2554C34.7078 55.3088 34.6445 55.351 34.5749 55.3799C34.5052 55.4087 34.4306 55.4236 34.3552 55.4236ZM24.9281 54.2755H33.7811V43.0482C33.7809 42.8235 33.6915 42.608 33.5326 42.4491C33.3737 42.2902 33.1583 42.2009 32.9335 42.2006H25.7756C25.5509 42.2009 25.3355 42.2902 25.1766 42.4491C25.0177 42.608 24.9283 42.8235 24.9281 43.0482V54.2755Z" fill="#262F6A"/>
<path d="M30.9845 50.9058H27.6565C27.5919 50.9058 27.5279 50.8931 27.4682 50.8684C27.4085 50.8437 27.3543 50.8074 27.3086 50.7617C27.2629 50.7161 27.2267 50.6618 27.2019 50.6021C27.1772 50.5424 27.1645 50.4784 27.1645 50.4138V41.6265C27.1645 41.5619 27.1772 41.498 27.2019 41.4383C27.2267 41.3786 27.2629 41.3243 27.3086 41.2786C27.3543 41.2329 27.4085 41.1967 27.4682 41.172C27.5279 41.1472 27.5919 41.1345 27.6565 41.1345H30.9845C31.0491 41.1345 31.1131 41.1472 31.1728 41.172C31.2325 41.1967 31.2867 41.2329 31.3324 41.2786C31.3781 41.3243 31.4143 41.3786 31.4391 41.4383C31.4638 41.498 31.4765 41.5619 31.4765 41.6265V50.4138C31.4765 50.4784 31.4638 50.5424 31.4391 50.6021C31.4143 50.6618 31.3781 50.7161 31.3324 50.7617C31.2867 50.8074 31.2325 50.8437 31.1728 50.8684C31.1131 50.8931 31.0491 50.9058 30.9845 50.9058ZM28.1485 49.9218H30.4925V42.1186H28.1485V49.9218Z" fill="#262F6A"/>
<path d="M33.7594 59.5953C36.1922 57.1625 36.1922 53.2183 33.7594 50.7856C31.3267 48.3529 27.3825 48.3529 24.9498 50.7856C22.517 53.2183 22.517 57.1625 24.9498 59.5953C27.3825 62.028 31.3267 62.028 33.7594 59.5953Z" fill="#F7C714"/>
<path d="M35.5726 55.5678C35.3774 58.8316 32.6695 61.4198 29.3548 61.4198C25.9138 61.4198 23.1256 58.6299 23.1256 55.1905C23.1245 54.4175 23.2675 53.6511 23.5471 52.9304C23.5389 53.0551 23.5356 53.1814 23.5356 53.3077C23.5356 56.7487 26.3238 59.5385 29.7649 59.5385C32.4088 59.5385 34.6672 57.8918 35.5726 55.5678Z" fill="#F89E1D"/>
<g opacity="0.8">
<path d="M35.0772 57.6556C35.115 57.3822 35.1336 57.1066 35.133 56.8306C35.133 53.3896 32.3447 50.6013 28.9037 50.6013C27.6862 50.601 26.4953 50.9576 25.4783 51.6269C24.4613 52.2961 23.6627 53.2488 23.1813 54.3671C23.3799 52.8707 24.1155 51.4974 25.2512 50.5029C26.3869 49.5084 27.8452 48.9605 29.3548 48.9612C32.7958 48.9612 35.584 51.7494 35.584 55.1904C35.5853 56.0382 35.4128 56.8771 35.0772 57.6556Z" fill="#FCE5E5"/>
</g>
<g opacity="0.8">
<path d="M29.6393 52.8381L30.0468 54.092C30.0686 54.1593 30.1113 54.218 30.1685 54.2596C30.2258 54.3012 30.2948 54.3236 30.3656 54.3236H31.684C32.0088 54.3236 32.1438 54.7392 31.8811 54.9301L30.8144 55.7051C30.7572 55.7467 30.7145 55.8054 30.6927 55.8727C30.6708 55.94 30.6708 56.0126 30.6927 56.0799L31.1001 57.3338C31.2004 57.6426 30.8469 57.8995 30.5842 57.7086L29.5176 56.9336C29.4603 56.892 29.3913 56.8696 29.3205 56.8696C29.2497 56.8696 29.1807 56.892 29.1235 56.9336L28.0568 57.7086C27.7941 57.8995 27.4406 57.6426 27.5409 57.3338L27.9483 56.0799C27.9702 56.0126 27.9702 55.94 27.9483 55.8727C27.9265 55.8054 27.8838 55.7467 27.8266 55.7051L26.7599 54.9301C26.4972 54.7392 26.6322 54.3236 26.957 54.3236H28.2754C28.3462 54.3236 28.4152 54.3012 28.4725 54.2596C28.5297 54.218 28.5724 54.1593 28.5942 54.092L29.0017 52.8381C29.102 52.5292 29.539 52.5292 29.6393 52.8381Z" fill="#FCE5E5"/>
</g>
<path d="M29.7015 52.436L30.109 53.6899C30.1308 53.7572 30.1735 53.8159 30.2307 53.8575C30.288 53.8991 30.357 53.9215 30.4278 53.9215H31.7462C32.071 53.9215 32.206 54.3371 31.9433 54.528L30.8766 55.303C30.8194 55.3446 30.7767 55.4033 30.7549 55.4706C30.733 55.5379 30.733 55.6104 30.7549 55.6778L31.1623 56.9317C31.2626 57.2405 30.9091 57.4974 30.6464 57.3065L29.5798 56.5315C29.5225 56.4899 29.4535 56.4675 29.3827 56.4675C29.3119 56.4675 29.2429 56.4899 29.1856 56.5315L28.119 57.3065C27.8563 57.4974 27.5028 57.2405 27.6031 56.9317L28.0105 55.6778C28.0324 55.6104 28.0324 55.5379 28.0105 55.4706C27.9887 55.4032 27.946 55.3446 27.8888 55.303L26.8221 54.528C26.5594 54.3371 26.6944 53.9215 27.0192 53.9215H28.3376C28.4084 53.9215 28.4774 53.8991 28.5347 53.8575C28.5919 53.8159 28.6346 53.7572 28.6564 53.6899L29.0639 52.436C29.1642 52.1271 29.6012 52.1271 29.7015 52.436Z" fill="#F89E1D"/>
<path d="M29.3546 61.9938C25.6032 61.9938 22.5512 58.9418 22.5512 55.1904C22.5512 51.439 25.6032 48.387 29.3546 48.387C33.106 48.387 36.1581 51.439 36.1581 55.1904C36.1581 58.9418 33.106 61.9938 29.3546 61.9938ZM29.3546 49.5351C26.2363 49.5351 23.6993 52.072 23.6993 55.1904C23.6993 58.3088 26.2363 60.8457 29.3546 60.8457C32.473 60.8457 35.01 58.3088 35.01 55.1904C35.01 52.072 32.473 49.5351 29.3546 49.5351Z" fill="#262F6A"/>
<path d="M29.6734 52.6015L30.0808 53.8554C30.1027 53.9227 30.1453 53.9814 30.2026 54.023C30.2599 54.0647 30.3289 54.0871 30.3997 54.0871H31.7181C32.0428 54.0871 32.1779 54.5026 31.9151 54.6935L30.8485 55.4685C30.7912 55.5101 30.7486 55.5688 30.7267 55.6361C30.7048 55.7034 30.7048 55.776 30.7267 55.8433L31.1341 57.0972C31.2345 57.4061 30.881 57.6629 30.6182 57.472L29.5516 56.6971C29.4943 56.6555 29.4254 56.633 29.3546 56.633C29.2838 56.633 29.2148 56.6555 29.1575 56.6971L28.0909 57.472C27.8281 57.6629 27.4746 57.4061 27.575 57.0972L27.9824 55.8433C28.0043 55.776 28.0043 55.7034 27.9824 55.6361C27.9605 55.5688 27.9179 55.5101 27.8606 55.4685L26.794 54.6935C26.5313 54.5026 26.6663 54.0871 26.991 54.0871H28.3095C28.3803 54.0871 28.4492 54.0647 28.5065 54.023C28.5638 53.9814 28.6064 53.9228 28.6283 53.8554L29.0357 52.6015C29.1361 52.2927 29.573 52.2927 29.6734 52.6015Z" fill="#262F6A"/>
<path d="M44.4095 27.6306C44.3109 27.6307 44.2146 27.6005 44.1337 27.5443C44.0527 27.4881 43.9908 27.4085 43.9564 27.3161C43.922 27.2237 43.9166 27.123 43.941 27.0275C43.9655 26.932 44.0185 26.8463 44.0931 26.7818L47.1085 24.1733C47.1605 24.1284 47.2031 24.0736 47.234 24.0121C47.2648 23.9507 47.2832 23.8837 47.2882 23.8152C47.2931 23.7466 47.2845 23.6777 47.2629 23.6125C47.2412 23.5472 47.2069 23.4869 47.1619 23.4349L46.313 22.4535C46.2715 22.4055 46.2398 22.3498 46.2198 22.2895C46.1998 22.2293 46.1919 22.1657 46.1965 22.1024C46.2011 22.0391 46.2181 21.9773 46.2466 21.9206C46.275 21.8639 46.3144 21.8133 46.3624 21.7718C46.4104 21.7303 46.4661 21.6986 46.5263 21.6786C46.5866 21.6587 46.6501 21.6507 46.7135 21.6553C46.7768 21.6599 46.8385 21.6769 46.8953 21.7054C46.952 21.7338 47.0025 21.7732 47.0441 21.8212L47.893 22.8026C48.1511 23.1017 48.2801 23.4909 48.2515 23.885C48.223 24.279 48.0393 24.6456 47.7408 24.9044L44.7254 27.5128C44.6377 27.5889 44.5255 27.6307 44.4095 27.6306Z" fill="#102770"/>
<path d="M47.873 21.1039L45.8771 18.7967L47.0308 17.7987C47.1823 17.6677 47.3581 17.5677 47.5482 17.5047C47.7383 17.4416 47.939 17.4165 48.1388 17.431C48.3386 17.4454 48.5336 17.4991 48.7127 17.5889C48.8917 17.6787 49.0513 17.8029 49.1824 17.9544C49.447 18.2604 49.5793 18.659 49.5501 19.0625C49.5209 19.466 49.3326 19.8413 49.0266 20.106L47.873 21.1039Z" fill="#5DCBED"/>
<g opacity="0.3">
<path d="M49.5543 18.9517C49.5548 19.1707 49.5079 19.3872 49.4168 19.5864C49.3258 19.7856 49.1929 19.9628 49.027 20.1058L47.873 21.1042L45.8775 18.7961L46.0331 18.6621L47.2722 20.0957L48.4262 19.0972C48.5921 18.9542 48.725 18.7771 48.8161 18.5779C48.9071 18.3787 48.954 18.1622 48.9535 17.9432C48.954 17.8713 48.9487 17.7995 48.9377 17.7285C49.1292 17.8698 49.2848 18.0541 49.3919 18.2666C49.499 18.4791 49.5547 18.7138 49.5543 18.9517Z" fill="#102770"/>
</g>
<path d="M47.8731 21.6083C47.8007 21.6085 47.7292 21.5929 47.6633 21.5628C47.5975 21.5327 47.5389 21.4888 47.4916 21.4339L45.4957 19.1266C45.4524 19.0765 45.4194 19.0184 45.3985 18.9556C45.3777 18.8927 45.3694 18.8264 45.3742 18.7603C45.379 18.6943 45.3967 18.6298 45.4264 18.5706C45.4561 18.5114 45.4972 18.4587 45.5472 18.4154L46.7009 17.4175C46.9025 17.2431 47.1364 17.1101 47.3894 17.0262C47.6424 16.9422 47.9094 16.9089 48.1753 16.9281C48.4411 16.9474 48.7005 17.0188 48.9388 17.1383C49.177 17.2578 49.3894 17.4231 49.5638 17.6247C49.7381 17.8263 49.8711 18.0602 49.9551 18.3132C50.039 18.5661 50.0723 18.8332 50.0531 19.099C50.0338 19.3649 49.9624 19.6243 49.8429 19.8625C49.7234 20.1008 49.5581 20.3132 49.3566 20.4875L48.2028 21.4854C48.1113 21.5648 47.9943 21.6085 47.8731 21.6083ZM46.5884 18.8482L47.9244 20.3928L48.6967 19.7248C48.7982 19.6371 48.8813 19.5302 48.9414 19.4104C49.0016 19.2905 49.0375 19.16 49.0472 19.0262C49.0569 18.8925 49.0401 18.7581 48.9979 18.6309C48.9556 18.5036 48.8887 18.3859 48.801 18.2845C48.7133 18.183 48.6064 18.0999 48.4866 18.0398C48.3667 17.9796 48.2362 17.9437 48.1024 17.934C47.9687 17.9243 47.8343 17.9411 47.7071 17.9833C47.5798 18.0256 47.4621 18.0925 47.3607 18.1802L46.5884 18.8482Z" fill="#102770"/>
<path d="M47.7117 21.7876L34.0179 33.6074C33.9954 33.6267 33.9719 33.6447 33.9474 33.6614L33.9429 33.6659C33.8464 33.7321 33.7371 33.7776 33.6221 33.7993L30.075 34.471L31.2668 31.0647C31.3034 30.956 31.3627 30.8564 31.4407 30.7724C31.4633 30.7466 31.4879 30.7225 31.5142 30.7004L45.202 18.8851C46.2785 17.9541 48.7897 20.8566 47.7117 21.7876Z" fill="white"/>
<path d="M29.9614 34.5687L31.1961 31.04C31.2361 30.9215 31.3008 30.813 31.3858 30.7213C31.4106 30.6931 31.4375 30.6669 31.4663 30.6428L45.1531 18.8283C45.4015 18.6135 45.7368 18.5708 46.1228 18.705C46.9526 18.9932 47.8586 20.041 48.0235 20.9032C48.1002 21.3042 48.0094 21.6296 47.7607 21.8442V21.8443L34.0669 33.6641C34.0423 33.6852 34.0166 33.7049 33.9899 33.7232C33.8841 33.7978 33.7635 33.8488 33.6363 33.8729L29.9614 34.5687ZM45.7044 18.7775C45.5382 18.7742 45.3767 18.8328 45.2511 18.9418L31.5632 30.7571C31.5395 30.777 31.5173 30.7987 31.4969 30.822C31.4256 30.8985 31.3715 30.9894 31.338 31.0884L30.1886 34.3731L33.6082 33.7256C33.713 33.7058 33.8125 33.6644 33.9005 33.6041C33.9268 33.5846 33.9485 33.5683 33.9689 33.5507L47.6628 21.7308V21.7308C47.8715 21.5506 47.9432 21.2816 47.8762 20.9313C47.7226 20.1283 46.8465 19.1151 46.0736 18.8466C45.9553 18.8032 45.8305 18.7798 45.7044 18.7775Z" fill="#25A9E0"/>
<path d="M33.9474 33.6614L33.9429 33.6659C33.8464 33.7321 33.7371 33.7776 33.6221 33.7993L30.075 34.471L31.2668 31.0647C31.3034 30.956 31.3627 30.8564 31.4407 30.7724C32.2533 30.0708 34.7465 32.9492 33.9474 33.6614Z" fill="white"/>
<path d="M29.9614 34.5688L31.1961 31.0401C31.2361 30.9217 31.3008 30.8131 31.3858 30.7215C31.8459 30.3237 32.695 30.885 33.3354 31.6151C33.973 32.342 34.452 33.3089 33.999 33.7159L33.9959 33.7189C33.8886 33.7957 33.7659 33.8482 33.6363 33.873L29.9614 34.5688ZM31.7551 30.7381C31.6584 30.7348 31.5639 30.7672 31.4897 30.8292C31.4218 30.9043 31.3701 30.9926 31.338 31.0886L30.1886 34.3733L33.6082 33.7258C33.713 33.7059 33.8125 33.6645 33.9005 33.6042L33.902 33.6026L33.8976 33.6055C34.2564 33.2857 33.8177 32.3923 33.2226 31.714C32.752 31.1774 32.1579 30.7381 31.7551 30.7381Z" fill="#25A9E0"/>
<path d="M47.7116 21.7872L45.8372 23.4052L34.0186 33.6072C33.9953 33.6276 33.9708 33.6463 33.9451 33.6634L33.9436 33.6649C33.8469 33.7315 33.7376 33.7776 33.6224 33.8003L30.0752 34.4717L31.2667 31.0643C31.3037 30.9557 31.3631 30.856 31.441 30.7718C31.4632 30.7465 31.4873 30.7229 31.5131 30.7012L43.3893 20.4502L45.2018 18.8855C46.2795 17.9533 48.7893 20.8565 47.7116 21.7872Z" fill="#FF5722"/>
<path d="M33.9451 33.6634L33.9436 33.6649C33.8469 33.7315 33.7376 33.7776 33.6224 33.8003L30.0752 34.4717L31.2667 31.0643C31.3037 30.9557 31.3631 30.856 31.441 30.7718C32.2536 30.0687 34.7534 32.9575 33.9451 33.6634ZM47.7116 21.7872L45.8372 23.4052C45.8213 23.3994 45.8141 23.3965 45.8141 23.3965C46.6022 22.7151 44.2711 19.9718 43.3893 20.4502L45.2018 18.8855C46.2795 17.9533 48.7893 20.8565 47.7116 21.7872Z" fill="#D0D0D0"/>
<g opacity="0.55">
<path d="M32.2752 31.7846C32.3122 31.676 32.3716 31.5763 32.4496 31.4921C32.4718 31.4668 32.4958 31.4432 32.5216 31.4215L44.3978 21.1705L46.2103 19.6058C46.6005 19.2683 47.1781 19.4348 47.7056 19.8272C47.0793 19.0029 46.0744 18.3798 45.4899 18.8854L43.6775 20.4501L31.8012 30.7012C31.7755 30.7228 31.7514 30.7464 31.7292 30.7717C31.6512 30.856 31.5918 30.9556 31.5548 31.0642L30.3633 34.4716L31.4045 34.2745L32.2752 31.7846Z" fill="white"/>
</g>
<g opacity="0.3">
<path d="M47.7116 21.7872L34.0186 33.6073C33.9953 33.6276 33.9708 33.6463 33.9451 33.6634L33.9436 33.6649C33.8469 33.7315 33.7376 33.7776 33.6224 33.8003L30.0752 34.4717L30.6832 32.7313L33.6224 32.1751C33.7376 32.1524 33.8469 32.1063 33.9436 32.0397L33.9451 32.0383C33.9708 32.0212 33.9953 32.0024 34.0186 31.9821L47.6669 20.2009C48.0142 20.8017 48.1193 21.4357 47.7116 21.7872Z" fill="#102770"/>
</g>
<path d="M30.0757 34.9761C29.9952 34.9761 29.9158 34.9568 29.8443 34.9198C29.7727 34.8829 29.7111 34.8293 29.6645 34.7637C29.6179 34.698 29.5877 34.6221 29.5764 34.5424C29.5651 34.4627 29.5731 34.3814 29.5996 34.3054L30.7902 30.8985C30.8679 30.674 31.0037 30.4742 31.1838 30.3193L44.8723 18.504C45.2377 18.1879 45.7319 18.1151 46.2635 18.2996C47.2324 18.6359 48.2519 19.8144 48.445 20.8217C48.5511 21.3742 48.408 21.8528 48.0421 22.1692C48.0419 22.1693 48.0419 22.1695 48.0417 22.1696L34.348 33.9893C34.1686 34.1443 33.9517 34.2497 33.7189 34.295L30.1695 34.9673C30.1386 34.9731 30.1072 34.9761 30.0757 34.9761ZM45.7076 19.2078C45.6002 19.2078 45.5523 19.2493 45.5318 19.2671L31.8431 31.0825C31.7977 31.1212 31.7633 31.1712 31.7436 31.2275L30.8398 33.8138L33.5287 33.3045C33.5879 33.2929 33.6431 33.266 33.6886 33.2263L47.3827 21.4061C47.4145 21.3786 47.509 21.2955 47.4546 21.0117C47.3292 20.3583 46.5613 19.4705 45.9328 19.2524C45.8607 19.2252 45.7846 19.2101 45.7076 19.2078Z" fill="#102770"/>
<path d="M31.7686 34.1509L30.0768 34.4719L30.6443 32.8461C31.0863 33.2182 31.4658 33.6587 31.7686 34.1509ZM33.9438 34.0277C33.8698 34.0278 33.7976 34.0052 33.7369 33.963C33.6762 33.9209 33.6298 33.8611 33.6039 33.7919C33.5781 33.7226 33.5741 33.6471 33.5924 33.5754C33.6108 33.5038 33.6505 33.4395 33.7065 33.3911C33.8204 33.2926 33.6843 32.6869 33.0282 31.9284C32.372 31.17 31.7921 30.9477 31.6782 31.0464C31.6055 31.1093 31.5108 31.1408 31.4149 31.1338C31.319 31.1269 31.2298 31.0821 31.1669 31.0094C31.104 30.9367 31.0726 30.842 31.0795 30.7461C31.0865 30.6502 31.1312 30.561 31.2039 30.4981C31.8565 29.9336 32.8898 30.6604 33.5765 31.4541C34.263 32.2479 34.8333 33.375 34.1808 33.9394C34.115 33.9965 34.0308 34.0278 33.9438 34.0277ZM45.8143 23.7595C45.7403 23.7596 45.6681 23.737 45.6074 23.6948C45.5466 23.6527 45.5002 23.5929 45.4744 23.5237C45.4486 23.4544 45.4446 23.3789 45.4629 23.3072C45.4812 23.2356 45.521 23.1713 45.577 23.1229C45.632 23.0754 45.6077 22.9231 45.599 22.8776C45.4644 22.1761 44.4694 21.0259 43.7946 20.7917C43.751 20.7766 43.6036 20.7304 43.5487 20.7782C43.5127 20.8094 43.4709 20.8331 43.4257 20.8481C43.3806 20.8631 43.3329 20.8691 43.2854 20.8656C43.2379 20.8622 43.1916 20.8494 43.149 20.8281C43.1065 20.8067 43.0685 20.7772 43.0374 20.7412C43.0063 20.7052 42.9825 20.6634 42.9675 20.6183C42.9525 20.5731 42.9466 20.5254 42.95 20.4779C42.9534 20.4304 42.9662 20.3841 42.9875 20.3415C43.0089 20.299 43.0384 20.2611 43.0744 20.2299C43.2458 20.0816 43.551 19.9399 44.0324 20.1069C44.9556 20.4272 46.1268 21.7813 46.3109 22.741C46.4069 23.2412 46.2227 23.5229 46.0513 23.6712C45.9855 23.7283 45.9013 23.7596 45.8143 23.7595ZM44.5637 26.6983L44.6072 26.7486L45.9893 25.5531L45.9458 25.5028C45.8673 25.412 45.7717 25.3376 45.6644 25.2838C45.5572 25.23 45.4404 25.1979 45.3207 25.1892C45.201 25.1806 45.0808 25.1956 44.9669 25.2334C44.853 25.2712 44.7477 25.331 44.657 25.4095C44.4737 25.5681 44.3609 25.7929 44.3434 26.0346C44.3259 26.2763 44.4051 26.5151 44.5637 26.6983Z" fill="#102770"/>
</svg>
