<svg width="80" height="67" viewBox="0 0 80 67" fill="none" xmlns="http://www.w3.org/2000/svg">
<path d="M59.294 41.0869C59.2949 42.2912 59.1895 43.4933 58.979 44.6791V44.6809C57.8198 51.3201 53.4922 56.8668 47.6147 59.7149C44.8067 61.0733 41.7271 61.777 38.6077 61.7731C32.5456 61.7731 27.0921 59.1643 23.3098 55.0108V55.0091C19.9604 51.3324 17.9197 46.4506 17.9197 41.0869C17.9129 36.8851 19.1922 32.7819 21.5858 29.3285C21.8726 28.9151 22.1752 28.5122 22.4901 28.1217C25.0837 24.901 28.582 22.5304 32.5346 21.3151C36.4872 20.0999 40.7131 20.0957 44.6681 21.3031C49.9861 22.9286 54.3929 26.6405 56.9366 31.4853C58.4902 34.447 59.2992 37.7424 59.294 41.0869Z" fill="#22A7F0"/>
<g opacity="0.3">
<path d="M58.7013 42.1668C58.7023 43.3711 58.5974 44.5731 58.3878 45.7589V45.761C57.7129 45.97 57.249 46.1121 57.249 46.1121C56.5594 46.2166 55.9116 45.7339 55.4916 45.1759C55.0716 44.6201 54.7832 43.9618 54.3005 43.4582C53.9888 43.1388 53.6094 42.8934 53.1902 42.74C52.7711 42.5867 52.3229 42.5293 51.8786 42.5722C50.721 42.6955 49.7827 43.6421 48.9845 44.4153C47.879 45.4831 46.6629 46.6951 45.1249 46.716C43.7625 46.7327 42.5212 45.7067 42.0427 44.432C41.5641 43.1552 41.7606 41.6988 42.3185 40.4575C42.937 39.0825 43.9589 38.0482 44.9243 36.9218C45.9587 35.7161 46.8154 34.3432 47.4695 32.8972C47.9062 31.936 48.228 30.7344 47.5949 29.8923C47.1832 29.3427 46.4664 29.1108 45.7852 29.0314C45.1019 28.9519 44.404 28.9896 43.7353 28.8287C42.4209 28.5152 41.3385 27.3889 41.0773 26.062C40.8181 24.7371 41.4527 22.8105 42.5497 22.0227C42.5497 22.0227 43.1147 22.4511 44.0759 22.3821C52.5431 24.9712 58.7013 32.8491 58.7013 42.1668Z" fill="#102770"/>
</g>
<path d="M59.2935 41.0872C59.2945 42.2915 59.1896 43.4935 58.98 44.6793V44.6814C58.3051 44.8904 57.8411 45.0325 57.8411 45.0325C57.1516 45.137 56.5038 44.6543 56.0838 44.0963C55.6638 43.5405 55.3754 42.8823 54.8927 42.3786C54.581 42.0592 54.2016 41.8138 53.7824 41.6604C53.3633 41.5071 52.915 41.4498 52.4708 41.4926C51.3131 41.6159 50.3749 42.5625 49.5766 43.3357C48.4712 44.4035 47.255 45.6155 45.7171 45.6364C44.3546 45.6531 43.1134 44.6271 42.6348 43.3524C42.1563 42.0757 42.3527 40.6192 42.9107 39.3779C43.5292 38.0029 44.551 36.9686 45.5165 35.8423C46.5508 34.6365 47.4076 33.2636 48.0616 31.8176C48.4984 30.8564 48.8202 29.6548 48.187 28.8127C47.7754 28.2631 47.0586 28.0312 46.3774 27.9518C45.6941 27.8724 44.9961 27.91 44.3275 27.7491C43.0131 27.4356 41.9306 26.3093 41.6694 24.9824C41.4103 23.6576 42.0448 21.7309 43.1419 20.9431C43.1419 20.9431 43.7068 21.3715 44.6681 21.3025C53.1353 23.8916 59.2935 31.7695 59.2935 41.0872Z" fill="#0CAE97"/>
<path d="M59.2935 41.0872C59.2945 42.2915 59.1896 43.4935 58.98 44.6793V44.6814C58.3051 44.8904 57.8411 45.0325 57.8411 45.0325C57.1516 45.137 56.5038 44.6543 56.0838 44.0963C55.6638 43.5405 55.3754 42.8823 54.8927 42.3786C54.581 42.0592 54.2016 41.8138 53.7824 41.6604C53.3633 41.5071 52.915 41.4498 52.4708 41.4926C51.3131 41.6159 50.3749 42.5625 49.5766 43.3357C48.4712 44.4035 47.255 45.6155 45.7171 45.6364C44.3546 45.6531 43.1134 44.6271 42.6348 43.3524C42.1563 42.0757 42.3527 40.6192 42.9107 39.3779C43.5292 38.0029 44.551 36.9686 45.5165 35.8423C46.5508 34.6365 47.4076 33.2636 48.0616 31.8176C48.4984 30.8564 48.8202 29.6548 48.187 28.8127C47.7754 28.2631 47.0586 28.0312 46.3774 27.9518C45.6941 27.8724 44.9961 27.91 44.3275 27.7491C43.0131 27.4356 41.9306 26.3093 41.6694 24.9824C41.4103 23.6576 42.0448 21.7309 43.1419 20.9431C43.1419 20.9431 43.7068 21.3715 44.6681 21.3025C53.1353 23.8916 59.2935 31.7695 59.2935 41.0872Z" fill="#1EBC61"/>
<g opacity="0.3">
<path d="M41.6686 24.9825C41.4513 23.875 41.8609 22.3475 42.6424 21.4155C42.3415 22.195 42.2287 23.0642 42.3666 23.7643C42.6278 25.0912 43.7102 26.2175 45.0246 26.531C45.6933 26.6919 46.3912 26.6542 47.0745 26.7337C47.7558 26.8131 48.4725 27.045 48.8842 27.5946C49.5173 28.4367 49.1955 29.6383 48.7588 30.5995C48.4357 31.3159 48.0635 32.0093 47.645 32.6745C47.7913 32.3924 47.9313 32.1061 48.0608 31.8178C48.4976 30.8565 48.8194 29.655 48.1862 28.8128C47.7746 28.2633 47.0578 28.0313 46.3766 27.9519C45.6933 27.8725 44.9953 27.9101 44.3266 27.7492C43.0123 27.4358 41.9298 26.3095 41.6686 24.9825Z" fill="#282E6A"/>
</g>
<g opacity="0.3">
<path d="M59.1359 43.6304C59.0941 43.9836 59.0398 44.3326 58.9792 44.6794V44.6815C58.3042 44.8905 57.8403 45.0326 57.8403 45.0326C57.1507 45.1371 56.503 44.6544 56.0829 44.0964C55.6629 43.5406 55.3745 42.8824 54.8918 42.3787C54.5801 42.0593 54.2007 41.8139 53.7816 41.6605C53.3624 41.5072 52.9142 41.4499 52.47 41.4927C51.3123 41.616 50.374 42.5626 49.5758 43.3358C48.4704 44.4036 47.2542 45.6156 45.7162 45.6365C44.3538 45.6532 43.1125 44.6272 42.634 43.3525C42.1555 42.0758 42.3519 40.6193 42.9098 39.378C43.1059 38.9468 43.3417 38.5348 43.6141 38.1472L43.6078 38.1598C43.0499 39.401 42.8534 40.8575 43.3319 42.1343C43.8105 43.4089 45.0517 44.435 46.4142 44.4182C47.9522 44.3973 49.1683 43.1854 50.2737 42.1175C51.072 41.3444 52.0102 40.3978 53.1679 40.2745C53.6121 40.2316 54.0604 40.2889 54.4795 40.4423C54.8987 40.5956 55.2781 40.8411 55.5898 41.1605C56.0725 41.6641 56.3609 42.3223 56.7809 42.8782C57.2009 43.4361 57.8487 43.9188 58.5383 43.8143C58.5383 43.8143 58.766 43.7454 59.1359 43.6304Z" fill="#102770"/>
</g>
<g opacity="0.3">
<path d="M47.6451 32.6743C47.0586 33.8081 46.3441 34.871 45.5157 35.8422C44.8596 36.607 44.1783 37.33 43.6141 38.1471C44.2327 36.7784 45.2503 35.7461 46.2137 34.6239C46.7393 34.0111 47.2178 33.3594 47.6451 32.6743Z" fill="#282E6A"/>
</g>
<path d="M30.7615 26.1316C29.8024 27.2538 28.3626 27.8723 26.9061 28.1168C25.4517 28.3592 23.9639 28.261 22.4928 28.1607L22.4907 28.121C24.7533 25.3054 27.7136 23.1312 31.0771 21.8145L31.4469 22.0088C32.0968 23.3336 31.7207 25.0095 30.7615 26.1316Z" fill="#0CAE97"/>
<g opacity="0.3">
<path d="M34.2262 33.2474C33.484 32.7882 32.1137 33.0542 31.4132 33.5748C30.948 33.9204 30.5453 34.3784 30.3729 34.9316C30.2005 35.4849 30.2929 36.1402 30.6968 36.5558C31.4531 37.334 32.9493 37.0477 33.5775 37.9326C33.7953 38.2394 33.8573 38.6319 34.0515 38.9541C34.4183 39.5627 35.2654 39.7844 35.8987 39.4869C36.6394 39.139 36.7638 38.2434 36.6867 37.5107C36.5958 36.6754 36.3349 35.8675 35.9199 35.1369C35.5536 34.4888 34.9356 33.5521 34.2262 33.2474Z" fill="#102770"/>
</g>
<g opacity="0.57">
<path d="M30.7607 26.1316C29.8015 27.2538 28.3618 27.8723 26.9053 28.1168C25.4509 28.3592 23.9631 28.261 22.4919 28.1607L22.4899 28.121C22.5045 28.1022 22.5191 28.0855 22.5337 28.0667C23.681 28.1314 24.8344 28.1482 25.9649 27.9601C27.4214 27.7156 28.8612 27.0971 29.8203 25.9749C30.7398 24.8988 31.1243 23.3148 30.5809 22.0172C30.7439 21.9461 30.909 21.8792 31.0762 21.8145L31.4461 22.0088C32.0959 23.3336 31.7198 25.0095 30.7607 26.1316Z" fill="white"/>
</g>
<path d="M34.7486 32.326C34.0064 31.8669 32.6361 32.1328 31.9356 32.6534C31.4705 32.999 31.0678 33.457 30.8954 34.0103C30.723 34.5635 30.8154 35.2188 31.2193 35.6344C31.9756 36.4126 33.4718 36.1263 34.1 37.0113C34.3178 37.318 34.3798 37.7105 34.574 38.0327C34.9408 38.6413 35.7879 38.863 36.4211 38.5655C37.1618 38.2176 37.2863 37.3221 37.2092 36.5893C37.1183 35.754 36.8573 34.9461 36.4423 34.2155C36.076 33.5674 35.458 32.6307 34.7486 32.326Z" fill="#1EBC61"/>
<g opacity="0.57">
<path d="M36.7894 38.5095C36.8563 38.2023 36.8584 37.8743 36.8271 37.5755C36.736 36.7402 36.475 35.9323 36.0601 35.2016C35.6924 34.5538 35.0759 33.6156 34.3655 33.3126C33.6236 32.8529 32.2528 33.1183 31.5528 33.6386C31.2948 33.8276 31.0654 34.0528 30.8716 34.3073C30.8778 34.278 30.8862 34.2488 30.8946 34.2195C31.068 33.6657 31.4713 33.2081 31.9352 32.8633C32.6352 32.3409 34.006 32.0755 34.7479 32.5352C35.4583 32.8403 36.0769 33.7765 36.4426 34.4243C36.8574 35.155 37.1184 35.9628 37.2095 36.7981C37.2721 37.3874 37.2032 38.0812 36.7894 38.5095Z" fill="white"/>
</g>
<g opacity="0.3">
<path d="M37.1279 37.7048C37.0151 38.0705 36.7978 38.3881 36.4217 38.5657C35.7885 38.8625 34.9401 38.641 34.5744 38.0329C34.3801 37.7111 34.3174 37.3182 34.1001 37.0111C33.4711 36.1271 31.9749 36.4134 31.2184 35.634C30.8151 35.2181 30.7232 34.5641 30.8945 34.0103C31.0137 33.63 31.2414 33.2936 31.5256 33.0115C31.4905 33.0867 31.4604 33.1642 31.4358 33.2434C31.2644 33.7972 31.3564 34.4533 31.7597 34.8671C32.5161 35.6465 34.0123 35.3602 34.6413 36.2441C34.8586 36.5513 34.9213 36.9442 35.1156 37.266C35.4813 37.8741 36.3276 38.0977 36.9629 37.7988C37.0206 37.7725 37.0758 37.741 37.1279 37.7048Z" fill="#102770"/>
</g>
<path d="M35.816 39.1376C35.17 39.1376 34.5329 38.8165 34.1973 38.2597C34.0877 38.078 34.0152 37.8859 33.9513 37.7164C33.8872 37.5464 33.8266 37.386 33.7414 37.2659C33.5052 36.9332 33.0466 36.8197 32.5157 36.6883C31.9692 36.553 31.3498 36.3997 30.9039 35.9408C30.4113 35.4341 30.2431 34.6249 30.4755 33.8794C30.6582 33.2928 31.0724 32.7468 31.6733 32.3003C32.4964 31.6887 34.0353 31.3935 34.9517 31.9348C35.5807 32.2178 36.2108 32.9121 36.8251 33.9991C37.2689 34.7825 37.5484 35.6482 37.6465 36.5432C37.7697 37.7136 37.3912 38.5958 36.6081 38.9636C36.36 39.0791 36.0896 39.1385 35.816 39.1376ZM33.7766 32.5302C33.2213 32.5302 32.5776 32.7242 32.198 33.0063C31.8838 33.2397 31.4757 33.6261 31.3152 34.141C31.1796 34.5763 31.2678 35.0532 31.5346 35.3278C31.8053 35.6063 32.253 35.7172 32.727 35.8344C33.3394 35.986 34.0334 36.1578 34.4586 36.7566C34.6096 36.9692 34.697 37.2012 34.7743 37.4059C34.8299 37.5533 34.8824 37.6925 34.9506 37.8056C35.1921 38.2062 35.792 38.3751 36.2341 38.1674C36.8352 37.8851 36.8104 37.0019 36.7717 36.6353C36.6864 35.86 36.4441 35.1103 36.0595 34.4318C35.5472 33.5255 35.02 32.9212 34.5751 32.73C34.5551 32.7215 34.5358 32.7114 34.5173 32.7C34.3264 32.5819 34.0633 32.5302 33.7766 32.5302Z" fill="#102770"/>
<g opacity="0.25">
<path d="M41.503 49.3762C40.6722 50.4681 37.9971 50.2214 35.7608 48.5196C33.5245 46.8178 32.5739 44.3052 33.4048 43.2134C34.2357 42.1216 35.9515 43.6287 38.1878 45.3305C40.424 47.0324 42.3339 48.2844 41.503 49.3762Z" fill="white"/>
</g>
<g opacity="0.25">
<path d="M47.1487 51.3152C46.9412 52.0228 45.8599 52.3287 44.7336 51.9984C43.6073 51.6681 42.8625 50.8267 43.07 50.1191C43.2775 49.4115 44.2807 49.3716 45.407 49.7018C46.5334 50.0321 47.3562 50.6075 47.1487 51.3152Z" fill="white"/>
</g>
<g opacity="0.57">
<path d="M38.6073 20.3997C40.0618 20.3987 41.5124 20.5514 42.9349 20.8552L41.6958 23.5738C38.4507 22.6735 35.0348 22.5804 31.7455 23.3027C28.4563 24.0249 25.3935 25.5406 22.8242 27.7176C24.7632 25.4219 27.1804 23.5775 29.9066 22.3135C32.6328 21.0494 35.6023 20.3963 38.6073 20.3997Z" fill="white"/>
</g>
<g opacity="0.57">
<path d="M58.9646 44.7651C58.1016 49.5922 55.5626 53.8321 51.9747 56.8683C54.3411 54.0804 55.9208 50.7117 56.551 47.1097V47.1076C56.6878 46.3327 56.7799 45.5506 56.8269 44.7651H58.9646Z" fill="white"/>
</g>
<path d="M47.6144 59.7144C44.8068 61.0733 41.7273 61.7771 38.6081 61.7727C32.546 61.7727 27.0921 59.1648 23.3098 55.0106V55.0085L23.3328 54.461C24.5824 54.1309 25.3138 52.8624 25.8675 51.6943C26.4213 50.5241 27.0419 49.2327 28.2372 48.7396C29.4784 48.2276 30.9349 48.7918 31.9338 49.6883C32.9305 50.5847 33.6097 51.7758 34.4392 52.8311C35.8121 54.5759 37.4588 55.1046 39.5881 55.3888C41.2536 55.6103 42.9712 55.6751 44.5343 56.2936C46.0305 56.8829 47.3992 58.1367 47.6144 59.7144Z" fill="#1EBC61"/>
<g opacity="0.57">
<path d="M47.6137 59.7144C47.3316 59.8502 47.0474 59.9818 46.7591 60.103C46.2993 58.8555 45.1229 57.8776 43.8544 57.3781C42.2914 56.7596 40.5737 56.6948 38.9083 56.4733C36.7789 56.1891 35.1323 55.6605 33.7594 53.9156C32.9298 52.8603 32.2507 51.6693 31.2539 50.7728C30.2551 49.8763 28.7986 49.3121 27.5573 49.8241C27.0412 50.0372 26.6316 50.3987 26.2889 50.8376C26.7549 49.9474 27.3296 49.1136 28.2365 48.7396C29.4777 48.2276 30.9342 48.7918 31.9331 49.6883C32.9298 50.5847 33.6089 51.7758 34.4385 52.8311C35.8114 54.5759 37.4581 55.1046 39.5874 55.3888C41.2529 55.6103 42.9705 55.6751 44.5336 56.2936C46.0298 56.8829 47.3985 58.1367 47.6137 59.7144Z" fill="white"/>
</g>
<g opacity="0.57">
<path d="M26.2888 50.8374C26.1384 51.1216 26.0005 51.4121 25.8667 51.6941C25.6055 52.2458 25.3067 52.8163 24.9285 53.3011C25.0204 53.1276 25.1061 52.9521 25.1876 52.7787C25.501 52.1142 25.8375 51.4121 26.2888 50.8374Z" fill="white"/>
</g>
<path d="M38.6081 62.2124C35.6671 62.2095 32.759 61.5939 30.069 60.4049C27.3791 59.2159 24.9664 57.4796 22.9846 55.3066C22.9109 55.2256 22.87 55.12 22.87 55.0105C22.87 55.0044 22.8701 54.9961 22.8704 54.9899L22.8934 54.4424C22.8974 54.3486 22.9313 54.2585 22.9901 54.1853C23.049 54.1122 23.1297 54.0597 23.2205 54.0357C24.2787 53.7562 24.9515 52.6 25.4701 51.5058C26.0204 50.3431 26.7053 48.8958 28.0694 48.3329C29.5933 47.7043 31.2616 48.4939 32.2276 49.3609C32.9427 50.0041 33.4977 50.7842 34.0343 51.5385C34.2765 51.8789 34.5269 52.2308 34.785 52.5592C36.0623 54.1825 37.5921 54.6786 39.6463 54.9528C40.0105 55.0013 40.3861 55.0431 40.7493 55.0835C42.0647 55.23 43.4247 55.3815 44.6961 55.8846C46.1466 56.4558 47.7899 57.7465 48.0502 59.6549C48.0627 59.7468 48.0459 59.8403 48.0021 59.9221C47.9582 60.0039 47.8896 60.0697 47.8061 60.1101C44.9255 61.5051 41.8309 62.2124 38.6081 62.2124ZM23.7568 54.8469C25.6539 56.8903 27.9517 58.5208 30.5069 59.6367C33.0621 60.7526 35.8198 61.33 38.6081 61.3328C41.5835 61.3328 44.4444 60.7041 47.1175 59.4632C46.8221 58.3171 45.779 57.2564 44.3731 56.7027C43.2105 56.2426 41.9677 56.1042 40.652 55.9577C40.2842 55.9168 39.9039 55.8744 39.5301 55.8247C37.3202 55.5297 35.5501 54.954 34.0936 53.103C33.8223 52.7579 33.5658 52.3972 33.3176 52.0484C32.7852 51.3001 32.2823 50.5931 31.6397 50.0152C30.8639 49.319 29.5508 48.6734 28.4049 49.1461C27.3549 49.5793 26.7759 50.8028 26.2651 51.8823C25.7064 53.061 24.9748 54.3064 23.7595 54.7833L23.7568 54.8469Z" fill="#102770"/>
<path d="M38.608 62.3002C35.6548 62.2973 32.7345 61.6791 30.0334 60.4852C27.3323 59.2913 24.9095 57.5477 22.9195 55.3657C22.9108 55.3561 22.9025 55.3463 22.8946 55.3362C19.3495 51.4378 17.3875 46.3563 17.3928 41.0871C17.3928 36.2587 19.0574 31.5362 22.0798 27.7895C24.7393 24.4866 28.3267 22.0555 32.3801 20.8094C36.4334 19.5633 40.767 19.5592 44.8226 20.7977C49.0735 22.0976 52.8932 24.7813 55.5778 28.3544C58.3538 32.0493 59.8212 36.4522 59.8212 41.0871C59.8217 42.3164 59.7151 43.5435 59.5026 44.7544C59.5018 44.7603 59.5008 44.7662 59.4998 44.7721C58.3323 51.4552 53.9752 57.2185 47.8445 60.1891C44.9518 61.5899 41.8442 62.3002 38.608 62.3002ZM23.7244 54.6819C25.6151 56.7474 27.9144 58.3975 30.4766 59.5273C33.0388 60.657 35.8078 61.2419 38.608 61.2447C41.6835 61.2447 44.6364 60.5699 47.3843 59.2392C53.2053 56.4186 57.3437 50.9493 58.4572 44.6066C58.4581 44.5999 58.4591 44.5934 58.4603 44.5869C58.6641 43.4314 58.7663 42.2604 58.7656 41.0871C58.7656 32.1617 53.0382 24.4137 44.5137 21.807C40.66 20.6251 36.5404 20.6266 32.6876 21.8111C28.8348 22.9956 25.426 25.3088 22.9019 28.4515C19.9882 32.0634 18.4484 36.4325 18.4484 41.0871C18.4434 46.1061 20.3167 50.9454 23.6998 54.6528C23.7084 54.6622 23.7166 54.6719 23.7244 54.6819Z" fill="#102770"/>
<path d="M45.6851 46.0763C44.2123 46.0764 42.7929 45.0249 42.223 43.507C41.746 42.2342 41.8504 40.6636 42.5095 39.1976C43.0539 37.9871 43.8958 37.0272 44.7099 36.0989C44.8676 35.9192 45.0257 35.7388 45.1824 35.556C46.1904 34.3737 47.0249 33.0539 47.6608 31.6363C48.1855 30.4815 48.2441 29.6207 47.8354 29.077C47.4877 28.6128 46.8229 28.4465 46.3264 28.3886C46.0872 28.3608 45.8461 28.3482 45.591 28.3348C45.1454 28.3115 44.6848 28.2874 44.2244 28.1766C42.7346 27.8213 41.534 26.5717 41.2378 25.0673C40.9659 23.6771 41.572 21.476 42.8762 20.5394C42.9374 20.4955 43.0088 20.468 43.0836 20.4595C43.1653 20.4506 43.9003 20.3857 44.8401 20.8953C49.0562 22.1947 52.8431 24.8612 55.5075 28.4074C58.272 32.0869 59.7332 36.4715 59.7332 41.0872C59.7338 42.3153 59.627 43.541 59.4139 44.7505C59.4008 44.8314 59.3654 44.9071 59.3118 44.9691C59.2581 45.0311 59.1882 45.077 59.11 45.1016C58.4343 45.3107 57.9698 45.453 57.9698 45.453C57.9493 45.4593 57.9282 45.4641 57.9069 45.4673C57.1541 45.5819 56.3399 45.168 55.7323 44.3609C55.5512 44.1212 55.3955 43.868 55.245 43.6232C55.0322 43.277 54.8312 42.9501 54.5751 42.6829C54.0543 42.1409 53.2652 41.8523 52.5161 41.9301C51.551 42.0328 50.7096 42.8491 49.9673 43.5693L49.802 43.7293C48.6753 44.8187 47.3982 46.0534 45.723 46.0761C45.7104 46.0763 45.6977 46.0763 45.6851 46.0763ZM43.2867 21.3333C42.4406 22.0366 41.8705 23.7195 42.1009 24.8979C42.3281 26.0518 43.2856 27.0485 44.4293 27.3212C44.8117 27.4132 45.2125 27.4342 45.6369 27.4564C45.8945 27.4699 46.161 27.4839 46.428 27.5149C47.386 27.6265 48.1158 27.9842 48.5389 28.549C49.1553 29.3689 49.1296 30.53 48.462 31.9995C47.7917 33.4928 46.9123 34.8831 45.8501 36.1286C45.6914 36.3138 45.5311 36.4966 45.3713 36.6789C44.5643 37.599 43.8021 38.468 43.3117 39.5583C42.7471 40.8143 42.6504 42.141 43.0466 43.198C43.4864 44.3695 44.6052 45.205 45.7116 45.1966C47.0375 45.1786 48.1321 44.1204 49.1906 43.097L49.3548 42.938C50.1574 42.1594 51.1563 41.1903 52.4241 41.0553C52.9352 41.0037 53.4513 41.0686 53.9337 41.245C54.4162 41.4214 54.8524 41.7048 55.2097 42.0738C55.5313 42.4093 55.7666 42.7923 55.9943 43.1625C56.1404 43.4001 56.2784 43.6245 56.4346 43.8312C56.5863 44.0328 57.1228 44.6742 57.7463 44.6015C57.8461 44.5709 58.1576 44.4753 58.5914 44.3412C58.7663 43.2654 58.854 42.1772 58.8535 41.0872C58.8535 32.1229 53.1011 24.3411 44.5394 21.7231C44.5097 21.714 44.4811 21.7018 44.454 21.6868C43.925 21.3922 43.4831 21.3402 43.2867 21.3333Z" fill="#102770"/>
<path d="M24.8732 28.7083C24.0609 28.7083 23.2546 28.6533 22.4629 28.5993C22.3557 28.5921 22.255 28.5458 22.1796 28.4693C22.1042 28.3929 22.0594 28.2914 22.0537 28.1842L22.0516 28.1446C22.0457 28.0364 22.08 27.9298 22.1479 27.8454C24.4591 24.9704 27.4822 22.75 30.9169 21.4047C30.9756 21.3818 31.0385 21.3717 31.1015 21.3752C31.1644 21.3787 31.2258 21.3957 31.2816 21.425L31.6514 21.6193C31.734 21.6627 31.8007 21.7312 31.8418 21.815C32.537 23.2324 32.2373 25.0818 31.0959 26.4173C29.9064 27.8088 28.2005 28.3454 26.9789 28.5504C26.276 28.6676 25.5724 28.7083 24.8732 28.7083ZM23.3529 27.776C24.5125 27.8451 25.6906 27.8733 26.8338 27.6829C27.9111 27.5021 29.4094 27.0365 30.4272 25.8457C31.2953 24.8301 31.5661 23.405 31.1095 22.3282L31.0514 22.2976C28.0894 23.4917 25.4516 25.3688 23.3529 27.776Z" fill="#282E6A"/>
<g opacity="0.3">
<path d="M52.5176 54.8103C53.5547 54.3097 54.5469 53.7211 55.4836 53.0511C53.5739 55.7493 51.0445 57.9497 48.1079 59.4674C45.1713 60.9852 41.9133 61.7759 38.6077 61.7731C32.5456 61.7731 27.0921 59.1642 23.3098 55.0108V55.0091C19.9586 51.3324 17.9197 46.4506 17.9197 41.0869C17.9129 36.8851 19.1922 32.7819 21.5858 29.3285H21.5876C21.614 29.2898 21.6404 29.2511 21.6668 29.2141C21.8057 29.0154 21.9482 28.8201 22.096 28.6266C22.1488 28.5562 22.2016 28.4858 22.2561 28.4172C22.3335 28.317 22.4109 28.2185 22.4901 28.1217C22.6308 27.9475 22.7733 27.7751 22.9193 27.6062C22.9791 27.5341 23.0407 27.4638 23.104 27.3934C23.1902 27.2966 23.2764 27.1999 23.3644 27.1031C23.4242 27.038 23.4858 26.9712 23.5473 26.9061C23.6388 26.8093 23.732 26.7126 23.8253 26.6176C23.9027 26.5367 23.9818 26.4575 24.061 26.3801C24.1402 26.3009 24.2193 26.2235 24.2985 26.1479C24.3003 26.1461 24.302 26.1444 24.302 26.1444C24.3829 26.067 24.4639 25.9913 24.5448 25.9157C24.6169 25.8488 24.689 25.7837 24.7612 25.7186C25.3582 25.18 25.9861 24.6766 26.6417 24.211C29.225 22.3822 32.1928 21.1692 35.3175 20.6652C38.4422 20.1611 41.6408 20.3793 44.6681 21.3031C49.9861 22.9286 54.3929 26.6405 56.9366 31.4853L55.4695 32.6956C49.4302 36.2632 43.0778 37.0566 37.5047 36.6625C37.459 36.564 37.429 36.5077 37.429 36.5077C37.7246 34.7327 31.1681 33.6367 30.8708 35.41C30.8708 35.41 30.8726 35.4909 30.8761 35.6246C29.1534 35.2129 27.4559 34.7019 25.7921 34.0942C24.3595 33.5712 22.8267 34.6246 22.8243 36.1498C22.8243 36.1606 22.8243 36.1714 22.8243 36.1823C22.8243 41.159 24.5782 45.7188 27.5055 49.2847L26.7631 50.3824C31.8577 57.3558 39.9552 59.7589 46.4326 57.7727L45.2504 56.7946C47.7746 56.5878 50.2386 55.915 52.5176 54.8103Z" fill="#102770"/>
</g>
<g opacity="0.3">
<path d="M21.6669 29.2141C21.6405 29.2511 21.6141 29.2898 21.5877 29.3285H21.5859C21.6123 29.2898 21.6387 29.2511 21.6669 29.2141Z" fill="#282E6A"/>
</g>
<path d="M56.161 30.4055C45.1125 35.1044 34.6685 34.6838 23.434 30.3421C22.356 29.9257 21.6732 28.8562 21.7282 27.7L22.1742 21.7984L22.2165 21.2383L22.3961 18.8539L22.635 15.7045L22.8781 12.4705H56.4675L56.755 15.7446L57.0234 18.8159L57.2306 21.1896L57.2982 21.9717L57.8055 27.7549C57.8389 28.3125 57.6987 28.8667 57.4042 29.3414C57.1097 29.8161 56.6754 30.1878 56.161 30.4055Z" fill="#6157A4"/>
<g opacity="0.57">
<path d="M56.1611 30.8281C45.1125 35.527 34.6686 35.1064 23.434 30.7647C23.2282 30.686 23.0336 30.5808 22.8549 30.4519C33.6941 34.4236 43.8337 34.4659 54.5398 29.9129C55.0542 29.6952 55.4886 29.3234 55.783 28.8488C56.0775 28.3741 56.2177 27.8199 56.1843 27.2623L55.677 21.6905L55.6094 20.9084L55.4022 18.5346L55.1338 15.4634L54.9076 12.8931H56.4676L56.755 16.1672L57.0235 19.2385L57.2306 21.6122L57.2983 22.3943L57.8056 28.1775C57.8389 28.7351 57.6988 29.2893 57.4043 29.764C57.1098 30.2387 56.6755 30.6104 56.1611 30.8281Z" fill="white"/>
</g>
<g opacity="0.3">
<path d="M56.848 16.8057H56.2054L53.4766 19.8706L40.2424 23.8106C39.8507 23.9268 39.4336 23.9268 39.0418 23.8106L36.1049 22.9362C35.7679 22.8359 35.4127 22.8123 35.0653 22.8672C34.718 22.9222 34.3873 23.0542 34.0977 23.2536C33.808 23.4531 33.5668 23.7149 33.3915 24.0198C33.2163 24.3247 33.1116 24.665 33.0851 25.0156L32.8824 27.6999C32.8274 28.8561 33.5102 29.9256 34.5882 30.3421C38.4077 31.8174 42.1342 32.8405 45.8248 33.3626C38.4331 34.4469 31.1195 33.3119 23.434 30.3421C22.356 29.9256 21.6732 28.8561 21.7282 27.6999L22.1742 21.7983L22.2165 21.2382L22.3961 18.8539L22.635 15.7044L22.8781 12.4704L23.2543 7.49463H34.4085L34.0323 12.4704H56.4675L56.755 15.7446L56.848 16.8057Z" fill="#102770"/>
</g>
<path d="M40.3127 34.2939C34.8352 34.2941 29.2116 33.1409 23.2439 30.8342C22.6143 30.5896 22.078 30.1526 21.7113 29.5853C21.3447 29.0181 21.1664 28.3496 21.202 27.6751L22.728 7.45532C22.738 7.3226 22.7978 7.19857 22.8954 7.10807C22.993 7.01757 23.1212 6.96728 23.2543 6.96729H56.0316C56.1636 6.96729 56.2908 7.01676 56.3881 7.10592C56.4854 7.19509 56.5458 7.31749 56.5573 7.44897L58.3321 27.7079C58.3735 28.3764 58.2068 29.0413 57.8551 29.6112C57.5033 30.1812 56.9837 30.6282 56.3676 30.8909C51.0337 33.1594 45.745 34.2938 40.3127 34.2939ZM23.7437 8.02282L22.2554 27.7406C22.2333 28.1913 22.3537 28.6376 22.5995 29.0161C22.8452 29.3947 23.2038 29.6863 23.6245 29.8497C35.238 34.3388 45.511 34.3611 55.9546 29.9196C56.3684 29.7439 56.7178 29.4446 56.955 29.0627C57.1922 28.6808 57.3055 28.235 57.2796 27.7862L55.548 8.02282H23.7437Z" fill="#282E6A"/>
<path d="M64.8315 10.218V14.2376L39.6429 21.7346L14.4543 14.2376V10.218H64.8315Z" fill="#6157A4"/>
<g opacity="0.57">
<path d="M64.8316 10.217V14.2374L63.1935 14.7257V10.217H64.8316Z" fill="white"/>
</g>
<g opacity="0.3">
<path d="M39.6422 17.7124V21.4241L39.8387 21.6756L39.6422 21.7348L14.4548 14.2374V10.217H46.44C38.4711 15.3069 39.6422 17.7124 39.6422 17.7124Z" fill="#102770"/>
</g>
<path d="M39.643 22.2625C39.592 22.2625 39.5412 22.2551 39.4924 22.2406L14.3038 14.7436C14.1949 14.7112 14.0993 14.6444 14.0313 14.5533C13.9633 14.4621 13.9266 14.3515 13.9266 14.2378V10.2182C13.9266 10.0782 13.9823 9.944 14.0812 9.84502C14.1802 9.74605 14.3144 9.69044 14.4544 9.69043H64.8316C64.9715 9.69044 65.1058 9.74605 65.2047 9.84502C65.3037 9.944 65.3593 10.0782 65.3593 10.2182V14.2378C65.3593 14.3515 65.3226 14.4622 65.2546 14.5533C65.1867 14.6445 65.0911 14.7112 64.9821 14.7436L39.7935 22.2406C39.7447 22.2551 39.6939 22.2625 39.643 22.2625ZM14.9822 13.8443L39.643 21.1841L64.3038 13.8443V10.746H14.9822V13.8443Z" fill="#102770"/>
<path d="M64.8306 10.2169L39.6426 17.7125L14.4546 10.2169L39.6426 0.289307L64.8306 10.2169Z" fill="#6157A4"/>
<g opacity="0.3">
<path d="M38.9341 17.501L14.4548 10.2171L31.5043 3.49536C24.5289 8.70151 28.7162 13.2714 38.9341 17.501Z" fill="#102770"/>
</g>
<g opacity="0.57">
<path d="M64.8316 10.2171L39.6422 17.7124L37.0127 16.9303L58.6188 10.5008C59.3393 10.2864 59.3826 9.28238 58.6832 9.00673L38.1034 0.895462L39.6422 0.288818L64.8316 10.2171Z" fill="white"/>
</g>
<path d="M39.6425 18.2405C39.5916 18.2405 39.5409 18.2331 39.492 18.2185L14.304 10.7229C14.1988 10.6916 14.1059 10.6282 14.0384 10.5416C13.9708 10.455 13.932 10.3495 13.9272 10.2398C13.9225 10.1301 13.9521 10.0216 14.012 9.92952C14.0718 9.83743 14.1589 9.76631 14.261 9.72605L38.2776 0.260124C39.1545 -0.086708 40.1306 -0.086708 41.0075 0.260124L65.024 9.72605C65.1262 9.76631 65.2133 9.83743 65.2731 9.92952C65.3329 10.0216 65.3625 10.1301 65.3578 10.2398C65.3531 10.3495 65.3142 10.455 65.2467 10.5416C65.1792 10.6282 65.0863 10.6916 64.981 10.7229L39.793 18.2185C39.7442 18.2331 39.6935 18.2405 39.6425 18.2405ZM16.0706 10.1474L39.6425 17.1621L63.2145 10.1474L40.6205 1.24213C39.9923 0.993519 39.2929 0.993519 38.6646 1.24213L16.0706 10.1474Z" fill="#102770"/>
<path d="M39.6425 9.45901C41.3815 9.45901 42.7912 8.84012 42.7912 8.07667C42.7912 7.31323 41.3815 6.69434 39.6425 6.69434C37.9036 6.69434 36.4939 7.31323 36.4939 8.07667C36.4939 8.84012 37.9036 9.45901 39.6425 9.45901Z" fill="#102770"/>
<path d="M25.6139 34.3821C25.533 34.3821 25.453 34.3661 25.3783 34.3352C25.3036 34.3043 25.2357 34.2589 25.1785 34.2017C25.1213 34.1446 25.076 34.0767 25.045 34.002C25.0141 33.9273 24.9982 33.8472 24.9982 33.7663V13.5377C24.9982 13.4136 25.0356 13.2925 25.1056 13.1901C25.1757 13.0877 25.275 13.0089 25.3905 12.9639L39.4191 7.50288C39.5713 7.44364 39.7408 7.44728 39.8903 7.513C40.0398 7.57871 40.157 7.70112 40.2163 7.8533C40.2755 8.00547 40.2719 8.17495 40.2062 8.32444C40.1404 8.47393 40.018 8.59119 39.8659 8.65043L26.2296 13.9587V33.7663C26.2296 33.8472 26.2137 33.9273 26.1827 34.002C26.1518 34.0767 26.1064 34.1446 26.0493 34.2017C25.9921 34.2589 25.9242 34.3043 25.8495 34.3352C25.7748 34.3661 25.6947 34.3821 25.6139 34.3821Z" fill="#102770"/>
<path d="M26.917 39.0331H24.4155C24.2714 39.0331 24.1292 39.0013 23.9988 38.94C23.8685 38.8787 23.7533 38.7893 23.6615 38.6784C23.5696 38.5674 23.5034 38.4375 23.4676 38.298C23.4317 38.1585 23.4271 38.0128 23.4541 37.8713L24.1603 34.1635C24.2029 33.9397 24.3223 33.7378 24.4978 33.5926C24.6733 33.4474 24.8939 33.3679 25.1217 33.3679H26.0342C26.2543 33.3679 26.4681 33.4421 26.6408 33.5786C26.8136 33.7151 26.9353 33.9058 26.9863 34.1199L27.8691 37.8277C27.9033 37.9715 27.9045 38.1212 27.8727 38.2655C27.8408 38.4098 27.7766 38.5451 27.685 38.661C27.5934 38.777 27.4767 38.8708 27.3437 38.9352C27.2107 38.9997 27.0648 39.0331 26.917 39.0331Z" fill="#102770"/>
<path d="M50.5951 50.8694H64.9871V61.361H50.5951C50.0808 61.361 49.5716 61.2597 49.0965 61.0629C48.6213 60.8661 48.1896 60.5776 47.826 60.214C47.4623 59.8503 47.1739 59.4186 46.9771 58.9435C46.7802 58.4684 46.679 57.9591 46.679 57.4449V54.7855C46.679 53.7469 47.0915 52.7508 47.826 52.0164C48.5604 51.282 49.5565 50.8694 50.5951 50.8694Z" fill="#F7C414"/>
<g opacity="0.57">
<path d="M46.6794 54.786V56.1772C46.6794 55.663 46.7807 55.1538 46.9775 54.6787C47.1742 54.2036 47.4627 53.7719 47.8263 53.4083C48.1899 53.0447 48.6216 52.7563 49.0967 52.5595C49.5718 52.3627 50.081 52.2614 50.5952 52.2615H64.9873V50.8691H50.5952C49.5566 50.8693 48.5605 51.2821 47.8262 52.0166C47.0918 52.7512 46.6793 53.7474 46.6794 54.786Z" fill="white"/>
</g>
<g opacity="0.3">
<path d="M46.6915 57.7652C46.7724 58.745 47.2186 59.6586 47.9418 60.3247C48.665 60.9908 49.6121 61.3606 50.5953 61.3608H64.9874V50.8691H64.1677V59.2668H49.7756C49.1812 59.2673 48.5946 59.1323 48.0602 58.8721C47.5258 58.6119 47.0577 58.2334 46.6915 57.7652Z" fill="#102770"/>
</g>
<path d="M64.9871 61.8272H50.5951C48.1787 61.8272 46.2128 59.8613 46.2128 57.4449V54.7856C46.2128 52.3693 48.1787 50.4033 50.5951 50.4033H64.9871C65.1108 50.4033 65.2293 50.4524 65.3168 50.5399C65.4042 50.6273 65.4533 50.7459 65.4533 50.8695V61.3611C65.4533 61.4847 65.4042 61.6033 65.3168 61.6907C65.2293 61.7781 65.1108 61.8272 64.9871 61.8272ZM50.5951 51.3357C49.6805 51.3367 48.8035 51.7005 48.1568 52.3473C47.51 52.994 47.1461 53.8709 47.1451 54.7856V57.4449C47.1461 58.3596 47.51 59.2365 48.1568 59.8833C48.8035 60.5301 49.6805 60.8939 50.5951 60.8949H64.521V51.3357H50.5951Z" fill="#102770"/>
<path d="M75.4216 59.3939H63.7278C63.2062 59.3935 62.7061 59.1861 62.3372 58.8173C61.9684 58.4485 61.761 57.9484 61.7606 57.4268V54.8038C61.761 54.2822 61.9684 53.7821 62.3372 53.4133C62.7061 53.0445 63.2062 52.8371 63.7278 52.8367H75.4216C74.1101 53.6749 74.1462 58.5929 75.4216 59.3939Z" fill="white"/>
<g opacity="0.3">
<path d="M61.7611 54.8036V56.9533C61.7615 56.4317 61.9689 55.9316 62.3377 55.5627C62.7066 55.1939 63.2067 54.9865 63.7283 54.9861H74.5194C74.6439 53.9916 74.9434 53.1424 75.4221 52.8364H63.7283C63.2067 52.8368 62.7066 53.0442 62.3377 53.4131C61.9689 53.7819 61.7615 54.282 61.7611 54.8036Z" fill="#102770"/>
</g>
<path d="M75.4215 59.8602H63.7278C63.0826 59.8594 62.4641 59.6028 62.0079 59.1467C61.5518 58.6905 61.2952 58.072 61.2944 57.4268V54.8039C61.2952 54.1588 61.5518 53.5403 62.008 53.0841C62.4641 52.6279 63.0826 52.3713 63.7278 52.3706H75.4215C75.5224 52.3706 75.6205 52.4033 75.7011 52.4638C75.7818 52.5242 75.8407 52.6092 75.869 52.706C75.8972 52.8028 75.8934 52.9061 75.858 53.0005C75.8226 53.0949 75.7575 53.1753 75.6726 53.2295C75.2927 53.4724 74.9114 54.5484 74.9176 56.1352C74.9238 57.6926 75.3096 58.7733 75.6695 58.9992C75.7551 59.053 75.8209 59.1332 75.857 59.2277C75.8931 59.3222 75.8975 59.4258 75.8695 59.523C75.8415 59.6202 75.7827 59.7056 75.7019 59.7665C75.6211 59.8273 75.5227 59.8602 75.4215 59.8602ZM63.7278 53.3029C63.3298 53.3034 62.9483 53.4617 62.6669 53.7431C62.3855 54.0245 62.2272 54.406 62.2268 54.8039V57.4268C62.2272 57.8248 62.3855 58.2063 62.6669 58.4877C62.9483 58.7691 63.3298 58.9274 63.7278 58.9278H74.488C74.1322 58.158 73.9891 57.083 73.9854 56.1388C73.9834 55.637 74.0241 54.2769 74.4784 53.3029H63.7278Z" fill="#282E6A"/>
<path d="M76.7604 60.3774C76.7603 60.6383 76.6567 60.8884 76.4723 61.0729C76.2878 61.2573 76.0376 61.361 75.7768 61.361H63.7278C61.5585 61.361 59.7935 59.596 59.7935 57.4266V54.8037C59.7935 52.6344 61.5585 50.8694 63.7278 50.8694H75.7768C76.0376 50.8694 76.2878 50.973 76.4723 51.1575C76.6567 51.3419 76.7604 51.5921 76.7604 51.853C76.7604 52.1138 76.6567 52.364 76.4723 52.5485C76.2878 52.7329 76.0376 52.8366 75.7768 52.8366H63.7278C63.2062 52.837 62.7061 53.0444 62.3373 53.4132C61.9684 53.782 61.7611 54.2821 61.7606 54.8037V57.4266C61.7611 57.9482 61.9684 58.4484 62.3373 58.8172C62.7061 59.186 63.2062 59.3934 63.7278 59.3938H75.7768C76.0376 59.3938 76.2878 59.4975 76.4723 59.6819C76.6567 59.8664 76.7603 60.1166 76.7604 60.3774Z" fill="#F7C414"/>
<g opacity="0.57">
<path d="M61.7611 57.4265V58.0003C61.7615 58.5219 61.9689 59.022 62.3377 59.3908C62.7066 59.7597 63.2067 59.967 63.7283 59.9674H75.7773C75.9881 59.9675 76.1934 60.0353 76.3628 60.1608C76.5322 60.2863 76.6568 60.463 76.7182 60.6647C76.7463 60.5715 76.7606 60.4746 76.7608 60.3773C76.7608 60.1164 76.6572 59.8663 76.4727 59.6818C76.2883 59.4973 76.0381 59.3937 75.7773 59.3937H63.7283C63.2067 59.3933 62.7066 59.1859 62.3377 58.8171C61.9689 58.4482 61.7615 57.9481 61.7611 57.4265Z" fill="white"/>
</g>
<g opacity="0.3">
<path d="M59.7939 56.6887V57.4264C59.7939 59.5958 61.5589 61.3608 63.7283 61.3608H75.7773C76.0381 61.3607 76.2883 61.2571 76.4727 61.0727C76.6572 60.8882 76.7608 60.638 76.7609 60.3772C76.7612 60.2509 76.7367 60.1257 76.6887 60.0089C76.6152 60.1904 76.4892 60.3457 76.3268 60.4552C76.1644 60.5646 75.9731 60.623 75.7773 60.6231H63.7283C61.5589 60.6231 59.7939 58.8581 59.7939 56.6887Z" fill="#102770"/>
</g>
<g opacity="0.57">
<path d="M59.7939 54.8035V55.6417C59.7939 53.4724 61.5589 51.7074 63.7283 51.7074H75.7773C75.964 51.7071 76.1468 51.7602 76.3044 51.8603C76.462 51.9603 76.5877 52.1033 76.6669 52.2724C76.7376 52.1225 76.7693 51.9571 76.759 51.7917C76.7487 51.6263 76.6967 51.4661 76.608 51.3261C76.5192 51.1861 76.3966 51.0708 76.2513 50.9909C76.1061 50.911 75.943 50.8692 75.7773 50.8691H63.7283C61.5589 50.8691 59.7939 52.6341 59.7939 54.8035Z" fill="white"/>
</g>
<path d="M75.7767 61.8272H63.7278C61.3013 61.8272 59.3273 59.8532 59.3273 57.4267V54.8038C59.3273 52.3774 61.3013 50.4033 63.7278 50.4033H75.7767C76.1612 50.4033 76.53 50.5561 76.8019 50.8279C77.0737 51.0998 77.2265 51.4686 77.2265 51.8531C77.2265 52.2376 77.0737 52.6063 76.8019 52.8782C76.53 53.1501 76.1612 53.3028 75.7767 53.3028H63.7278C63.3298 53.3033 62.9483 53.4615 62.6669 53.7429C62.3855 54.0243 62.2272 54.4059 62.2268 54.8038V57.4267C62.2272 57.8247 62.3855 58.2062 62.6669 58.4876C62.9483 58.769 63.3298 58.9273 63.7278 58.9277H75.7767C76.1612 58.9277 76.53 59.0805 76.8019 59.3524C77.0737 59.6242 77.2265 59.993 77.2265 60.3775C77.2265 60.762 77.0737 61.1307 76.8019 61.4026C76.53 61.6745 76.1612 61.8272 75.7767 61.8272ZM63.7278 51.3357C62.8083 51.3367 61.9267 51.7024 61.2766 52.3526C60.6264 53.0028 60.2606 53.8843 60.2596 54.8038V57.4267C60.2606 58.3462 60.6264 59.2278 61.2766 59.878C61.9267 60.5281 62.8083 60.8939 63.7278 60.8949H75.7767C75.914 60.8949 76.0456 60.8404 76.1426 60.7434C76.2396 60.6463 76.2942 60.5147 76.2942 60.3775C76.2942 60.2403 76.2396 60.1087 76.1426 60.0116C76.0456 59.9146 75.914 59.8601 75.7767 59.8601H63.7278C63.0826 59.8593 62.4641 59.6027 62.008 59.1465C61.5518 58.6904 61.2952 58.0719 61.2944 57.4267V54.8038C61.2952 54.1587 61.5518 53.5402 62.008 53.084C62.4641 52.6278 63.0826 52.3712 63.7278 52.3705H75.7767C75.914 52.3705 76.0456 52.316 76.1426 52.2189C76.2396 52.1219 76.2942 51.9903 76.2942 51.8531C76.2942 51.7158 76.2396 51.5842 76.1426 51.4872C76.0456 51.3902 75.914 51.3357 75.7767 51.3357H63.7278Z" fill="#102770"/>
<path d="M69.01 52.8367V56.1153L70.0938 55.159L71.1867 56.1153V52.8367H69.01Z" fill="#22A7F0"/>
<g opacity="0.3">
<path d="M71.1873 52.8364H69.0103V54.0211H71.1873V52.8364Z" fill="#102770"/>
</g>
<path d="M69.0101 56.5038C68.907 56.5037 68.8083 56.4628 68.7355 56.3899C68.6626 56.3171 68.6217 56.2183 68.6217 56.1153V52.8367C68.6217 52.7857 68.6317 52.7352 68.6513 52.688C68.6708 52.6409 68.6994 52.5981 68.7355 52.562C68.7715 52.5259 68.8144 52.4973 68.8615 52.4778C68.9086 52.4583 68.9591 52.4482 69.0101 52.4482H71.1867C71.2377 52.4482 71.2882 52.4583 71.3354 52.4778C71.3825 52.4973 71.4253 52.5259 71.4614 52.562C71.4975 52.5981 71.5261 52.6409 71.5456 52.688C71.5651 52.7351 71.5751 52.7857 71.5751 52.8367V56.1153C71.5752 56.1899 71.5537 56.263 71.5132 56.3257C71.4728 56.3884 71.4152 56.4382 71.3472 56.469C71.2793 56.4999 71.2039 56.5105 71.1301 56.4996C71.0562 56.4887 70.9871 56.4568 70.9309 56.4076L70.095 55.6762L69.2671 56.4066C69.1962 56.4693 69.1047 56.5038 69.0101 56.5038ZM70.0939 54.7706C70.188 54.7705 70.2789 54.8047 70.3496 54.8667L70.7983 55.2592V53.2251H69.3986V55.2545L69.8369 54.8677C69.9078 54.805 69.9992 54.7705 70.0939 54.7706Z" fill="#102770"/>
<g opacity="0.25">
<path d="M51.4619 53.4036C51.4619 53.8296 52.3313 54.2717 53.4038 54.2717C54.4762 54.2717 55.3456 53.8296 55.3456 53.4036C55.3456 52.9777 54.4762 53.0274 53.4038 53.0274C52.3313 53.0274 51.4619 52.9777 51.4619 53.4036Z" fill="white"/>
</g>
<g opacity="0.25">
<path d="M55.9474 53.5524C55.9474 53.8431 56.3225 54.0788 56.7853 54.0788C57.248 54.0788 57.6231 53.8431 57.6231 53.5524C57.6231 53.2617 57.248 53.1353 56.7853 53.1353C56.3225 53.1353 55.9474 53.2617 55.9474 53.5524Z" fill="white"/>
</g>
<g opacity="0.3">
<path d="M77.4243 47.6072C77.3027 47.9429 77.2611 48.3024 77.3028 48.657H78.0409C77.7529 48.3071 77.5473 47.9571 77.4243 47.6072Z" fill="#282E6A"/>
</g>
<path d="M50.5568 42.9019H62.5973V50.7329H50.5568C50.1801 50.7329 49.8071 50.6587 49.4591 50.5145C49.111 50.3704 48.7948 50.1591 48.5284 49.8927C48.262 49.6263 48.0508 49.3101 47.9066 48.9621C47.7624 48.614 47.6882 48.241 47.6882 47.8643V45.7704C47.6882 45.0096 47.9905 44.28 48.5284 43.742C49.0664 43.2041 49.796 42.9019 50.5568 42.9019Z" fill="#FF5722"/>
<g opacity="0.57">
<path d="M47.6884 45.7709V46.7555C47.6882 45.9946 47.9903 45.2649 48.5282 44.7268C49.0661 44.1887 49.7957 43.8863 50.5565 43.8862H62.5974V42.9016H50.5565C49.7957 42.9018 49.0661 43.2042 48.5282 43.7423C47.9903 44.2804 47.6882 45.0101 47.6884 45.7709Z" fill="white"/>
</g>
<g opacity="0.3">
<path d="M47.6884 46.0366V47.864C47.6882 48.6248 47.9903 49.3545 48.5282 49.8926C49.0661 50.4307 49.7957 50.7331 50.5565 50.7332H62.5974V48.9048H50.5565C50.1799 48.9048 49.8069 48.8307 49.4589 48.6865C49.1109 48.5424 48.7947 48.3312 48.5283 48.0648C48.262 47.7985 48.0507 47.4823 47.9066 47.1343C47.7625 46.7863 47.6883 46.4133 47.6884 46.0366Z" fill="#102770"/>
</g>
<path d="M62.5974 51.1989H50.5569C49.6728 51.1979 48.8252 50.8463 48.2 50.2211C47.5748 49.5959 47.2232 48.7483 47.2222 47.8641V45.7703C47.2232 44.8862 47.5748 44.0386 48.2 43.4134C48.8252 42.7882 49.6728 42.4365 50.5569 42.4355H62.5974C62.721 42.4356 62.8396 42.4847 62.927 42.5721C63.0144 42.6595 63.0636 42.7781 63.0636 42.9017V50.7327C63.0636 50.8564 63.0144 50.9749 62.927 51.0624C62.8396 51.1498 62.721 51.1989 62.5974 51.1989ZM50.5569 43.3679C49.92 43.3686 49.3093 43.622 48.859 44.0723C48.4086 44.5227 48.1552 45.1334 48.1545 45.7703V47.8641C48.1552 48.5011 48.4086 49.1117 48.859 49.5621C49.3093 50.0125 49.92 50.2659 50.5569 50.2666H62.1312V43.3679H50.5569Z" fill="#102770"/>
<path d="M79.5333 49.6673C79.5377 49.8071 79.5139 49.9464 79.4634 50.0768C79.4129 50.2072 79.3367 50.3262 79.2393 50.4266C79.142 50.5271 79.0254 50.6069 78.8966 50.6615C78.7678 50.716 78.6294 50.7441 78.4895 50.7442H62.3178C61.9723 50.7441 61.6301 50.676 61.3109 50.5436C60.9917 50.4113 60.7017 50.2174 60.4574 49.973C60.2132 49.7286 60.0195 49.4384 59.8874 49.1191C59.7552 48.7998 59.6873 48.4576 59.6875 48.1121V45.5339C59.6875 44.8362 59.9645 44.1669 60.4578 43.6734C60.951 43.1798 61.6201 42.9023 62.3178 42.9019H78.446C79.0184 42.9019 79.5159 43.3437 79.5333 43.9143C79.5376 44.054 79.5138 44.1932 79.4633 44.3235C79.4127 44.4538 79.3365 44.5727 79.2392 44.673C79.1418 44.7733 79.0252 44.8529 78.8965 44.9073C78.7677 44.9617 78.6293 44.9896 78.4895 44.9894H62.5927C62.3757 44.9899 62.1677 45.0764 62.0144 45.23C61.8611 45.3836 61.775 45.5918 61.7751 45.8088V47.8372C61.775 48.0542 61.8611 48.2624 62.0144 48.416C62.1677 48.5696 62.3757 48.6562 62.5927 48.6566H78.446C79.0184 48.6566 79.5159 49.0967 79.5333 49.6673Z" fill="#FF5722"/>
<g opacity="0.57">
<path d="M61.7749 47.9431V48.5811C61.7749 48.7982 61.861 49.0064 62.0144 49.16C62.1678 49.3136 62.3759 49.4 62.5929 49.4003H78.446C78.9198 49.4003 79.3406 49.7007 79.4824 50.1271C79.5198 50.0133 79.537 49.8937 79.533 49.7738C79.5161 49.2034 79.0188 48.7634 78.446 48.7634H62.5929C62.3757 48.7629 62.1676 48.6762 62.0143 48.5224C61.8609 48.3686 61.7748 48.1603 61.7749 47.9431Z" fill="white"/>
</g>
<g opacity="0.3">
<path d="M59.6876 47.3259V48.1124C59.6875 48.8103 59.9646 49.4797 60.4579 49.9732C60.9513 50.4668 61.6205 50.7442 62.3184 50.7443H78.4899C78.6297 50.7442 78.7681 50.716 78.8968 50.6615C79.0255 50.6069 79.142 50.527 79.2393 50.4266C79.3365 50.3262 79.4127 50.2072 79.4631 50.0768C79.5136 49.9464 79.5373 49.8072 79.533 49.6675C79.5295 49.5444 79.5032 49.4231 79.4553 49.3097C79.3768 49.5012 79.243 49.6651 79.0711 49.7805C78.8993 49.8959 78.697 49.9576 78.4899 49.9578H62.3184C61.6205 49.9576 60.9513 49.6803 60.4579 49.1867C59.9646 48.6931 59.6875 48.0238 59.6876 47.3259Z" fill="#102770"/>
</g>
<g opacity="0.57">
<path d="M59.6876 45.5335V46.3729C59.6877 45.6751 59.9648 45.0059 60.4581 44.5123C60.9515 44.0188 61.6206 43.7414 62.3184 43.741H78.446C78.8815 43.741 79.2731 43.9964 79.443 44.37C79.5074 44.227 79.5382 44.0711 79.533 43.9143C79.5161 43.3438 79.0188 42.9016 78.446 42.9016H62.3184C61.6206 42.902 60.9515 43.1794 60.4581 43.6729C59.9648 44.1665 59.6877 44.8357 59.6876 45.5335Z" fill="white"/>
</g>
<path d="M78.4895 51.2102H62.3178C61.4966 51.2091 60.7094 50.8822 60.1289 50.3014C59.5484 49.7205 59.222 48.9332 59.2213 48.112V45.5338C59.222 44.7126 59.5484 43.9252 60.1289 43.3444C60.7094 42.7636 61.4966 42.4367 62.3178 42.4355H78.4461C79.2779 42.4355 79.9747 43.0925 79.9993 43.9C80.0055 44.1021 79.971 44.3034 79.8979 44.4919C79.8248 44.6804 79.7146 44.8523 79.5737 44.9974C79.4329 45.1425 79.2644 45.2578 79.0781 45.3365C78.8919 45.4152 78.6917 45.4557 78.4895 45.4555H62.5927C62.4993 45.4558 62.4098 45.4932 62.3439 45.5594C62.278 45.6256 62.2411 45.7153 62.2412 45.8087V47.8371C62.2411 47.9305 62.278 48.0202 62.3439 48.0864C62.4098 48.1526 62.4993 48.1899 62.5927 48.1903H78.4461C79.278 48.1903 79.9747 48.8465 79.9993 49.653V49.6535C80.0054 49.8556 79.971 50.057 79.8979 50.2455C79.8248 50.4341 79.7146 50.6061 79.5738 50.7513C79.433 50.8964 79.2644 51.0119 79.0782 51.0907C78.8919 51.1696 78.6918 51.2102 78.4895 51.2102ZM62.3178 43.3679C61.7438 43.3687 61.1936 43.5973 60.7879 44.0033C60.3821 44.4094 60.1541 44.9598 60.1536 45.5338V48.112C60.1541 48.686 60.3821 49.2364 60.7879 49.6424C61.1936 50.0485 61.7438 50.277 62.3178 50.2779H78.4895C78.567 50.2779 78.6436 50.2623 78.715 50.2321C78.7863 50.2018 78.8508 50.1576 78.9047 50.102C78.9586 50.0463 79.0008 49.9804 79.0287 49.9082C79.0566 49.836 79.0698 49.7588 79.0674 49.6814C79.058 49.3733 78.7793 49.1226 78.4461 49.1226H62.5927C62.2521 49.122 61.9257 48.9863 61.685 48.7453C61.4443 48.5043 61.309 48.1777 61.3089 47.8371V45.8087C61.309 45.4681 61.4443 45.1414 61.685 44.9004C61.9257 44.6594 62.2521 44.5238 62.5927 44.5232H78.4895C78.5669 44.5233 78.6436 44.5079 78.7149 44.4779C78.7863 44.4478 78.8508 44.4037 78.9047 44.3481C78.9586 44.2926 79.0008 44.2268 79.0288 44.1546C79.0567 44.0824 79.0698 44.0053 79.0674 43.9279C79.058 43.6193 78.7792 43.3679 78.4461 43.3679H62.3178Z" fill="#102770"/>
<path d="M78.0407 48.6564H62.5927C62.3756 48.656 62.1677 48.5695 62.0144 48.4159C61.8611 48.2622 61.775 48.0541 61.775 47.8371V45.8086C61.775 45.5916 61.8611 45.3835 62.0144 45.2298C62.1677 45.0762 62.3756 44.9897 62.5927 44.9893H78.0407C77.0351 46.2122 77.0351 47.4346 78.0407 48.6564Z" fill="white"/>
<g opacity="0.3">
<path d="M61.7749 45.8093V47.3767C61.7748 47.1595 61.8609 46.9512 62.0143 46.7974C62.1676 46.6436 62.3757 46.5569 62.5929 46.5564H77.3028C77.3647 46.0343 77.6108 45.5119 78.041 44.989H62.5929C62.3757 44.9895 62.1676 45.0762 62.0143 45.23C61.8609 45.3838 61.7748 45.5921 61.7749 45.8093Z" fill="#102770"/>
</g>
<path d="M78.0406 49.1229H62.5927C62.2521 49.1223 61.9256 48.9866 61.6849 48.7456C61.4443 48.5046 61.309 48.178 61.3088 47.8374V45.8089C61.309 45.4683 61.4443 45.1417 61.6849 44.9007C61.9256 44.6597 62.2521 44.524 62.5927 44.5234H78.0406C78.129 44.5234 78.2155 44.5485 78.2901 44.5958C78.3647 44.6431 78.4244 44.7106 78.4621 44.7905C78.4999 44.8704 78.5141 44.9593 78.5032 45.047C78.4924 45.1347 78.4568 45.2174 78.4007 45.2857C77.5383 46.3346 77.5383 47.3117 78.4007 48.3607C78.4568 48.4289 78.4924 48.5117 78.5032 48.5993C78.5141 48.687 78.4999 48.776 78.4621 48.8558C78.4244 48.9357 78.3647 49.0032 78.2901 49.0505C78.2155 49.0978 78.129 49.1229 78.0406 49.1229ZM62.5927 45.4558C62.4993 45.4561 62.4098 45.4935 62.3439 45.5597C62.278 45.6259 62.2411 45.7155 62.2412 45.8089V47.8374C62.2411 47.9308 62.278 48.0204 62.3439 48.0866C62.4098 48.1529 62.4993 48.1902 62.5927 48.1906H77.1718C76.7048 47.2859 76.7048 46.3604 77.1718 45.4558H62.5927Z" fill="#102770"/>
<g opacity="0.25">
<path d="M50.5688 45.3692C50.5688 45.8078 51.464 46.2629 52.5681 46.2629C53.6723 46.2629 54.5674 45.8078 54.5674 45.3692C54.5674 44.9306 53.6723 44.9818 52.5681 44.9818C51.464 44.9818 50.5688 44.9306 50.5688 45.3692Z" fill="white"/>
</g>
<g opacity="0.25">
<path d="M55.1429 45.4095C55.1429 45.7088 55.5292 45.9515 56.0056 45.9515C56.482 45.9515 56.8683 45.7088 56.8683 45.4095C56.8683 45.1101 56.482 44.98 56.0056 44.98C55.5292 44.98 55.1429 45.1101 55.1429 45.4095Z" fill="white"/>
</g>
</svg>
