<svg width="73" height="63" viewBox="0 0 73 63" fill="none" xmlns="http://www.w3.org/2000/svg">
<path d="M69.4551 50.8041C68.8933 50.8033 68.3477 50.6156 67.9043 50.2707C67.4608 49.9257 67.1447 49.4431 67.0057 48.8988C66.8666 48.3544 66.9125 47.7793 67.1362 47.264C67.3599 46.7486 67.7486 46.3223 68.2411 46.0521C68.7337 45.7819 69.3021 45.6832 69.8569 45.7715C70.4118 45.8598 70.9214 46.1301 71.3058 46.5398C71.6901 46.9496 71.9273 47.4755 71.9799 48.0349C72.0325 48.5942 71.8976 49.1552 71.5965 49.6294V49.6295C71.4189 49.9106 71.1873 50.1538 70.9151 50.3449C70.6429 50.5359 70.3355 50.6711 70.0108 50.7426C69.8283 50.7834 69.642 50.804 69.4551 50.8041ZM69.4627 46.8438C69.3573 46.8439 69.2523 46.8555 69.1494 46.8785C68.7954 46.9583 68.4853 47.1705 68.2829 47.4718C68.0805 47.773 68.0012 48.1402 68.0611 48.4982C68.1211 48.8561 68.3158 49.1774 68.6053 49.3963C68.8948 49.6151 69.2571 49.7148 69.6178 49.6748C69.9785 49.6349 70.3102 49.4583 70.5447 49.1814C70.7793 48.9045 70.899 48.5483 70.8791 48.186C70.8593 47.8236 70.7014 47.4826 70.438 47.233C70.1746 46.9834 69.8256 46.8441 69.4627 46.8438Z" fill="#19B5FE"/>
<path d="M70.3763 39.8161C70.6922 39.5676 70.7469 39.1101 70.4984 38.7942C70.2499 38.4782 69.7923 38.4236 69.4764 38.6721C69.1605 38.9206 69.1059 39.3782 69.3544 39.6941C69.6029 40.01 70.0604 40.0646 70.3763 39.8161Z" fill="#F7C714"/>
<path d="M60.6133 52.5399C61.3795 52.5399 62.0006 51.9188 62.0006 51.1526C62.0006 50.3865 61.3795 49.7654 60.6133 49.7654C59.8472 49.7654 59.2261 50.3865 59.2261 51.1526C59.2261 51.9188 59.8472 52.5399 60.6133 52.5399Z" fill="#FF5722"/>
<path d="M48.6328 19.8154C45.9281 19.8154 43.2258 22.8212 43.2258 28.828V59.2302C43.2254 59.9864 42.9249 60.7116 42.3902 61.2463C41.8555 61.781 41.1303 62.0815 40.3741 62.0819H10.3115C9.93699 62.0819 9.56616 62.0082 9.22016 61.8649C8.87417 61.7216 8.55979 61.5115 8.29499 61.2467C8.03018 60.9819 7.82013 60.6675 7.67683 60.3215C7.53354 59.9755 7.4598 59.6047 7.45984 59.2302V28.828C7.45984 22.8212 10.1646 19.8154 12.8693 19.8154H48.6328Z" fill="#FFF7E1"/>
<g opacity="0.3">
<path d="M42.097 60.2928C42.4338 60.293 42.7679 60.2339 43.0842 60.1183C42.8969 60.6891 42.5342 61.1862 42.0477 61.5387C41.5613 61.8911 40.9759 62.081 40.3752 62.0812H10.3123C9.55543 62.0812 8.82959 61.7805 8.29443 61.2454C7.75927 60.7102 7.45862 59.9844 7.45862 59.2275V28.8271C7.45862 24.4216 8.91643 21.6299 10.7599 20.4568C9.80719 21.9559 9.18044 24.1507 9.18044 27.0387V49.1848C9.18044 55.3195 14.1537 60.2928 20.2885 60.2928H42.097Z" fill="#262F6A"/>
</g>
<path d="M40.374 62.6741H10.3114C9.39832 62.673 8.52292 62.3098 7.87728 61.6642C7.23163 61.0185 6.86845 60.1431 6.86743 59.23V28.8278C6.86743 22.2285 9.97858 19.2229 12.8692 19.2229H48.6327C48.7898 19.2229 48.9405 19.2853 49.0516 19.3964C49.1627 19.5075 49.2251 19.6582 49.2251 19.8153C49.2251 19.9724 49.1627 20.123 49.0516 20.2341C48.9405 20.3452 48.7898 20.4076 48.6327 20.4076C46.2401 20.4076 43.818 23.2999 43.818 28.8278V59.23C43.817 60.1431 43.4538 61.0185 42.8082 61.6642C42.1625 62.3098 41.2871 62.673 40.374 62.6741ZM12.8692 20.4076C10.4754 20.4076 8.05213 23.2999 8.05213 28.8278V59.23C8.0528 59.829 8.29104 60.4033 8.71459 60.8269C9.13814 61.2504 9.71241 61.4887 10.3114 61.4894H40.374C40.973 61.4887 41.5473 61.2504 41.9708 60.8269C42.3944 60.4033 42.6326 59.829 42.6333 59.23V28.8278C42.6333 24.5933 43.914 21.8382 45.5951 20.4076H12.8692Z" fill="#262F6A"/>
<path d="M54.0398 28.828V42.183C54.0399 42.6138 53.9551 43.0404 53.7903 43.4385C53.6255 43.8365 53.3839 44.1982 53.0793 44.5028C52.7746 44.8075 52.413 45.0491 52.0149 45.2139C51.6169 45.3787 51.1903 45.4635 50.7594 45.4634H43.2257V28.828C43.2257 22.8212 45.928 19.8154 48.6328 19.8154C51.3375 19.8154 54.0398 22.8212 54.0398 28.828Z" fill="white"/>
<path d="M50.7595 45.5781H43.111V28.828C43.111 22.5569 45.9733 19.7007 48.6328 19.7007C51.2922 19.7007 54.1546 22.5569 54.1546 28.828V42.1831C54.1535 43.0832 53.7955 43.9461 53.159 44.5826C52.5226 45.2191 51.6596 45.5771 50.7595 45.5781ZM43.3405 45.3486H50.7595C51.5987 45.3477 52.4034 45.0139 52.9968 44.4204C53.5903 43.827 53.9241 43.0223 53.925 42.1831V28.828C53.925 22.7146 51.1817 19.9302 48.6328 19.9302C46.0839 19.9302 43.3405 22.7146 43.3405 28.828V45.3486Z" fill="white"/>
<path d="M54.0395 28.827V42.1837C54.0396 42.6146 53.9548 43.0412 53.79 43.4393C53.6252 43.8374 53.3835 44.1991 53.0789 44.5037C52.7742 44.8084 52.4125 45.05 52.0145 45.2149C51.6164 45.3797 51.1897 45.4645 50.7589 45.4644H43.2265V28.827C43.2221 27.8686 43.2996 26.9116 43.4584 25.9665C43.8188 23.8774 44.5741 22.3208 45.5268 21.2969C46.4406 20.3097 47.5379 19.8162 48.633 19.8162C49.9967 19.8162 51.3604 20.5807 52.3751 22.1073C53.376 23.6088 54.0395 25.8494 54.0395 28.827Z" fill="#FFF7E1"/>
<g opacity="0.3">
<path d="M52.113 43.2216C52.3026 43.1355 52.4887 43.3489 52.3825 43.5281C52.0924 44.0183 51.6796 44.4244 51.1848 44.7064C50.6899 44.9885 50.1301 45.1367 49.5606 45.1364H43.2263V43.5129H50.7594C51.2262 43.5137 51.6878 43.4144 52.113 43.2216Z" fill="#262F6A"/>
</g>
<g opacity="0.3">
<path d="M43.5297 25.581C43.5802 25.3285 43.6376 25.0828 43.7018 24.8486C43.6376 25.0851 43.5802 25.3285 43.5297 25.581Z" fill="#5F5A57"/>
</g>
<path d="M50.7594 46.0556H43.2257C43.0686 46.0556 42.9179 45.9931 42.8068 45.8821C42.6957 45.771 42.6333 45.6203 42.6333 45.4632V28.8278C42.6333 22.2285 45.7432 19.2229 48.6327 19.2229C51.5222 19.2229 54.6321 22.2285 54.6321 28.8278V42.1829C54.6321 44.3183 52.8948 46.0556 50.7594 46.0556ZM43.818 44.8709H50.7594C51.4721 44.8701 52.1553 44.5866 52.6592 44.0827C53.1631 43.5788 53.4466 42.8955 53.4474 42.1829V28.8278C53.4474 23.2999 51.0254 20.4076 48.6327 20.4076C46.2401 20.4076 43.818 23.2999 43.818 28.8278V44.8709Z" fill="#262F6A"/>
<g opacity="0.3">
<path d="M51.3966 23.5635L43.2263 35.7353V28.8261C43.2217 27.8679 43.2997 26.9111 43.4593 25.9662C43.6509 24.8482 43.9572 23.8824 44.3462 23.0687C44.5053 22.8422 44.6799 22.6268 44.8685 22.4242C45.7836 21.4377 46.8542 20.8613 47.9478 20.8613C49.1636 20.8613 50.423 21.4882 51.3799 22.749C51.4669 22.8662 51.5153 23.0076 51.5183 23.1536C51.5213 23.2996 51.4787 23.4428 51.3966 23.5635Z" fill="#262F6A"/>
</g>
<path d="M58.6128 19.7549L51.4536 22.3169L50.1627 18.7118L57.3231 16.1487L56.4211 18.448L58.6128 19.7549Z" fill="#FF5722"/>
<g opacity="0.57">
<path d="M55.3542 18.3421L56.0316 16.6148L50.2501 18.6846L50.236 18.6438L57.3959 16.0811L56.4947 18.3814L58.6868 19.6869L57.2756 20.1928L55.6573 19.2279C55.5101 19.1401 55.3987 19.0028 55.3432 18.8406C55.2877 18.6784 55.2916 18.5017 55.3542 18.3421Z" fill="white"/>
</g>
<path d="M51.8132 19.9398L48.2228 18.6067L50.8721 11.4778L52.1532 13.7714L54.4614 12.8121L51.8132 19.9398Z" fill="#FF5722"/>
<g opacity="0.57">
<path d="M51.7769 20.0379L54.0141 14.0161L52.3482 14.7082C52.171 14.7818 51.9729 14.7878 51.7916 14.7249C51.6103 14.662 51.4584 14.5346 51.3649 14.3671L50.4491 12.7268L50.8718 11.5889L52.1534 13.8817L54.4613 12.9224L51.8133 20.0508L51.7769 20.0379Z" fill="white"/>
</g>
<path d="M51.4537 22.8354C51.3468 22.8353 51.2426 22.8023 51.1553 22.7407C51.0679 22.6792 51.0017 22.5922 50.9657 22.4916L49.6749 18.8865C49.6519 18.8224 49.6418 18.7545 49.6451 18.6865C49.6485 18.6185 49.6652 18.5518 49.6942 18.4903C49.7233 18.4287 49.7643 18.3735 49.8147 18.3278C49.8651 18.2821 49.924 18.2468 49.9881 18.2238L57.1485 15.6607C57.2422 15.6272 57.3435 15.6213 57.4405 15.6438C57.5374 15.6664 57.6258 15.7163 57.6951 15.7878C57.7644 15.8592 57.8117 15.949 57.8313 16.0466C57.8509 16.1442 57.842 16.2453 57.8057 16.338L57.0642 18.228L58.8783 19.3097C58.9627 19.3601 59.0311 19.4334 59.0754 19.5211C59.1197 19.6088 59.1382 19.7073 59.1287 19.8051C59.1192 19.9029 59.082 19.996 59.0216 20.0736C58.9612 20.1511 58.88 20.2098 58.7875 20.2429L51.6283 22.8049C51.5723 22.825 51.5132 22.8353 51.4537 22.8354ZM50.8255 19.0251L51.767 21.6543L57.4034 19.6372L56.1557 18.8932C56.0503 18.8303 55.9705 18.732 55.9308 18.6158C55.891 18.4996 55.8938 18.3731 55.9387 18.2587L56.4242 17.021L50.8255 19.0251Z" fill="#282E6A"/>
<path d="M51.8131 20.458C51.7515 20.4579 51.6905 20.4469 51.6328 20.4254L48.0423 19.0924C47.9135 19.0445 47.8089 18.9474 47.7516 18.8224C47.6943 18.6974 47.689 18.5548 47.7369 18.4259L50.3863 11.297C50.4208 11.2042 50.4811 11.1232 50.5602 11.0636C50.6392 11.004 50.7337 10.9683 50.8324 10.9608C50.9311 10.9532 51.0299 10.974 51.1171 11.0208C51.2044 11.0676 51.2764 11.1384 51.3246 11.2248L52.3806 13.1153L54.2625 12.3332C54.3557 12.2944 54.4581 12.2838 54.5573 12.3024C54.6565 12.3211 54.7481 12.3684 54.8208 12.4384C54.8935 12.5083 54.9442 12.598 54.9667 12.6964C54.9891 12.7948 54.9824 12.8977 54.9472 12.9923L52.299 20.12C52.2622 20.2192 52.1959 20.3047 52.109 20.3651C52.0221 20.4255 51.9189 20.4579 51.8131 20.458ZM48.8892 18.301L51.5078 19.2733L53.5609 13.7473L52.3521 14.2497C52.2347 14.2985 52.1035 14.3025 51.9833 14.2608C51.8632 14.2192 51.7626 14.1348 51.7007 14.0238L50.9669 12.7103L48.8892 18.301Z" fill="#282E6A"/>
<path d="M35.7236 2.65459C35.7236 2.65459 37.6383 1.18197 41.4493 0.518311C46.6536 13.3006 55.4899 23.0468 68.8534 29.0087L66.7078 30.2826L45.8795 17.3839L35.7236 2.65459Z" fill="white"/>
<g opacity="0.3">
<path d="M65.6564 29.6318L45.879 17.3837L35.7242 2.65529C35.7242 2.65529 37.6388 1.18267 41.4499 0.517822C46.4481 12.7957 54.7967 22.2696 67.2872 28.2823C66.7728 28.7021 66.1696 29.2039 65.6564 29.6318Z" fill="#282E6A"/>
</g>
<path d="M66.7079 30.8009C66.6115 30.801 66.5169 30.7741 66.435 30.7233L45.6066 17.8246C45.5458 17.7869 45.4934 17.7371 45.4528 17.6782L35.2969 2.94887C35.2215 2.83953 35.191 2.70543 35.2116 2.57424C35.2322 2.44305 35.3024 2.32476 35.4076 2.24379C35.4899 2.18052 37.4683 0.685538 41.3603 0.00771948C41.4769 -0.0126325 41.597 0.00754153 41.7005 0.0648859C41.804 0.12223 41.8848 0.213288 41.9293 0.322912C47.2465 13.3827 56.3761 22.8747 69.0645 28.5354C69.1512 28.5741 69.2257 28.6359 69.2797 28.7141C69.3338 28.7923 69.3652 28.8838 69.3708 28.9786C69.3763 29.0735 69.3556 29.168 69.3111 29.252C69.2665 29.3359 69.1997 29.4059 69.118 29.4544L66.9724 30.7283C66.8924 30.7759 66.801 30.801 66.7079 30.8009ZM46.2446 17.0004L66.7135 29.6765L67.7366 29.069C61.5221 26.1709 56.1362 22.3421 51.7154 17.6777C47.3384 13.0596 43.7784 7.4855 41.1299 1.10464C38.7162 1.57956 37.147 2.38132 36.4517 2.79752L46.2446 17.0004Z" fill="#282E6A"/>
<path d="M37.3725 8.70958C35.1062 10.9486 32.3362 11.8212 31.1867 10.6577C30.036 9.49307 30.9419 6.73376 33.2082 4.4947C35.4744 2.25564 38.2445 1.38309 39.3952 2.54775C40.1544 3.31625 40.0167 4.78296 39.1807 6.33531C38.7526 7.13213 38.1398 7.95147 37.3725 8.70958Z" fill="white"/>
<g opacity="0.3">
<path d="M31.6458 10.9808L31.6456 10.9791C30.9069 9.67879 31.8428 7.19564 33.9166 5.14674C35.9213 3.16706 38.3217 2.2554 39.6449 2.87878C40.1068 3.69682 39.9096 4.98347 39.18 6.33514C38.7528 7.13276 38.1394 7.95222 37.3721 8.7098C35.3676 10.6911 32.9686 11.6009 31.6458 10.9808Z" fill="#282E6A"/>
</g>
<path d="M32.6018 11.686C31.8818 11.686 31.2624 11.4716 30.8179 11.0217C29.4458 9.63284 30.3357 6.60377 32.8439 4.12575C33.9975 2.98588 35.3188 2.14226 36.5643 1.75013C37.9275 1.32091 39.0638 1.47478 39.7638 2.18319C40.6722 3.10259 40.6248 4.74659 39.637 6.58084C39.1727 7.44486 38.5155 8.30851 37.7368 9.07801C36.0414 10.753 34.1032 11.686 32.6018 11.686ZM37.9715 2.55029C37.6466 2.55029 37.2765 2.61277 36.8756 2.73895C35.7842 3.08249 34.6111 3.83688 33.5724 4.86316C31.371 7.03812 30.7425 9.47043 31.5553 10.2932C32.3676 11.1154 34.8068 10.5155 37.0082 8.34061C37.7145 7.64277 38.3078 6.86444 38.7241 6.08972C39.4618 4.71977 39.5804 3.47252 39.0264 2.91176C38.7894 2.67185 38.4244 2.55029 37.9715 2.55029Z" fill="#282E6A"/>
<path d="M31.1866 10.6577C31.2949 10.7412 31.4032 10.8246 31.5092 10.908C31.3912 10.8389 31.2828 10.7548 31.1866 10.6577Z" fill="white"/>
<path d="M31.5087 11.3969C31.4217 11.3969 31.3362 11.3736 31.2612 11.3294C31.1067 11.2388 30.9647 11.1285 30.8387 11.0013C30.7516 10.9131 30.7011 10.7951 30.6977 10.6711C30.6943 10.5472 30.738 10.4265 30.8202 10.3336C30.9023 10.2407 31.0167 10.1825 31.1401 10.1707C31.2635 10.1589 31.3869 10.1944 31.4851 10.2701C31.5947 10.3546 31.7043 10.4391 31.8116 10.5235C31.8915 10.5864 31.9498 10.6727 31.9784 10.7703C32.007 10.8679 32.0045 10.972 31.9712 11.068C31.9379 11.1641 31.8754 11.2475 31.7925 11.3064C31.7096 11.3653 31.6104 11.397 31.5087 11.3969Z" fill="#282E6A"/>
<path d="M32.1687 11.1384C31.6836 9.13477 33.9815 5.27754 37.2323 4.18164L39.0115 6.63507C37.6037 9.19719 35.3227 10.6983 32.1687 11.1384Z" fill="white"/>
<g opacity="0.3">
<path d="M32.827 11.0286C33.0016 8.96618 35.0462 5.98105 37.8105 4.97754L39.0122 6.63458C37.7025 9.01502 35.6408 10.4797 32.827 11.0286Z" fill="#282E6A"/>
</g>
<path d="M58.7909 38.5967C57.0053 36.0519 55.0044 33.4985 52.8431 30.9747C48.8377 26.3016 44.2803 21.7292 39.497 17.499C37.7155 15.922 35.9016 14.3941 34.0731 12.926C33.2294 12.2469 32.3745 11.5743 31.5085 10.9082C32.7966 11.6651 35.2968 10.7605 37.372 8.70976C38.1393 7.95219 38.7527 7.13273 39.1799 6.33511C39.9001 4.99797 40.104 3.72354 39.6585 2.90479C41.6718 5.64746 43.8042 8.3483 46.0295 10.9617C50.0412 15.6784 54.3536 20.1163 58.8079 24.0282C61.498 26.392 64.2411 28.5636 66.9998 30.4876C68.0945 31.5951 67.3256 34.1515 65.2929 36.3262C65.1916 36.4346 65.087 36.5436 64.9787 36.6497C62.7117 38.8895 59.9398 39.7606 58.7909 38.5967Z" fill="white"/>
<g opacity="0.3">
<path d="M46.5472 13.2281C49.6127 16.7271 52.8385 20.0541 56.1577 23.1029C56.2829 23.2175 56.3773 23.3617 56.4323 23.5222C56.4872 23.6828 56.5011 23.8546 56.4724 24.0218C56.4438 24.1891 56.3737 24.3465 56.2685 24.4796C56.1632 24.6128 56.0263 24.7174 55.8702 24.7839C55.0338 25.1411 54.3632 25.6004 53.8586 26.1619C53.4245 26.6417 53.1041 27.2131 52.9211 27.8337C53.44 28.4173 53.9516 29.003 54.4559 29.591C56.6174 32.1136 58.6177 34.6673 60.4032 37.2124C61.3227 38.1415 63.2788 37.7718 65.1844 36.4408C65.1165 36.5114 65.0491 36.5807 64.9788 36.6502C64.6999 36.9259 64.4066 37.1865 64.1002 37.431C62.0372 39.0767 59.7947 39.6146 58.7915 38.597C57.006 36.0519 55.0039 33.499 52.8429 30.9751C48.8381 26.3014 44.2808 21.7292 39.4967 17.4989C37.7155 15.9228 35.9016 14.3943 34.0731 12.9259C33.5994 12.5453 33.1228 12.1668 32.6433 11.7904C32.2678 11.4957 31.8894 11.2017 31.5083 10.9084C32.2443 11.3407 33.3744 11.2314 34.596 10.675C34.9615 10.9624 35.3249 11.2514 35.6861 11.5418C37.5146 13.0102 39.3224 14.5345 41.1097 16.1148C41.4504 16.4149 41.7882 16.7182 42.1268 17.0233C42.6017 16.8528 43.0519 16.62 43.4656 16.3309C44.3741 15.6879 45.0814 14.7486 45.5322 13.4341C45.6816 12.9984 46.2437 12.8817 46.5472 13.2281Z" fill="#282E6A"/>
</g>
<path d="M60.2067 39.6327C59.4741 39.6327 58.862 39.4068 58.4224 38.9618C58.4021 38.9412 58.3836 38.919 58.367 38.8954C52.3521 30.3308 43.6093 21.2513 33.7491 13.3296C32.9154 12.6597 32.0553 11.983 31.1928 11.3185C31.0883 11.238 31.0185 11.1208 30.9975 10.9906C30.9765 10.8604 31.0059 10.7271 31.0797 10.6178C31.1535 10.5085 31.2663 10.4315 31.3949 10.4024C31.5235 10.3734 31.6584 10.3944 31.7721 10.4613C32.7241 11.0214 34.9427 10.3816 37.0082 8.34087C37.7145 7.64302 38.3079 6.86469 38.7242 6.08998C39.371 4.88894 39.5502 3.79101 39.2036 3.15259C39.1409 3.03714 39.1243 2.90219 39.1574 2.77503C39.1904 2.64787 39.2704 2.53799 39.3814 2.46761C39.4923 2.39723 39.6258 2.3716 39.7549 2.39592C39.884 2.42023 39.9991 2.49266 40.0768 2.59856C48.3047 13.8049 57.9714 23.5585 67.2961 30.0624C67.322 30.0805 67.3461 30.1008 67.3683 30.1232C68.6675 31.4382 67.9377 34.257 65.6707 36.6802C65.5677 36.7917 65.4565 36.9065 65.3425 37.0191L65.3424 37.0193C64.189 38.1589 62.8675 39.0024 61.6214 39.3944C61.1149 39.5538 60.6397 39.6327 60.2067 39.6327ZM59.1877 38.2602C59.6015 38.6473 60.3715 38.7009 61.3103 38.4056C62.4021 38.062 63.5754 37.3079 64.6138 36.2819C64.7168 36.1801 64.817 36.0765 64.9117 35.9742C66.7101 34.0519 67.4835 31.7854 66.6602 30.8828C57.6701 24.6033 48.3743 15.3447 40.3377 4.68575C40.2276 5.2789 39.9929 5.92049 39.637 6.5811C39.1728 7.44511 38.5155 8.30877 37.7368 9.07827C36.3021 10.4957 34.6669 11.3981 33.2772 11.629C33.6547 11.9267 34.0284 12.2242 34.3984 12.5215C44.3173 20.4904 53.1192 29.6298 59.1877 38.2602Z" fill="#282E6A"/>
<path d="M48.6374 26.2943L44.6812 22.29C47.0457 20.6329 49.1142 18.5892 50.7997 16.2449L54.756 20.2491C53.1076 22.8487 51.1082 24.9238 48.6374 26.2943Z" fill="#FF5722"/>
<g opacity="0.57">
<path d="M46.0859 21.2292C45.6565 21.622 45.2124 21.9999 44.7535 22.3629L44.6803 22.2894C45.1635 21.9498 45.632 21.5965 46.0859 21.2292Z" fill="white"/>
</g>
<g opacity="0.57">
<path d="M50.4863 25.0747C51.639 23.985 52.6619 22.7032 53.5778 21.2605L49.848 17.4849C50.1773 17.0835 50.4933 16.6691 50.7995 16.2446L54.7566 20.2494C53.5401 22.1669 52.1329 23.8004 50.4863 25.0747Z" fill="white"/>
</g>
<g opacity="0.57">
<path d="M46.0859 21.2293C47.3983 20.0306 48.5829 18.699 49.6206 17.2559L49.8479 17.4851C48.7277 18.8607 47.4668 20.1155 46.0859 21.2293Z" fill="white"/>
</g>
<g opacity="0.3">
<path d="M48.6373 26.2944L44.6803 22.2896C45.325 21.8362 45.9451 21.3573 46.5407 20.8528L50.3281 24.686C51.1067 24.2535 51.8437 23.75 52.5297 23.182C51.3797 24.4393 50.0895 25.4894 48.6373 26.2944Z" fill="#282E6A"/>
</g>
<path d="M48.6375 26.8128C48.5689 26.8129 48.501 26.7993 48.4377 26.7728C48.3743 26.7464 48.3169 26.7076 48.2687 26.6588L44.3125 22.6545C44.2595 22.6009 44.2189 22.5364 44.1934 22.4655C44.1679 22.3946 44.1582 22.319 44.165 22.2439C44.1717 22.1689 44.1947 22.0962 44.2324 22.031C44.2701 21.9657 44.3215 21.9095 44.3832 21.8661C46.699 20.2405 48.7258 18.238 50.3793 15.9421C50.4234 15.8809 50.4802 15.8301 50.5459 15.7932C50.6116 15.7563 50.6845 15.7341 50.7597 15.7283C50.8348 15.7225 50.9103 15.7331 50.9809 15.7594C51.0515 15.7858 51.1155 15.8272 51.1685 15.8808L55.1247 19.8851C55.2071 19.9685 55.2588 20.0774 55.2713 20.194C55.2839 20.3106 55.2565 20.428 55.1937 20.527C53.401 23.354 51.3387 25.3889 48.8888 26.7478C48.812 26.7905 48.7255 26.8129 48.6375 26.8128ZM45.4756 22.3569L48.7258 25.6465C50.7743 24.434 52.5364 22.6851 54.0949 20.3177L50.8568 17.0403C49.3283 19.0623 47.5159 20.853 45.4756 22.3569ZM32.1683 11.6569C32.0521 11.6568 31.9394 11.6176 31.8481 11.5457C31.7568 11.4738 31.6924 11.3734 31.665 11.2604C31.1032 8.9397 33.6217 4.85196 37.0667 3.69054C37.1714 3.65519 37.2847 3.65426 37.39 3.68788C37.4953 3.72149 37.5871 3.7879 37.6519 3.87739L39.4312 6.33081C39.5119 6.4421 39.545 6.58086 39.5233 6.71658C39.5017 6.85229 39.427 6.97385 39.3158 7.05453C39.2045 7.13521 39.0658 7.1684 38.93 7.1468C38.7943 7.1252 38.6727 7.05059 38.592 6.93936L37.0442 4.80517C34.1601 5.99212 32.2874 9.42598 32.6725 11.0165C32.6909 11.0928 32.6918 11.1722 32.6751 11.2489C32.6583 11.3255 32.6244 11.3974 32.5758 11.459C32.5273 11.5207 32.4654 11.5705 32.3948 11.6048C32.3242 11.6391 32.2468 11.6569 32.1683 11.6569Z" fill="#282E6A"/>
<path d="M38.2825 56.2865H31.6722C31.5653 56.2862 31.4629 56.2435 31.3875 56.1678C31.312 56.0922 31.2697 55.9897 31.2697 55.8828C31.2697 55.776 31.312 55.6735 31.3875 55.5978C31.4629 55.5221 31.5653 55.4795 31.6722 55.4792H38.2825C38.3895 55.4792 38.4922 55.5217 38.5679 55.5974C38.6436 55.6731 38.6861 55.7758 38.6861 55.8828C38.6861 55.9899 38.6436 56.0925 38.5679 56.1682C38.4922 56.2439 38.3895 56.2865 38.2825 56.2865ZM34.3987 53.8826C34.3417 53.8826 34.2853 53.8706 34.2333 53.8472C34.1813 53.8238 34.1348 53.7897 34.097 53.7471L31.9445 51.3255C31.8734 51.2455 31.837 51.1405 31.8433 51.0337C31.8496 50.9268 31.898 50.8268 31.9781 50.7557C32.0581 50.6846 32.163 50.6482 32.2699 50.6545C32.3768 50.6608 32.4767 50.7093 32.5478 50.7893L34.3878 52.8593L38.1387 48.3307C38.1725 48.2899 38.214 48.2561 38.2609 48.2312C38.3078 48.2064 38.3591 48.1911 38.4118 48.1861C38.4646 48.1811 38.5179 48.1866 38.5686 48.2022C38.6192 48.2178 38.6663 48.2433 38.7072 48.2771C38.748 48.3109 38.7818 48.3524 38.8066 48.3993C38.8313 48.4462 38.8466 48.4975 38.8516 48.5503C38.8565 48.6031 38.851 48.6563 38.8354 48.707C38.8198 48.7576 38.7943 48.8047 38.7604 48.8455L34.7095 53.7364C34.6724 53.7812 34.626 53.8175 34.5736 53.8427C34.5211 53.8679 34.4639 53.8815 34.4057 53.8826C34.4034 53.8826 34.401 53.8826 34.3987 53.8826ZM20.1154 27.9334H12.8392C12.7213 27.9334 12.6083 27.8866 12.525 27.8033C12.4417 27.72 12.3949 27.607 12.3949 27.4892C12.3949 27.3713 12.4417 27.2583 12.525 27.175C12.6083 27.0917 12.7213 27.0449 12.8392 27.0449H20.1154C20.2332 27.0449 20.3462 27.0917 20.4296 27.175C20.5129 27.2583 20.5597 27.3713 20.5597 27.4892C20.5597 27.607 20.5129 27.72 20.4296 27.8033C20.3462 27.8866 20.2332 27.9334 20.1154 27.9334ZM30.4234 31.305H12.8392C12.7213 31.305 12.6083 31.2582 12.525 31.1748C12.4417 31.0915 12.3949 30.9785 12.3949 30.8607C12.3949 30.7429 12.4417 30.6299 12.525 30.5466C12.6083 30.4632 12.7213 30.4164 12.8392 30.4164H30.4234C30.5412 30.4164 30.6542 30.4632 30.7376 30.5466C30.8209 30.6299 30.8677 30.7429 30.8677 30.8607C30.8677 30.9785 30.8209 31.0915 30.7376 31.1748C30.6542 31.2582 30.5412 31.305 30.4234 31.305ZM30.4234 34.6764H12.8392C12.7213 34.6764 12.6083 34.6296 12.525 34.5463C12.4417 34.463 12.3949 34.35 12.3949 34.2321C12.3949 34.1143 12.4417 34.0013 12.525 33.918C12.6083 33.8347 12.7213 33.7879 12.8392 33.7879H30.4234C30.5412 33.7879 30.6542 33.8347 30.7376 33.918C30.8209 34.0013 30.8677 34.1143 30.8677 34.2321C30.8677 34.35 30.8209 34.463 30.7376 34.5463C30.6542 34.6296 30.5412 34.6764 30.4234 34.6764ZM25.1684 38.0479H12.8392C12.7213 38.0479 12.6083 38.0011 12.525 37.9177C12.4417 37.8344 12.3949 37.7214 12.3949 37.6036C12.3949 37.4858 12.4417 37.3728 12.525 37.2895C12.6083 37.2061 12.7213 37.1593 12.8392 37.1593H25.1684C25.2862 37.1593 25.3992 37.2061 25.4825 37.2895C25.5659 37.3728 25.6127 37.4858 25.6127 37.6036C25.6127 37.7214 25.5659 37.8344 25.4825 37.9177C25.3992 38.0011 25.2862 38.0479 25.1684 38.0479ZM5.31901 11.0213C5.26127 11.0212 5.20434 11.0077 5.15277 10.9818C5.10119 10.9558 5.05638 10.9182 5.02193 10.8719C4.98747 10.8256 4.96432 10.7718 4.95432 10.715C4.94432 10.6581 4.94775 10.5997 4.96433 10.5444L5.61952 8.36567C5.63352 8.31911 5.65655 8.27577 5.68729 8.23811C5.71804 8.20046 5.75591 8.16922 5.79872 8.1462C5.84154 8.12318 5.88847 8.10881 5.93684 8.10392C5.98521 8.09904 6.03407 8.10373 6.08063 8.11773C6.12719 8.13172 6.17053 8.15475 6.20819 8.1855C6.24585 8.21625 6.27708 8.25411 6.3001 8.29693C6.32313 8.33975 6.33749 8.38668 6.34238 8.43505C6.34726 8.48342 6.34257 8.53228 6.32858 8.57884L5.67339 10.7576C5.65049 10.8338 5.60366 10.9006 5.53983 10.948C5.476 10.9955 5.39857 11.0212 5.31901 11.0213ZM3.38316 17.4588C3.32543 17.4588 3.2685 17.4453 3.21692 17.4193C3.16534 17.3934 3.12054 17.3558 3.08608 17.3094C3.05163 17.2631 3.02848 17.2094 3.01848 17.1525C3.00848 17.0957 3.01191 17.0372 3.02849 16.9819L3.68368 14.8032C3.712 14.7093 3.77647 14.6304 3.86292 14.5839C3.94937 14.5375 4.05073 14.5273 4.14471 14.5555C4.23869 14.5838 4.31761 14.6482 4.36412 14.7346C4.41063 14.821 4.42092 14.9224 4.39273 15.0164L3.73755 17.1951C3.71465 17.2713 3.66781 17.3381 3.60398 17.3856C3.54016 17.4331 3.46273 17.4588 3.38316 17.4588ZM6.63733 12.0978C6.55484 12.0979 6.4747 12.0704 6.40961 12.0197C6.34453 11.969 6.29823 11.898 6.27806 11.818C6.2579 11.7381 6.26502 11.6536 6.2983 11.5781C6.33158 11.5027 6.38911 11.4405 6.46177 11.4014L8.46565 10.3241C8.55214 10.2776 8.65355 10.2674 8.74757 10.2957C8.84159 10.324 8.92052 10.3884 8.967 10.4749C9.01348 10.5614 9.02371 10.6628 8.99543 10.7568C8.96715 10.8509 8.90268 10.9298 8.8162 10.9763L6.81232 12.0536C6.75855 12.0826 6.69842 12.0978 6.63733 12.0978ZM0.716427 15.2809C0.633936 15.2809 0.55379 15.2534 0.488704 15.2028C0.423618 15.1521 0.37732 15.0811 0.357155 15.0011C0.33699 14.9211 0.344114 14.8367 0.377394 14.7612C0.410674 14.6858 0.468206 14.6236 0.540862 14.5845L2.54475 13.5072C2.63124 13.4607 2.73264 13.4505 2.82666 13.4788C2.92068 13.5071 2.99961 13.5715 3.04609 13.658C3.09258 13.7445 3.1028 13.8459 3.07452 13.9399C3.04624 14.034 2.98178 14.1129 2.8953 14.1594L0.891412 15.2367C0.83764 15.2657 0.777514 15.2809 0.716427 15.2809ZM8.98678 14.4462C8.95062 14.4462 8.91467 14.4409 8.88006 14.4305L6.70133 13.7753C6.6073 13.747 6.52835 13.6826 6.48185 13.5961C6.43536 13.5096 6.42511 13.4082 6.45338 13.3142C6.48165 13.2201 6.54611 13.1412 6.63258 13.0947C6.71906 13.0482 6.82046 13.038 6.91449 13.0662L9.09322 13.7214C9.17829 13.747 9.25133 13.8023 9.299 13.8773C9.34668 13.9523 9.36581 14.0419 9.3529 14.1298C9.33999 14.2177 9.29591 14.298 9.22869 14.3561C9.16148 14.4142 9.07562 14.4462 8.98678 14.4462ZM2.5493 12.5103C2.51315 12.5103 2.47719 12.505 2.44257 12.4946L0.263776 11.8394C0.217199 11.8254 0.173835 11.8024 0.136157 11.7716C0.0984789 11.7409 0.0672274 11.703 0.0441876 11.6602C0.0211479 11.6174 0.00677029 11.5704 0.00187814 11.522C-0.00301402 11.4737 0.00167393 11.4248 0.0156746 11.3782C0.0296753 11.3316 0.0527138 11.2883 0.0834746 11.2506C0.114235 11.213 0.152117 11.1817 0.194953 11.1587C0.237788 11.1357 0.284738 11.1213 0.333123 11.1165C0.381508 11.1116 0.430379 11.1163 0.476943 11.1303L2.65574 11.7855C2.74082 11.8111 2.81385 11.8664 2.86153 11.9414C2.9092 12.0164 2.92833 12.106 2.91542 12.1939C2.90251 12.2818 2.85843 12.3621 2.79122 12.4202C2.72401 12.4783 2.63814 12.5103 2.5493 12.5103ZM6.80906 17.113C6.74211 17.1131 6.67639 17.095 6.61891 17.0606C6.56143 17.0263 6.51434 16.977 6.48266 16.918L5.40534 14.9141C5.38232 14.8713 5.36795 14.8244 5.36307 14.776C5.35819 14.7276 5.36289 14.6788 5.37689 14.6322C5.3909 14.5856 5.41393 14.5423 5.44469 14.5046C5.47545 14.467 5.51333 14.4357 5.55616 14.4127C5.59899 14.3897 5.64593 14.3753 5.69431 14.3705C5.74268 14.3656 5.79155 14.3703 5.83811 14.3843C5.88467 14.3983 5.92802 14.4214 5.96567 14.4521C6.00332 14.4829 6.03455 14.5208 6.05756 14.5636L7.13489 16.5675C7.16517 16.6239 7.18033 16.6871 7.17887 16.7511C7.17742 16.8151 7.1594 16.8776 7.12658 16.9326C7.09377 16.9875 7.04726 17.0331 6.99161 17.0647C6.93597 17.0963 6.87307 17.113 6.80906 17.113ZM3.6259 11.1922C3.55895 11.1923 3.49323 11.1742 3.43575 11.1398C3.37827 11.1055 3.33118 11.0562 3.2995 10.9972L2.22218 8.99331C2.19916 8.95048 2.1848 8.90354 2.17993 8.85517C2.17505 8.8068 2.17975 8.75793 2.19375 8.71138C2.20776 8.66482 2.2308 8.62147 2.26156 8.58382C2.29231 8.54617 2.33018 8.51494 2.37301 8.49192C2.41584 8.4689 2.46278 8.45455 2.51115 8.44967C2.55952 8.44479 2.60839 8.44949 2.65494 8.4635C2.7015 8.4775 2.74485 8.50054 2.7825 8.5313C2.82015 8.56206 2.85138 8.59993 2.8744 8.64276L3.95172 10.6466C3.98201 10.703 3.99717 10.7663 3.99571 10.8303C3.99426 10.8943 3.97624 10.9568 3.94342 11.0118C3.9106 11.0667 3.8641 11.1122 3.80845 11.1438C3.7528 11.1755 3.68991 11.1921 3.6259 11.1922ZM68.9622 12.7539C68.9044 12.7539 68.8475 12.7404 68.7959 12.7144C68.7444 12.6885 68.6996 12.6509 68.6651 12.6045C68.6306 12.5582 68.6075 12.5045 68.5975 12.4476C68.5875 12.3908 68.5909 12.3324 68.6075 12.2771L69.2627 10.0983C69.2767 10.0517 69.2997 10.0083 69.3304 9.97063C69.3612 9.93296 69.399 9.9017 69.4419 9.87866C69.4847 9.85562 69.5316 9.84125 69.58 9.83636C69.6284 9.83146 69.6773 9.83615 69.7238 9.85015C69.7704 9.86415 69.8138 9.88719 69.8514 9.91795C69.8891 9.94871 69.9203 9.98659 69.9434 10.0294C69.9664 10.0723 69.9807 10.1192 69.9856 10.1676C69.9905 10.216 69.9858 10.2649 69.9717 10.3114L69.3166 12.4902C69.2937 12.5664 69.2468 12.6332 69.183 12.6807C69.1192 12.7282 69.0417 12.7539 68.9622 12.7539ZM67.0263 19.1914C66.9685 19.1914 66.9116 19.1779 66.86 19.1519C66.8084 19.126 66.7636 19.0884 66.7292 19.042C66.6947 18.9957 66.6716 18.942 66.6616 18.8851C66.6516 18.8282 66.655 18.7698 66.6716 18.7145L67.3268 16.5358C67.3551 16.4418 67.4195 16.3629 67.506 16.3165C67.5925 16.27 67.6938 16.2598 67.7878 16.288C67.8818 16.3163 67.9608 16.3807 68.0073 16.4671C68.0538 16.5536 68.064 16.655 68.0358 16.749L67.3806 18.9277C67.3577 19.0039 67.3109 19.0707 67.2471 19.1182C67.1833 19.1657 67.1058 19.1914 67.0263 19.1914ZM70.2804 13.8304C70.1979 13.8304 70.1178 13.8029 70.0527 13.7523C69.9876 13.7016 69.9413 13.6306 69.9212 13.5506C69.901 13.4706 69.9081 13.3862 69.9414 13.3107C69.9747 13.2352 70.0322 13.173 70.1049 13.134L72.1088 12.0567C72.1953 12.0102 72.2967 12 72.3907 12.0283C72.4848 12.0566 72.5637 12.121 72.6102 12.2075C72.6567 12.294 72.6669 12.3954 72.6386 12.4894C72.6103 12.5834 72.5459 12.6624 72.4594 12.7089L70.4554 13.7862C70.4016 13.8152 70.3415 13.8304 70.2804 13.8304ZM64.3596 17.0135C64.2771 17.0136 64.197 16.9861 64.1319 16.9354C64.0668 16.8847 64.0205 16.8138 64.0003 16.7338C63.9802 16.6538 63.9873 16.5694 64.0206 16.4939C64.0538 16.4184 64.1114 16.3562 64.184 16.3171L66.1879 15.2398C66.2744 15.1933 66.3758 15.1831 66.4698 15.2114C66.5638 15.2397 66.6428 15.3042 66.6893 15.3907C66.7357 15.4772 66.746 15.5786 66.7177 15.6726C66.6894 15.7666 66.6249 15.8456 66.5385 15.892L64.5346 16.9694C64.4808 16.9984 64.4207 17.0135 64.3596 17.0135ZM72.63 16.1788C72.5938 16.1788 72.5578 16.1735 72.5232 16.1631L70.3445 15.5079C70.2505 15.4796 70.1715 15.4151 70.125 15.3287C70.0785 15.2422 70.0683 15.1408 70.0965 15.0468C70.1248 14.9527 70.1893 14.8738 70.2758 14.8273C70.3622 14.7808 70.4636 14.7705 70.5577 14.7988L72.7364 15.454C72.8215 15.4796 72.8945 15.5349 72.9422 15.6099C72.9898 15.6848 73.009 15.7745 72.9961 15.8624C72.9832 15.9503 72.9391 16.0306 72.8719 16.0887C72.8046 16.1468 72.7188 16.1788 72.63 16.1788ZM66.1924 14.243C66.1562 14.243 66.1203 14.2377 66.0857 14.2272L63.9069 13.572C63.8604 13.558 63.817 13.535 63.7793 13.5043C63.7416 13.4735 63.7104 13.4357 63.6874 13.3928C63.6643 13.35 63.6499 13.3031 63.645 13.2547C63.6402 13.2063 63.6448 13.1574 63.6588 13.1109C63.6728 13.0643 63.6959 13.0209 63.7266 12.9833C63.7574 12.9456 63.7953 12.9144 63.8381 12.8914C63.881 12.8683 63.9279 12.854 63.9763 12.8491C64.0247 12.8442 64.0735 12.8489 64.1201 12.863L66.2988 13.5182C66.3839 13.5437 66.4569 13.5991 66.5046 13.674C66.5523 13.749 66.5714 13.8386 66.5585 13.9265C66.5456 14.0144 66.5015 14.0947 66.4343 14.1528C66.3671 14.2109 66.2812 14.2429 66.1924 14.243ZM70.4522 18.8457C70.3852 18.8458 70.3195 18.8276 70.262 18.7933C70.2045 18.759 70.1574 18.7097 70.1258 18.6507L69.0484 16.6468C69.0254 16.604 69.011 16.557 69.0062 16.5087C69.0013 16.4603 69.006 16.4114 69.02 16.3648C69.034 16.3183 69.057 16.2749 69.0878 16.2373C69.1186 16.1996 69.1564 16.1684 69.1993 16.1454C69.2421 16.1224 69.289 16.108 69.3374 16.1031C69.3858 16.0982 69.4346 16.1029 69.4812 16.117C69.5278 16.131 69.5711 16.154 69.6088 16.1848C69.6464 16.2155 69.6777 16.2534 69.7007 16.2962L70.778 18.3001C70.8083 18.3565 70.8234 18.4198 70.822 18.4838C70.8205 18.5478 70.8025 18.6103 70.7697 18.6652C70.7369 18.7202 70.6904 18.7657 70.6347 18.7973C70.5791 18.829 70.5162 18.8456 70.4522 18.8457ZM67.2691 12.9248C67.2021 12.9248 67.1364 12.9067 67.0789 12.8724C67.0214 12.8381 66.9743 12.7888 66.9427 12.7298L65.8653 10.7259C65.8423 10.6831 65.8279 10.6361 65.823 10.5877C65.8181 10.5393 65.8227 10.4904 65.8367 10.4438C65.8507 10.3973 65.8738 10.3539 65.9045 10.3162C65.9353 10.2785 65.9732 10.2473 66.016 10.2242C66.0589 10.2012 66.1059 10.1869 66.1543 10.182C66.2027 10.1771 66.2515 10.1818 66.2981 10.1959C66.3447 10.2099 66.388 10.233 66.4257 10.2638C66.4634 10.2946 66.4946 10.3325 66.5176 10.3753L67.5949 12.3792C67.6252 12.4356 67.6403 12.4989 67.6389 12.5629C67.6374 12.6269 67.6194 12.6894 67.5866 12.7443C67.5538 12.7993 67.5073 12.8448 67.4516 12.8764C67.396 12.9081 67.3331 12.9247 67.2691 12.9248Z" fill="#102770"/>
</svg>
