<svg width="75" height="76" viewBox="0 0 75 76" fill="none" xmlns="http://www.w3.org/2000/svg">
<path d="M36.3883 67.6084C35.8759 67.6103 35.3636 67.9169 35.1102 68.5302C34.9045 69.0312 34.3922 69.3359 33.8588 69.2426L17.6421 66.4065C16.7471 66.2505 15.9357 65.7837 15.3511 65.0882C14.7664 64.3927 14.4459 63.5133 14.446 62.6047V60.5286C14.4465 61.437 14.7672 62.3161 15.3518 63.0115C15.9363 63.7068 16.7473 64.1738 17.6421 64.3304L36.3883 67.6084Z" fill="#FF5722"/>
<g opacity="0.3">
<path d="M36.3883 67.6084C35.8759 67.6103 35.3636 67.9169 35.1102 68.5302C34.9045 69.0312 34.3922 69.3359 33.8588 69.2426L17.6421 66.4065C16.7471 66.2505 15.9357 65.7837 15.3511 65.0882C14.7664 64.3927 14.4459 63.5133 14.446 62.6047V60.5286C14.4465 61.437 14.7672 62.3161 15.3518 63.0115C15.9363 63.7068 16.7473 64.1738 17.6421 64.3304L36.3883 67.6084Z" fill="#102770"/>
</g>
<path d="M34.0541 69.7787C33.9587 69.7786 33.8634 69.7703 33.7693 69.7538L17.5527 66.9177C16.5366 66.7421 15.6154 66.2129 14.9519 65.4236C14.2884 64.6344 13.9254 63.6359 13.9271 62.6048V60.5287C13.9271 60.391 13.9818 60.2591 14.0791 60.1617C14.1764 60.0644 14.3084 60.0098 14.446 60.0098C14.5836 60.0098 14.7156 60.0644 14.8129 60.1617C14.9103 60.2591 14.9649 60.391 14.9649 60.5287C14.9642 61.3153 15.2414 62.0769 15.7477 62.679C16.2539 63.2811 16.9566 63.6849 17.7317 63.8193L36.4776 67.0973C36.6054 67.1197 36.7202 67.189 36.7993 67.2918C36.8785 67.3945 36.9163 67.5232 36.9053 67.6524C36.8944 67.7816 36.8354 67.9021 36.74 67.99C36.6447 68.0779 36.5199 68.1269 36.3902 68.1274C36.044 68.1287 35.7448 68.3534 35.5898 68.7285C35.3245 69.3746 34.7172 69.7787 34.0541 69.7787ZM15.0852 63.4973C15.2534 64.1068 15.5914 64.6559 16.0599 65.0805C16.5284 65.5051 17.108 65.7877 17.7311 65.8952L33.9483 68.7315C34.233 68.7811 34.5134 68.6176 34.6302 68.3333C34.6971 68.17 34.7835 68.0154 34.8874 67.8728L17.5527 64.8415C16.6048 64.677 15.7375 64.2046 15.0852 63.4973Z" fill="#26316B"/>
<path d="M58.34 60.5286V62.6047C58.3406 63.5131 58.0204 64.3925 57.4361 65.088C56.8518 65.7835 56.0407 66.2504 55.1458 66.4065L38.9291 69.2426C38.3939 69.3359 37.8834 69.0312 37.6758 68.5302C37.4225 67.9169 36.912 67.6103 36.3997 67.6084L55.1458 64.3304C56.0404 64.1737 56.8512 63.7067 57.4354 63.0113C58.0196 62.3159 58.34 61.4368 58.34 60.5286Z" fill="#FF5722"/>
<g opacity="0.3">
<path d="M58.34 60.5286V62.6047C58.3406 63.5131 58.0204 64.3925 57.4361 65.088C56.8518 65.7835 56.0407 66.2504 55.1458 66.4065L38.9291 69.2426C38.3939 69.3359 37.8834 69.0312 37.6758 68.5302C37.4225 67.9169 36.912 67.6103 36.3997 67.6084L55.1458 64.3304C56.0404 64.1737 56.8512 63.7067 57.4354 63.0113C58.0196 62.3159 58.34 61.4368 58.34 60.5286Z" fill="#102770"/>
</g>
<path d="M38.735 69.7784C38.0723 69.7784 37.4641 69.375 37.1964 68.729C37.0413 68.3534 36.7428 68.1287 36.3978 68.1274C36.2681 68.1269 36.1432 68.0779 36.0479 67.99C35.9525 67.9021 35.8936 67.7816 35.8826 67.6524C35.8716 67.5232 35.9094 67.3945 35.9886 67.2918C36.0678 67.189 36.1825 67.1197 36.3103 67.0973L55.0565 63.8193C55.8312 63.6846 56.5335 63.2806 57.0394 62.6786C57.5452 62.0765 57.8221 61.315 57.8211 60.5287C57.8211 60.391 57.8758 60.2591 57.9731 60.1617C58.0704 60.0644 58.2024 60.0098 58.34 60.0098C58.4776 60.0098 58.6096 60.0644 58.7069 60.1617C58.8042 60.2591 58.8589 60.391 58.8589 60.5287V62.6048C58.8608 63.6357 58.4981 64.6341 57.8349 65.4234C57.1717 66.2127 56.2507 66.7421 55.2349 66.9178L39.0185 69.7538C38.9249 69.7701 38.8301 69.7784 38.735 69.7784ZM37.8991 67.8731C38.0026 68.0153 38.0887 68.1695 38.1554 68.3322C38.2733 68.6168 38.5541 68.7806 38.8399 68.7315L55.0564 65.8954C55.6791 65.7878 56.2584 65.5053 56.7266 65.0808C57.1948 64.6564 57.5326 64.1076 57.7006 63.4984C57.049 64.205 56.1825 64.6771 55.2354 64.8415L37.8991 67.8731Z" fill="#102770"/>
<path d="M36.394 34.8685V67.6085H36.3883L17.6422 64.3305C16.7473 64.174 15.9363 63.707 15.3518 63.0116C14.7672 62.3163 14.4465 61.4371 14.4461 60.5287V33.6913C14.4453 33.499 14.4702 33.3075 14.5204 33.1218C14.6628 32.5796 15.004 32.1108 15.4761 31.8084C15.9482 31.506 16.5167 31.3922 17.0689 31.4895L36.394 34.8685ZM58.3401 33.6913V60.5287C58.34 61.4369 58.0197 62.3161 57.4355 63.0114C56.8513 63.7068 56.0405 64.1739 55.1459 64.3305L36.3997 67.6085H36.394V34.8685L55.7192 31.4895C56.2711 31.3924 56.8393 31.5064 57.311 31.8088C57.7827 32.1112 58.1236 32.5799 58.2658 33.1218C58.3159 33.3075 58.3409 33.499 58.3401 33.6913Z" fill="#FF5722"/>
<g opacity="0.66">
<path d="M58.3977 33.4895V60.3269C58.3977 61.2351 58.0774 62.1142 57.4931 62.8096C56.9089 63.505 56.0981 63.972 55.2035 64.1287L36.4574 67.4067H36.4517V67.2352L54.2131 64.1287C55.1077 63.972 55.9184 63.505 56.5027 62.8096C57.0869 62.1142 57.4072 61.2351 57.4073 60.3269V33.4895C57.4075 33.3831 57.3998 33.2768 57.3844 33.1714C56.9096 32.8621 56.3349 32.745 55.7768 32.8438L36.4517 36.2228V34.6666L55.6626 31.3086L55.7768 31.2877C56.3287 31.1906 56.8969 31.3046 57.3686 31.607C57.8404 31.9093 58.1812 32.378 58.3234 32.92C58.3735 33.1057 58.3985 33.2972 58.3977 33.4895Z" fill="white"/>
</g>
<path d="M36.394 68.1275C36.3621 68.1275 36.3304 68.1249 36.2989 68.1197L17.5527 64.8417C16.537 64.6655 15.6161 64.1361 14.9527 63.347C14.2893 62.5578 13.9261 61.5597 13.9271 60.5288V33.6914C13.9264 33.4528 13.9576 33.2152 14.0198 32.985C14.3748 31.6168 15.7538 30.7328 17.1583 30.9784L36.4834 34.3573C36.6037 34.3784 36.7127 34.4411 36.7913 34.5346C36.8698 34.6281 36.9129 34.7464 36.9129 34.8685V67.6086C36.9129 67.6767 36.8995 67.7442 36.8734 67.8072C36.8473 67.8701 36.8091 67.9273 36.7609 67.9755C36.7127 68.0237 36.6555 68.0619 36.5926 68.088C36.5296 68.1141 36.4621 68.1275 36.394 68.1275ZM16.6852 31.9752C15.9185 31.9752 15.2195 32.4935 15.0226 33.2523C14.9837 33.3954 14.9644 33.5431 14.9649 33.6914V60.5288C14.9642 61.3154 15.2414 62.077 15.7477 62.6791C16.2539 63.2812 16.9566 63.685 17.7317 63.8194L35.8751 66.9921V35.3046L16.9795 32.0007C16.8823 31.9837 16.7839 31.9751 16.6852 31.9752Z" fill="#102770"/>
<path d="M36.3997 68.1274C36.2615 68.1277 36.1288 68.0732 36.0305 67.9761C35.9323 67.8789 35.8764 67.7468 35.8751 67.6085V34.8684C35.8751 34.7463 35.9182 34.6281 35.9967 34.5346C36.0753 34.4411 36.1844 34.3783 36.3047 34.3573L55.6298 30.9784C57.0332 30.7329 58.4112 31.6167 58.768 32.9916C58.8293 33.2198 58.8599 33.4551 58.859 33.6914V60.5287C58.8603 61.5594 58.4974 62.5574 57.8344 63.3465C57.1714 64.1357 56.251 64.6652 55.2355 64.8416L36.4891 68.1197C36.4596 68.1249 36.4297 68.1274 36.3997 68.1274ZM36.9129 35.3046V66.9921L55.0566 63.8193C55.8313 63.6847 56.5336 63.2807 57.0395 62.6786C57.5453 62.0765 57.8222 61.3151 57.8212 60.5287V33.6914C57.8219 33.5454 57.8031 33.3999 57.7653 33.2589C57.6557 32.8425 57.3939 32.4823 57.0317 32.2493C56.6695 32.0164 56.2332 31.9277 55.8088 32.0007L36.9129 35.3046Z" fill="#102770"/>
<path d="M36.3936 64.5531L18.0425 61.4543C17.5904 61.3779 17.18 61.1439 16.884 60.7938C16.5881 60.4436 16.4257 59.9999 16.4257 59.5414V32.3823C16.4257 32.0992 16.4876 31.8196 16.6071 31.5631C16.7266 31.3065 16.9009 31.0792 17.1176 30.8971C17.3343 30.715 17.5882 30.5826 17.8615 30.509C18.1348 30.4355 18.4209 30.4226 18.6997 30.4714L36.3936 33.5655L36.3936 64.5531Z" fill="white"/>
<g opacity="0.3">
<path d="M36.394 33.8513V63.3381C36.3918 63.3338 36.3899 63.3294 36.3883 63.3248L31.9732 62.5629C31.865 62.5443 31.7668 62.488 31.6961 62.404C31.6253 62.32 31.5865 62.2137 31.5865 62.1039V34.5997C31.5865 34.5214 31.6035 34.444 31.6363 34.3729C31.6691 34.3018 31.7169 34.2386 31.7764 34.1878C31.8359 34.1369 31.9058 34.0995 31.9811 34.0782C32.0565 34.057 32.1355 34.0523 32.2129 34.0645L36.135 34.6837C36.135 34.6837 36.3388 34.217 36.394 33.8513Z" fill="#102770"/>
</g>
<g opacity="0.3">
<path d="M36.2643 64.9014V66.1262L16.1929 62.5025C15.7407 62.4257 15.3303 62.1914 15.0343 61.841C14.7384 61.4907 14.5759 61.0469 14.5758 60.5882V33.429C14.576 33.1464 14.638 32.8672 14.7573 32.611C14.8767 32.3548 15.0506 32.1278 15.2668 31.9459C15.4831 31.7639 15.7365 31.6314 16.0093 31.5576C16.2821 31.4838 16.5677 31.4704 16.8462 31.5186C16.6545 31.8252 16.5535 32.1798 16.5548 32.5414V59.7006C16.555 60.1591 16.7175 60.6026 17.0135 60.9526C17.3095 61.3027 17.7199 61.5366 18.1719 61.6129L36.2643 64.9014Z" fill="#102770"/>
</g>
<path d="M56.3613 32.382V59.5505C56.3612 60.0072 56.2001 60.4492 55.9064 60.7988C55.6127 61.1484 55.2051 61.3834 54.7554 61.4623L36.3936 64.6729V33.5657L41.5999 32.6554L45.2782 32.0114L54.0873 30.4715C54.3662 30.4219 54.6526 30.4342 54.9262 30.5075C55.1998 30.5807 55.454 30.7131 55.6708 30.8953C55.8877 31.0775 56.0619 31.3051 56.1812 31.5619C56.3005 31.8188 56.362 32.0988 56.3613 32.382Z" fill="white"/>
<g opacity="0.3">
<path d="M55.4354 61.2029C55.4351 61.6593 55.2739 62.101 54.9803 62.4504C54.6866 62.7998 54.2793 63.0345 53.8297 63.1133L36.7254 66.1056L36.5654 64.6428L54.7554 61.4619C54.9964 61.4194 55.2272 61.3315 55.4354 61.2029Z" fill="#102770"/>
</g>
<g opacity="0.3">
<path d="M50.5252 32.2327C50.6552 32.2102 50.7884 32.2164 50.9157 32.2509C51.043 32.2853 51.1612 32.3471 51.2621 32.4321C51.3629 32.517 51.444 32.6229 51.4997 32.7425C51.5553 32.862 51.5841 32.9923 51.5841 33.1241V59.1707C51.5838 59.6271 51.4227 60.0688 51.129 60.4181C50.8354 60.7675 50.428 61.0023 49.9784 61.0811L36.394 63.4563V34.678L50.5252 32.2327Z" fill="#102770"/>
</g>
<path d="M36.3935 64.9707C36.3702 64.9707 36.3469 64.9687 36.324 64.9648L17.9729 61.866C17.423 61.7745 16.9235 61.4905 16.5636 61.0647C16.2037 60.6389 16.0068 60.0991 16.0081 59.5416V32.3824C16.0081 32.0384 16.0833 31.6986 16.2286 31.3868C16.3738 31.0751 16.5855 30.7988 16.8489 30.5775C17.1122 30.3563 17.4207 30.1953 17.7529 30.1059C18.085 30.0165 18.4327 30.0009 18.7715 30.0601L36.4654 33.1543C36.5622 33.1713 36.6499 33.2218 36.7131 33.297C36.7763 33.3722 36.811 33.4673 36.811 33.5656V64.5532C36.811 64.6639 36.767 64.7701 36.6887 64.8484C36.6104 64.9267 36.5042 64.9707 36.3935 64.9707ZM18.3643 30.8598C17.9607 30.8602 17.5738 31.0208 17.2886 31.3063C17.0034 31.5918 16.8431 31.9788 16.8431 32.3824V59.5416C16.8423 59.9016 16.9694 60.2502 17.2018 60.5252C17.4343 60.8001 17.7568 60.9836 18.112 61.0427L35.976 64.0593V33.9164L18.6277 30.8826C18.5408 30.8674 18.4526 30.8598 18.3643 30.8598Z" fill="#102770"/>
<path d="M36.3935 65.0903C36.3386 65.0904 36.2843 65.0796 36.2337 65.0586C36.183 65.0376 36.137 65.0068 36.0982 64.9681C36.0594 64.9293 36.0287 64.8833 36.0077 64.8326C35.9867 64.782 35.9759 64.7277 35.976 64.6728V33.5658C35.9759 33.4675 36.0106 33.3724 36.0738 33.2972C36.137 33.222 36.2248 33.1714 36.3216 33.1545L54.0154 30.0602C54.3542 30.0002 54.7022 30.0153 55.0346 30.1043C55.367 30.1934 55.6759 30.3543 55.9394 30.5757C56.2028 30.7971 56.4146 31.0736 56.5596 31.3857C56.7046 31.6978 56.7794 32.0379 56.7788 32.382V59.5505C56.7794 60.1055 56.584 60.643 56.227 61.068C55.87 61.493 55.3744 61.7783 54.8275 61.8736L36.4654 65.0841C36.4416 65.0883 36.4176 65.0904 36.3935 65.0903ZM36.811 33.9166V64.176L54.6834 61.051C55.0366 60.9895 55.3567 60.8052 55.5873 60.5307C55.8179 60.2562 55.9441 59.909 55.9437 59.5505V32.382C55.945 32.1279 55.882 31.8775 55.7605 31.6543C55.6074 31.3746 55.3707 31.1499 55.0835 31.0115C54.7963 30.8732 54.473 30.8281 54.1589 30.8827L36.811 33.9166Z" fill="#102770"/>
<g opacity="0.5">
<path d="M26.7909 37.1579C26.771 37.1579 26.7512 37.1563 26.7316 37.1529L18.8698 35.8031C18.7789 35.7874 18.6979 35.7363 18.6447 35.661C18.5915 35.5857 18.5703 35.4923 18.5859 35.4014C18.6015 35.3105 18.6526 35.2295 18.7279 35.1762C18.8032 35.1229 18.8966 35.1017 18.9875 35.1173L26.8493 36.4671C26.9352 36.4819 27.0124 36.5283 27.0657 36.5972C27.119 36.6661 27.1445 36.7525 27.1372 36.8394C27.1298 36.9262 27.0902 37.0071 27.0261 37.0661C26.9619 37.125 26.878 37.1578 26.7909 37.1579Z" fill="#102770"/>
</g>
<g opacity="0.5">
<path d="M26.7909 47.7258C26.771 47.7258 26.7512 47.7241 26.7316 47.7208L18.8698 46.3709C18.7789 46.3553 18.6979 46.3042 18.6447 46.2288C18.5915 46.1535 18.5703 46.0601 18.5859 45.9692C18.6015 45.8783 18.6526 45.7973 18.7279 45.7441C18.8032 45.6908 18.8966 45.6696 18.9875 45.6852L26.8493 47.035C26.9352 47.0497 27.0124 47.0961 27.0657 47.1651C27.119 47.234 27.1445 47.3204 27.1371 47.4072C27.1298 47.494 27.0901 47.5749 27.026 47.6339C26.9619 47.6929 26.878 47.7257 26.7909 47.7258Z" fill="#102770"/>
</g>
<g opacity="0.5">
<path d="M31.4499 41.8002C31.4297 41.8002 31.4095 41.7985 31.3896 41.7951L18.7892 39.5916C18.7442 39.5837 18.7012 39.5671 18.6626 39.5426C18.6241 39.5181 18.5907 39.4862 18.5644 39.4488C18.5382 39.4114 18.5195 39.3692 18.5096 39.3246C18.4996 39.28 18.4986 39.2339 18.5064 39.1889C18.5223 39.098 18.5737 39.0171 18.6492 38.9641C18.6866 38.9378 18.7288 38.9192 18.7734 38.9092C18.818 38.8993 18.8641 38.8982 18.9091 38.9061L31.5094 41.1095C31.5952 41.1246 31.6721 41.1711 31.7252 41.2401C31.7783 41.3091 31.8036 41.3955 31.7961 41.4822C31.7886 41.5689 31.7489 41.6496 31.6848 41.7085C31.6208 41.7674 31.5369 41.8001 31.4499 41.8002Z" fill="#102770"/>
</g>
<g opacity="0.5">
<path d="M32.6707 44.1752C32.6508 44.1752 32.6309 44.1735 32.6113 44.1702L18.7902 41.7951C18.7452 41.7873 18.7021 41.7708 18.6635 41.7464C18.6248 41.722 18.5914 41.6903 18.565 41.653C18.5386 41.6157 18.5199 41.5735 18.5098 41.529C18.4997 41.4844 18.4985 41.4383 18.5062 41.3933C18.514 41.3482 18.5305 41.3052 18.5549 41.2665C18.5793 41.2279 18.611 41.1944 18.6483 41.168C18.6856 41.1417 18.7278 41.1229 18.7724 41.1128C18.8169 41.1027 18.863 41.1015 18.9081 41.1093L32.7292 43.4844C32.815 43.4991 32.8922 43.5456 32.9455 43.6145C32.9988 43.6834 33.0243 43.7698 33.0169 43.8567C33.0096 43.9435 32.9699 44.0244 32.9058 44.0833C32.8417 44.1423 32.7578 44.1751 32.6707 44.1752Z" fill="#102770"/>
</g>
<g opacity="0.5">
<path d="M33.5361 58.2461C33.5161 58.2461 33.4962 58.2444 33.4765 58.2411L25.9428 56.9384C25.8977 56.9306 25.8547 56.9141 25.8161 56.8897C25.7774 56.8652 25.744 56.8334 25.7177 56.7961C25.6913 56.7588 25.6726 56.7166 25.6626 56.672C25.6525 56.6274 25.6514 56.5813 25.6591 56.5363C25.6669 56.4913 25.6835 56.4482 25.7079 56.4096C25.7323 56.3709 25.7641 56.3375 25.8015 56.3112C25.8388 56.2848 25.881 56.2661 25.9256 56.2561C25.9701 56.246 26.0163 56.2449 26.0613 56.2526L33.595 57.5553C33.6808 57.5702 33.7579 57.6166 33.8111 57.6856C33.8643 57.7545 33.8898 57.8409 33.8824 57.9277C33.875 58.0145 33.8353 58.0953 33.7712 58.1543C33.7071 58.2133 33.6232 58.246 33.5361 58.2461Z" fill="#102770"/>
</g>
<g opacity="0.5">
<path d="M31.4499 46.2072C31.4297 46.2072 31.4095 46.2055 31.3896 46.202L18.7892 43.9986C18.6983 43.9827 18.6175 43.9313 18.5644 43.8558C18.5114 43.7803 18.4905 43.6868 18.5064 43.5959C18.5223 43.505 18.5737 43.4241 18.6492 43.3711C18.7247 43.318 18.8182 43.2972 18.9091 43.3131L31.5094 45.5165C31.5952 45.5315 31.6721 45.5781 31.7252 45.6471C31.7783 45.7161 31.8036 45.8024 31.7961 45.8891C31.7886 45.9759 31.7489 46.0566 31.6849 46.1155C31.6208 46.1744 31.5369 46.2071 31.4499 46.2072Z" fill="#102770"/>
</g>
<g opacity="0.5">
<path d="M38.947 38.5077C38.8599 38.5076 38.7759 38.4748 38.7118 38.4158C38.6477 38.3568 38.6081 38.2759 38.6007 38.1891C38.5934 38.1023 38.6189 38.0159 38.6722 37.947C38.7255 37.8781 38.8027 37.8316 38.8885 37.8169L46.7504 36.4672C46.7954 36.4594 46.8416 36.4606 46.8861 36.4707C46.9307 36.4808 46.9729 36.4996 47.0102 36.5259C47.0475 36.5523 47.0793 36.5858 47.1037 36.6244C47.128 36.6631 47.1446 36.7062 47.1523 36.7512C47.16 36.7963 47.1588 36.8424 47.1487 36.887C47.1386 36.9315 47.1198 36.9737 47.0934 37.011C47.067 37.0483 47.0336 37.08 46.9949 37.1044C46.9562 37.1288 46.9131 37.1453 46.8681 37.153L39.0062 38.5027C38.9867 38.506 38.9668 38.5077 38.947 38.5077Z" fill="#102770"/>
</g>
<g opacity="0.5">
<path d="M38.9471 44.2389C38.86 44.2388 38.7761 44.206 38.7119 44.147C38.6478 44.088 38.6082 44.0071 38.6008 43.9203C38.5935 43.8334 38.619 43.747 38.6723 43.6781C38.7256 43.6092 38.8029 43.5628 38.8887 43.5481L48.5635 41.889C48.6085 41.8813 48.6546 41.8825 48.6992 41.8926C48.7438 41.9027 48.7859 41.9215 48.8232 41.9479C48.8605 41.9743 48.8922 42.0078 48.9166 42.0464C48.9409 42.085 48.9575 42.1281 48.9652 42.1731C48.9729 42.2182 48.9717 42.2643 48.9616 42.3088C48.9515 42.3534 48.9327 42.3955 48.9063 42.4328C48.8799 42.4701 48.8465 42.5019 48.8078 42.5262C48.7692 42.5506 48.7261 42.5671 48.6811 42.5748L39.0063 44.2338C38.9867 44.2372 38.9669 44.2389 38.9471 44.2389Z" fill="#102770"/>
</g>
<g opacity="0.5">
<path d="M38.947 46.699C38.8598 46.6989 38.7759 46.6661 38.7117 46.607C38.6476 46.548 38.608 46.467 38.6007 46.3801C38.5934 46.2933 38.619 46.2068 38.6724 46.1379C38.7258 46.069 38.8031 46.0227 38.889 46.008L51.8971 43.7937C51.988 43.7783 52.0813 43.7996 52.1566 43.853C52.2318 43.9064 52.2827 43.9875 52.2982 44.0784C52.3137 44.1693 52.2924 44.2627 52.2391 44.3379C52.1858 44.4132 52.1047 44.4642 52.0138 44.4798L39.0058 46.6941C38.9863 46.6973 38.9667 46.699 38.947 46.699Z" fill="#102770"/>
</g>
<path d="M45.2782 32.0115V41.1924L43.4384 39.5133L41.5999 41.792V32.6555L45.2782 32.0115Z" fill="#F7C414"/>
<g opacity="0.66">
<path d="M45.2776 31.8972V41.1922L44.3576 40.3541V33.1143L41.5996 33.5962V32.541L45.2776 31.8972Z" fill="white"/>
</g>
<path d="M41.5999 42.2119C41.4886 42.2118 41.3819 42.1675 41.3032 42.0888C41.2245 42.0101 41.1802 41.9034 41.1802 41.7921V32.6556C41.1802 32.5568 41.215 32.4612 41.2785 32.3856C41.3421 32.31 41.4303 32.2592 41.5276 32.2422L45.2059 31.5981C45.2662 31.5875 45.3281 31.5903 45.3873 31.6062C45.4464 31.6221 45.5014 31.6507 45.5483 31.6901C45.5952 31.7295 45.6329 31.7787 45.6588 31.8342C45.6846 31.8898 45.698 31.9503 45.698 32.0115V41.1923C45.698 41.2737 45.6744 41.3534 45.6299 41.4216C45.5855 41.4898 45.5222 41.5436 45.4477 41.5764C45.3732 41.6093 45.2908 41.6198 45.2105 41.6066C45.1302 41.5935 45.0554 41.5572 44.9953 41.5023L43.485 40.1241L41.9266 42.0556C41.8873 42.1044 41.8375 42.1438 41.781 42.1708C41.7244 42.1979 41.6625 42.2119 41.5999 42.2119ZM42.0197 33.0083V40.6033L43.1118 39.2498C43.1477 39.2052 43.1924 39.1684 43.2431 39.1418C43.2938 39.1151 43.3494 39.0991 43.4066 39.0947C43.4637 39.0904 43.5211 39.0978 43.5752 39.1165C43.6294 39.1351 43.6791 39.1647 43.7214 39.2033L44.8585 40.241V32.5111L42.0197 33.0083Z" fill="#102770"/>
<path d="M36.394 33.8514V33.5657C36.4123 33.66 36.4123 33.757 36.394 33.8514Z" fill="#26316B"/>
<path d="M50.304 26.2754C40.9425 30.2568 32.0932 29.9004 22.574 26.2217C21.6606 25.8689 21.0821 24.9626 21.1287 23.983L21.5066 18.9825L21.5424 18.5079L21.6947 16.4876L21.8971 13.8191L22.103 11.0789H50.5637L50.8073 13.8531L51.0347 16.4554L51.2103 18.4667L51.2676 19.1294L51.6974 24.0295C51.7257 24.502 51.6069 24.9716 51.3574 25.3738C51.1079 25.776 50.7399 26.091 50.304 26.2754Z" fill="#6157A4"/>
<g opacity="0.57">
<path d="M50.3041 26.6338C40.9425 30.6152 32.0932 30.2588 22.5741 26.5801C22.3997 26.5134 22.2348 26.4243 22.0834 26.315C31.2676 29.6803 39.859 29.7161 48.9304 25.8583C49.3662 25.6738 49.7342 25.3589 49.9838 24.9567C50.2333 24.5545 50.3521 24.0849 50.3238 23.6124L49.8939 18.8914L49.8366 18.2287L49.6611 16.2174L49.4336 13.6151L49.242 11.4373H50.5638L50.8073 14.2115L51.0348 16.8138L51.2103 18.8251L51.2676 19.4878L51.6975 24.3879C51.7257 24.8604 51.607 25.33 51.3574 25.7322C51.1079 26.1344 50.7399 26.4494 50.3041 26.6338Z" fill="white"/>
</g>
<g opacity="0.3">
<path d="M50.8861 14.7524H50.3416L48.8597 16.4168C48.3169 17.0264 47.6151 17.4727 46.8329 17.7056L36.816 20.6877C36.4841 20.7862 36.1307 20.7862 35.7988 20.6877L33.9204 20.1285C32.3871 19.672 30.8241 20.7483 30.7036 22.3435L30.5798 23.9832C30.5332 24.9628 31.1117 25.8691 32.0251 26.2219C35.2615 27.472 38.419 28.3389 41.546 28.7812C35.2829 29.7 29.0861 28.7382 22.574 26.2219C21.6606 25.8691 21.0821 24.9628 21.1287 23.9832L21.5066 18.9827L21.5424 18.5081L21.6947 16.4878L21.8971 13.8193L22.103 11.079L22.4218 6.86304H31.8729L31.5541 11.079H50.5637L50.8073 13.8533L50.8861 14.7524Z" fill="#102770"/>
</g>
<path d="M36.8757 29.6163C32.2288 29.6163 27.4589 28.6384 22.3965 26.6815C21.854 26.4708 21.3919 26.0943 21.076 25.6055C20.76 25.1168 20.6064 24.5408 20.637 23.9597L21.9302 6.82609C21.9395 6.70208 21.9954 6.58618 22.0866 6.50162C22.1777 6.41706 22.2975 6.37009 22.4219 6.37012H50.1944C50.3177 6.3701 50.4365 6.41629 50.5275 6.49959C50.6184 6.5829 50.6748 6.69725 50.6856 6.82011L52.1895 23.9858C52.2253 24.5618 52.0818 25.1348 51.7788 25.6261C51.4758 26.1173 51.028 26.5026 50.4972 26.729C45.9717 28.6536 41.4842 29.6163 36.8757 29.6163ZM22.8792 7.35626L21.6212 24.0208C21.6033 24.3929 21.7028 24.7613 21.9058 25.0737C22.1087 25.3861 22.4048 25.6268 22.7521 25.7617C32.5803 29.5607 41.2739 29.5798 50.1112 25.8215C50.4531 25.6763 50.7417 25.429 50.9377 25.1135C51.1337 24.798 51.2274 24.4297 51.2061 24.0589L49.7425 7.35626H22.8792Z" fill="#102770"/>
<path d="M57.6507 9.17041V12.5763L36.3081 18.9285L14.9656 12.5763V9.17041H57.6507Z" fill="#6157A4"/>
<g opacity="0.57">
<path d="M57.6507 9.16968V12.5762L56.2627 12.9899V9.16968H57.6507Z" fill="white"/>
</g>
<g opacity="0.3">
<path d="M36.3074 15.5205V18.6655L36.474 18.8787L36.3074 18.9288L14.9659 12.5762V9.16968H42.0673C35.3152 13.4824 36.3074 15.5205 36.3074 15.5205Z" fill="#102770"/>
</g>
<path d="M36.3081 19.4216C36.2605 19.4217 36.2131 19.4148 36.1674 19.4013L14.8249 13.0491C14.7231 13.0188 14.6338 12.9564 14.5702 12.8712C14.5067 12.786 14.4724 12.6826 14.4724 12.5764V9.17056C14.4724 9.1058 14.4852 9.04168 14.51 8.98186C14.5347 8.92203 14.5711 8.86767 14.6169 8.82188C14.6626 8.7761 14.717 8.73978 14.7768 8.715C14.8367 8.69023 14.9008 8.67748 14.9656 8.67749H57.6507C57.7154 8.67748 57.7796 8.69023 57.8394 8.715C57.8992 8.73978 57.9536 8.7761 57.9994 8.82188C58.0452 8.86767 58.0815 8.92203 58.1063 8.98186C58.1311 9.04168 58.1438 9.1058 58.1438 9.17056V12.5764C58.1438 12.6826 58.1095 12.786 58.046 12.8712C57.9825 12.9564 57.8932 13.0188 57.7913 13.0491L36.4488 19.4013C36.4031 19.4148 36.3557 19.4217 36.3081 19.4216ZM15.4587 12.2086L36.3081 18.414L57.1575 12.2086V9.66363H15.4587V12.2086Z" fill="#102770"/>
<path d="M57.6498 9.16959L36.3078 15.5207L14.9657 9.16959L36.3078 0.757812L57.6498 9.16959Z" fill="#6157A4"/>
<g opacity="0.3">
<path d="M35.7074 15.3415L14.9659 9.16973L29.4121 3.47437C23.5018 7.88559 27.0498 11.7577 35.7074 15.3415Z" fill="#102770"/>
</g>
<g opacity="0.57">
<path d="M57.6507 9.16962L36.3075 15.5205L34.0795 14.8578L52.3865 9.41008C52.997 9.22841 53.0337 8.37766 52.4411 8.1441L35.0036 1.27134L36.3075 0.757324L57.6507 9.16962Z" fill="white"/>
</g>
<path d="M36.3077 16.0138C36.26 16.0138 36.2127 16.0069 36.167 15.9934L14.825 9.6422C14.7266 9.61292 14.6399 9.5537 14.5768 9.47278C14.5137 9.39186 14.4774 9.29327 14.473 9.19076C14.4686 9.08824 14.4962 8.9869 14.5521 8.90085C14.608 8.8148 14.6894 8.74833 14.7848 8.71069L35.025 0.733197C35.8491 0.407294 36.7663 0.407294 37.5904 0.733197L57.8306 8.71069C57.926 8.74833 58.0074 8.8148 58.0633 8.90085C58.1192 8.9869 58.1468 9.08824 58.1424 9.19076C58.138 9.29327 58.1017 9.39186 58.0386 9.47278C57.9755 9.5537 57.8888 9.61292 57.7904 9.6422L36.4483 15.9934C36.4027 16.0069 36.3553 16.0138 36.3077 16.0138ZM16.4757 9.10442L36.3077 15.0062L56.1397 9.10442L37.2288 1.65085C36.637 1.41681 35.9783 1.41681 35.3866 1.65085L16.4757 9.10442Z" fill="#102770"/>
<path d="M36.3078 8.52737C37.7812 8.52737 38.9757 8.00297 38.9757 7.35609C38.9757 6.70921 37.7812 6.18481 36.3078 6.18481C34.8344 6.18481 33.6399 6.70921 33.6399 7.35609C33.6399 8.00297 34.8344 8.52737 36.3078 8.52737Z" fill="#102770"/>
<path d="M24.4211 29.645C24.2827 29.645 24.15 29.59 24.0522 29.4921C23.9544 29.3943 23.8994 29.2616 23.8994 29.1232V11.9833C23.8994 11.8782 23.9311 11.7755 23.9904 11.6888C24.0498 11.602 24.1339 11.5352 24.2318 11.4971L36.1184 6.87001C36.1823 6.84516 36.2504 6.83312 36.3189 6.83459C36.3874 6.83606 36.4549 6.85101 36.5176 6.87858C36.5803 6.90615 36.637 6.9458 36.6844 6.99527C36.7318 7.04474 36.769 7.10306 36.7938 7.1669C36.8187 7.23074 36.8307 7.29885 36.8293 7.36734C36.8278 7.43584 36.8128 7.50337 36.7853 7.56609C36.7577 7.6288 36.718 7.68547 36.6686 7.73287C36.6191 7.78026 36.5608 7.81744 36.4969 7.84229L24.9428 12.34V29.1232C24.9428 29.2616 24.8878 29.3943 24.79 29.4921C24.6922 29.59 24.5595 29.645 24.4211 29.645Z" fill="#102770"/>
<path d="M25.5252 33.5856H23.4057C23.2836 33.5856 23.1631 33.5586 23.0527 33.5067C22.9422 33.4547 22.8446 33.379 22.7668 33.285C22.689 33.191 22.6329 33.0809 22.6025 32.9627C22.5721 32.8445 22.5682 32.721 22.5911 32.6011L23.1895 29.4595C23.2256 29.2699 23.3267 29.0988 23.4754 28.9758C23.6241 28.8527 23.8111 28.7854 24.0041 28.7854H24.7772C24.9638 28.7854 25.1449 28.8483 25.2912 28.9639C25.4376 29.0795 25.5407 29.2411 25.584 29.4226L26.332 32.5642C26.361 32.6861 26.362 32.8129 26.335 32.9352C26.308 33.0575 26.2536 33.172 26.176 33.2703C26.0984 33.3686 25.9995 33.448 25.8868 33.5026C25.7741 33.5572 25.6505 33.5856 25.5252 33.5856Z" fill="#102770"/>
<path d="M71.4318 49.0803C69.8937 49.0803 68.3568 50.7897 68.3568 54.2058V71.4957C68.3566 71.9257 68.1857 72.3381 67.8816 72.6422C67.5775 72.9463 67.1652 73.1172 66.7351 73.1174H49.6383C49.4254 73.1174 49.2145 73.0755 49.0177 72.994C48.8209 72.9125 48.6422 72.7931 48.4916 72.6425C48.341 72.4919 48.2215 72.3131 48.14 72.1163C48.0585 71.9195 48.0166 71.7087 48.0166 71.4957V54.2058C48.0166 50.7897 49.5548 49.0803 51.093 49.0803H71.4318Z" fill="white"/>
<g opacity="0.3">
<path d="M67.7149 72.1002C67.9064 72.1003 68.0964 72.0667 68.2763 72.001C68.1698 72.3256 67.9635 72.6083 67.6868 72.8087C67.4102 73.0092 67.0773 73.1172 66.7357 73.1173H49.6387C49.2083 73.1173 48.7956 72.9463 48.4912 72.6419C48.1869 72.3376 48.0159 71.9248 48.0159 71.4944V54.2056C48.0159 51.7001 48.8449 50.1125 49.8933 49.4453C49.3515 50.2979 48.9951 51.546 48.9951 53.1885V65.783C48.9951 69.2719 51.8234 72.1002 55.3123 72.1002H67.7149Z" fill="#102770"/>
</g>
<path d="M66.7351 73.6105H49.6383C49.0776 73.6099 48.5401 73.3869 48.1436 72.9905C47.7471 72.594 47.5241 72.0565 47.5234 71.4958V54.206C47.5234 50.3456 49.3738 48.5874 51.093 48.5874H71.4318C71.5626 48.5874 71.688 48.6394 71.7804 48.7318C71.8729 48.8243 71.9249 48.9497 71.9249 49.0805C71.9249 49.2112 71.8729 49.3367 71.7804 49.4291C71.688 49.5216 71.5626 49.5735 71.4318 49.5735C70.1488 49.5735 68.85 51.1648 68.85 54.206V71.4958C68.8493 72.0565 68.6263 72.594 68.2298 72.9905C67.8333 73.3869 67.2958 73.6099 66.7351 73.6105ZM51.093 49.5735C49.8093 49.5735 48.5097 51.1648 48.5097 54.206V71.4958C48.51 71.795 48.6291 72.0819 48.8406 72.2935C49.0522 72.5051 49.3391 72.6241 49.6383 72.6244H66.7351C67.0343 72.6241 67.3212 72.5051 67.5328 72.2935C67.7443 72.0819 67.8633 71.795 67.8637 71.4958V54.206C67.8637 51.992 68.4719 50.4696 69.315 49.5735H51.093Z" fill="#102770"/>
<path d="M74.5068 54.2058V61.8009C74.5069 62.0459 74.4587 62.2885 74.365 62.5148C74.2712 62.7412 74.1338 62.9469 73.9606 63.1201C73.7873 63.2934 73.5816 63.4308 73.3553 63.5245C73.1289 63.6183 72.8863 63.6665 72.6413 63.6664H68.3568V54.2058C68.3568 50.7897 69.8936 49.0803 71.4318 49.0803C72.97 49.0803 74.5068 50.7897 74.5068 54.2058Z" fill="white"/>
<path d="M72.6413 63.7318H68.2915V54.2061C68.2915 50.6397 69.9193 49.0154 71.4318 49.0154C72.9442 49.0154 74.5721 50.6397 74.5721 54.2061V61.8011C74.5715 62.313 74.3679 62.8038 74.0059 63.1657C73.6439 63.5277 73.1532 63.7313 72.6413 63.7318ZM68.4221 63.6014H72.6413C73.1186 63.6008 73.5762 63.411 73.9137 63.0735C74.2511 62.736 74.441 62.2784 74.4415 61.8011V54.2061C74.4415 50.7294 72.8814 49.1459 71.4318 49.1459C69.9822 49.1459 68.4221 50.7294 68.4221 54.2061V63.6014Z" fill="white"/>
<path d="M74.5067 54.2053V61.8013C74.5067 62.0464 74.4585 62.289 74.3648 62.5154C74.2711 62.7418 74.1336 62.9475 73.9604 63.1207C73.7871 63.294 73.5814 63.4314 73.355 63.5252C73.1286 63.6189 72.886 63.6671 72.641 63.6671H68.3573V54.2053C68.3548 53.6603 68.3989 53.116 68.4891 52.5785C68.6941 51.3904 69.1237 50.5052 69.6655 49.9229C70.1851 49.3615 70.8092 49.0808 71.432 49.0808C72.2075 49.0808 72.983 49.5156 73.5601 50.3838C74.1294 51.2377 74.5067 52.5119 74.5067 54.2053Z" fill="white"/>
<g opacity="0.3">
<path d="M73.4111 62.3915C73.4347 62.3812 73.4611 62.3786 73.4863 62.3842C73.5115 62.3899 73.5343 62.4033 73.5513 62.4227C73.5684 62.4421 73.5788 62.4664 73.5812 62.4922C73.5835 62.5179 73.5776 62.5437 73.5643 62.5658C73.3994 62.8446 73.1646 63.0756 72.8832 63.236C72.6018 63.3964 72.2834 63.4806 71.9595 63.4805H68.3572V62.5572H72.6413C72.9068 62.5577 73.1693 62.5012 73.4111 62.3915Z" fill="#102770"/>
</g>
<g opacity="0.3">
<path d="M68.5297 52.3594C68.5584 52.2158 68.591 52.076 68.6276 51.9429C68.591 52.0774 68.5584 52.2158 68.5297 52.3594Z" fill="#5F5A57"/>
</g>
<path d="M72.6413 64.1595H68.3568C68.292 64.1595 68.2279 64.1468 68.1681 64.122C68.1083 64.0972 68.0539 64.0609 68.0081 64.0151C67.9623 63.9694 67.926 63.915 67.9012 63.8552C67.8764 63.7953 67.8636 63.7312 67.8636 63.6665V54.206C67.8636 50.3456 69.7133 48.5874 71.4318 48.5874C73.1503 48.5874 74.9999 50.3456 74.9999 54.206V61.801C74.9992 62.4263 74.7505 63.0258 74.3083 63.468C73.8661 63.9101 73.2666 64.1588 72.6413 64.1595ZM68.8499 63.1734H72.6413C73.0051 63.173 73.354 63.0283 73.6112 62.771C73.8685 62.5137 74.0132 62.1649 74.0137 61.801V54.206C74.0137 51.1648 72.7148 49.5735 71.4318 49.5735C70.1487 49.5735 68.8499 51.1648 68.8499 54.206V63.1734Z" fill="#102770"/>
<g opacity="0.3">
<path d="M73.0036 51.212L68.3572 58.1342V54.2049C68.3546 53.6599 68.3989 53.1158 68.4897 52.5785C68.5987 51.9426 68.7729 51.3934 68.9941 50.9306C69.0846 50.8018 69.1838 50.6793 69.2911 50.5641C69.8115 50.0031 70.4204 49.6753 71.0423 49.6753C71.7338 49.6753 72.45 50.0318 72.9942 50.7488C73.0437 50.8155 73.0712 50.8959 73.0729 50.9789C73.0746 51.0619 73.0504 51.1434 73.0036 51.212Z" fill="#102770"/>
</g>
<g opacity="0.5">
<path d="M55.4679 53.9183H50.5369C50.4497 53.9183 50.3661 53.8836 50.3044 53.822C50.2428 53.7603 50.2081 53.6767 50.2081 53.5895C50.2081 53.5023 50.2428 53.4187 50.3044 53.357C50.3661 53.2954 50.4497 53.2607 50.5369 53.2607H55.4679C55.5551 53.2607 55.6387 53.2954 55.7004 53.357C55.762 53.4187 55.7966 53.5023 55.7966 53.5895C55.7966 53.6767 55.762 53.7603 55.7004 53.822C55.6387 53.8836 55.5551 53.9183 55.4679 53.9183ZM64.9189 70.1494H59.9879C59.9007 70.1494 59.8171 70.1148 59.7554 70.0531C59.6938 69.9915 59.6591 69.9078 59.6591 69.8207C59.6591 69.7335 59.6938 69.6498 59.7554 69.5882C59.8171 69.5265 59.9007 69.4919 59.9879 69.4919H64.9189C65.0061 69.4919 65.0897 69.5265 65.1514 69.5882C65.213 69.6498 65.2476 69.7335 65.2476 69.8207C65.2476 69.9078 65.213 69.9915 65.1514 70.0531C65.0897 70.1148 65.0061 70.1494 64.9189 70.1494ZM62.4534 56.2192H50.5369C50.4497 56.2192 50.3661 56.1845 50.3044 56.1229C50.2428 56.0612 50.2081 55.9776 50.2081 55.8904C50.2081 55.8032 50.2428 55.7196 50.3044 55.6579C50.3661 55.5963 50.4497 55.5617 50.5369 55.5617H62.4534C62.5406 55.5617 62.6242 55.5963 62.6859 55.6579C62.7475 55.7196 62.7821 55.8032 62.7821 55.8904C62.7821 55.9776 62.7475 56.0612 62.6859 56.1229C62.6242 56.1845 62.5406 56.2192 62.4534 56.2192ZM62.4534 58.5201H50.5369C50.4497 58.5201 50.3661 58.4855 50.3044 58.4238C50.2428 58.3621 50.2081 58.2785 50.2081 58.1913C50.2081 58.1041 50.2428 58.0205 50.3044 57.9589C50.3661 57.8972 50.4497 57.8626 50.5369 57.8626H62.4534C62.5406 57.8626 62.6242 57.8972 62.6859 57.9589C62.7475 58.0205 62.7821 58.1041 62.7821 58.1913C62.7821 58.2785 62.7475 58.3621 62.6859 58.4238C62.6242 58.4855 62.5406 58.5201 62.4534 58.5201ZM58.8921 60.6817H50.5369C50.4497 60.6817 50.3661 60.6471 50.3044 60.5854C50.2428 60.5238 50.2081 60.4401 50.2081 60.3529C50.2081 60.2657 50.2428 60.1821 50.3044 60.1205C50.3661 60.0588 50.4497 60.0242 50.5369 60.0242H58.8921C58.9793 60.0242 59.063 60.0588 59.1246 60.1205C59.1863 60.1821 59.2209 60.2657 59.2209 60.3529C59.2209 60.4401 59.1863 60.5238 59.1246 60.5854C59.063 60.6471 58.9793 60.6817 58.8921 60.6817ZM62.0512 68.3984C62.0488 68.3984 62.0464 68.3984 62.044 68.3982C61.9984 68.3972 61.9535 68.3868 61.9122 68.3675C61.8709 68.3482 61.8341 68.3205 61.804 68.2863L60.488 66.7845C60.4595 66.752 60.4377 66.7143 60.4238 66.6734C60.41 66.6325 60.4043 66.5893 60.4071 66.5462C60.41 66.5031 60.4213 66.461 60.4404 66.4223C60.4595 66.3836 60.486 66.349 60.5185 66.3206C60.551 66.2921 60.5887 66.2703 60.6296 66.2565C60.6705 66.2426 60.7137 66.2369 60.7568 66.2398C60.7999 66.2426 60.842 66.2539 60.8807 66.2731C60.9194 66.2922 60.9539 66.3187 60.9824 66.3512L62.062 67.5831L64.5973 64.9371C64.6271 64.9059 64.6628 64.8809 64.7023 64.8635C64.7419 64.8461 64.7844 64.8366 64.8276 64.8357C64.8708 64.8348 64.9137 64.8423 64.9539 64.858C64.9942 64.8737 65.031 64.8971 65.0621 64.927C65.0933 64.9568 65.1183 64.9925 65.1357 65.0321C65.1531 65.0716 65.1625 65.1142 65.1634 65.1574C65.1643 65.2005 65.1567 65.2435 65.141 65.2837C65.1253 65.3239 65.1019 65.3607 65.072 65.3918L62.2886 68.297C62.2579 68.329 62.2211 68.3545 62.1803 68.372C62.1395 68.3894 62.0956 68.3984 62.0512 68.3984Z" fill="#102770"/>
</g>
</svg>
