<svg width="74" height="62" viewBox="0 0 74 62" fill="none" xmlns="http://www.w3.org/2000/svg">
<path d="M5.54817 9.68694C5.48795 9.68691 5.42857 9.6728 5.37477 9.64575C5.32097 9.6187 5.27423 9.57945 5.23828 9.53113C5.20234 9.48281 5.17818 9.42676 5.16774 9.36745C5.1573 9.30814 5.16086 9.24721 5.17815 9.18952L5.86149 6.91685C5.89104 6.81884 5.9583 6.73656 6.04849 6.68812C6.13867 6.63967 6.2444 6.62901 6.34244 6.65848C6.44048 6.68794 6.52281 6.75513 6.57134 6.84527C6.61987 6.93541 6.63062 7.04113 6.60124 7.1392L5.9179 9.41187C5.89397 9.49134 5.8451 9.56099 5.77851 9.61053C5.71193 9.66007 5.63117 9.68686 5.54817 9.68694ZM3.52893 16.4018C3.46871 16.4017 3.40932 16.3876 3.35552 16.3606C3.30171 16.3335 3.25497 16.2943 3.21903 16.246C3.18309 16.1977 3.15893 16.1416 3.14849 16.0823C3.13805 16.023 3.14162 15.962 3.1589 15.9044L3.84224 13.6318C3.87179 13.5337 3.93905 13.4515 4.02924 13.403C4.11942 13.3546 4.22515 13.3439 4.32319 13.3734C4.42124 13.4029 4.50357 13.47 4.55209 13.5602C4.60062 13.6503 4.61138 13.756 4.582 13.8541L3.89866 16.1267C3.87472 16.2062 3.82585 16.2758 3.75927 16.3254C3.69268 16.3749 3.61192 16.4017 3.52893 16.4018ZM6.92315 10.8098C6.83711 10.8098 6.75351 10.7812 6.68562 10.7283C6.61773 10.6754 6.56944 10.6014 6.5484 10.518C6.52737 10.4345 6.5348 10.3465 6.56951 10.2677C6.60423 10.189 6.66424 10.1241 6.74002 10.0834L8.83032 8.95963C8.87499 8.93561 8.92396 8.92063 8.97442 8.91554C9.02488 8.91045 9.07585 8.91535 9.12442 8.92996C9.17299 8.94456 9.21821 8.96859 9.25749 9.00068C9.29677 9.03276 9.32934 9.07227 9.35335 9.11694C9.37736 9.16162 9.39234 9.21058 9.39742 9.26105C9.40251 9.31151 9.3976 9.36248 9.38299 9.41105C9.36838 9.45961 9.34434 9.50483 9.31225 9.5441C9.28016 9.58338 9.24065 9.61595 9.19597 9.63995L7.10568 10.7637C7.04959 10.7939 6.98687 10.8098 6.92315 10.8098ZM0.747294 14.1301C0.661244 14.1302 0.577638 14.1015 0.509741 14.0486C0.441844 13.9957 0.393546 13.9217 0.372511 13.8383C0.351476 13.7548 0.358909 13.6668 0.39363 13.588C0.42835 13.5093 0.488371 13.4444 0.564167 13.4037L2.65431 12.2799C2.74453 12.2315 2.85031 12.2208 2.94839 12.2503C3.04647 12.2798 3.12881 12.3471 3.1773 12.4373C3.22579 12.5275 3.23645 12.6333 3.20695 12.7314C3.17744 12.8294 3.11018 12.9118 3.01997 12.9603L0.92982 14.084C0.873731 14.1142 0.811013 14.1301 0.747294 14.1301ZM9.37397 13.2594C9.33626 13.2594 9.29875 13.2538 9.26265 13.243L6.98998 12.5595C6.94138 12.545 6.89613 12.521 6.85682 12.4889C6.8175 12.4568 6.78489 12.4173 6.76085 12.3727C6.7368 12.328 6.7218 12.279 6.71669 12.2285C6.71158 12.1781 6.71647 12.1271 6.73108 12.0785C6.74569 12.0299 6.76972 11.9847 6.80182 11.9454C6.83391 11.9061 6.87344 11.8735 6.91813 11.8495C6.96282 11.8255 7.01181 11.8105 7.06229 11.8054C7.11277 11.8004 7.16375 11.8053 7.21233 11.8199L9.485 12.5033C9.57376 12.53 9.64996 12.5877 9.6997 12.6659C9.74944 12.7441 9.76941 12.8376 9.75594 12.9293C9.74247 13.021 9.69648 13.1048 9.62636 13.1654C9.55623 13.226 9.46665 13.2594 9.37397 13.2594ZM2.65914 11.2401C2.62143 11.2401 2.58392 11.2345 2.54781 11.2236L0.275141 10.5402C0.226557 10.5256 0.181324 10.5016 0.142023 10.4696C0.102722 10.4375 0.0701239 10.398 0.0460914 10.3533C0.022059 10.3086 0.00706199 10.2597 0.00195906 10.2092C-0.00314387 10.1587 0.00174605 10.1078 0.0163499 10.0592C0.0309538 10.0106 0.0549869 9.96539 0.087073 9.9261C0.119159 9.88681 0.158671 9.85423 0.203352 9.83022C0.248033 9.80621 0.297006 9.79123 0.347476 9.78615C0.397945 9.78107 0.448922 9.78598 0.497492 9.80061L2.77016 10.484C2.85892 10.5107 2.93513 10.5684 2.98487 10.6466C3.03461 10.7248 3.05457 10.8183 3.0411 10.91C3.02764 11.0017 2.98165 11.0855 2.91152 11.1461C2.8414 11.2067 2.75182 11.24 2.65914 11.2401ZM7.10236 16.0412C7.03251 16.0412 6.96396 16.0224 6.90401 15.9865C6.84405 15.9507 6.79493 15.8993 6.7619 15.8378L5.63823 13.7475C5.61418 13.7028 5.59916 13.6538 5.59404 13.6033C5.58892 13.5528 5.59379 13.5019 5.60839 13.4533C5.62299 13.4047 5.64702 13.3594 5.67911 13.3201C5.7112 13.2808 5.75072 13.2482 5.79542 13.2242C5.84011 13.2002 5.8891 13.1852 5.93959 13.1801C5.99007 13.175 6.04106 13.18 6.08965 13.1946C6.13823 13.2092 6.18345 13.2333 6.22273 13.2654C6.26201 13.2975 6.29457 13.3371 6.31855 13.3818L7.44222 15.4721C7.47381 15.5309 7.48962 15.5969 7.4881 15.6637C7.48658 15.7304 7.46779 15.7956 7.43356 15.853C7.39932 15.9103 7.35082 15.9577 7.29277 15.9907C7.23473 16.0237 7.16912 16.0411 7.10236 16.0412ZM3.78205 9.86517C3.71221 9.86524 3.64365 9.84635 3.5837 9.81053C3.52374 9.77471 3.47462 9.72329 3.44159 9.66175L2.31792 7.57153C2.29391 7.52686 2.27893 7.47789 2.27383 7.42743C2.26874 7.37697 2.27364 7.326 2.28825 7.27743C2.30286 7.22886 2.32689 7.18365 2.35897 7.14437C2.39105 7.10509 2.43056 7.07251 2.47524 7.0485C2.51991 7.02449 2.56888 7.00951 2.61934 7.00443C2.6698 6.99934 2.72077 7.00424 2.76934 7.01886C2.81791 7.03347 2.86312 7.05751 2.90239 7.0896C2.94167 7.12169 2.97424 7.1612 2.99825 7.20588L4.12191 9.2961C4.1535 9.35491 4.16931 9.42091 4.16779 9.48766C4.16627 9.55441 4.14748 9.61963 4.11325 9.67695C4.07902 9.73427 4.03051 9.78173 3.97247 9.81472C3.91442 9.84771 3.84882 9.86509 3.78205 9.86517ZM61.4656 3.04482C61.4054 3.04478 61.346 3.03068 61.2922 3.00363C61.2384 2.97657 61.1917 2.93732 61.1557 2.889C61.1198 2.84068 61.0956 2.78463 61.0852 2.72532C61.0747 2.66601 61.0783 2.60508 61.0956 2.5474L61.7789 0.274722C61.8085 0.176708 61.8757 0.0944363 61.9659 0.0459883C62.0561 -0.00245981 62.1618 -0.0131208 62.2599 0.0163476C62.3579 0.045816 62.4403 0.113003 62.4888 0.203144C62.5373 0.293285 62.5481 0.399006 62.5187 0.497073L61.8354 2.76975C61.8114 2.84921 61.7625 2.91887 61.696 2.9684C61.6294 3.01794 61.5486 3.04473 61.4656 3.04482ZM59.4464 9.75965C59.3862 9.75962 59.3268 9.74552 59.273 9.71846C59.2192 9.69141 59.1724 9.65216 59.1365 9.60384C59.1005 9.55552 59.0764 9.49947 59.0659 9.44016C59.0555 9.38085 59.0591 9.31992 59.0763 9.26223L59.7597 6.98964C59.7892 6.89162 59.8565 6.80935 59.9467 6.7609C60.0369 6.71245 60.1426 6.70179 60.2406 6.73126C60.3387 6.76073 60.421 6.82792 60.4695 6.91806C60.5181 7.0082 60.5288 7.11392 60.4994 7.21199L59.8161 9.48458C59.7922 9.56405 59.7433 9.6337 59.6767 9.68324C59.6101 9.73278 59.5294 9.75957 59.4464 9.75965ZM62.8406 4.16765C62.7546 4.16771 62.671 4.13903 62.6031 4.08616C62.5352 4.0333 62.4869 3.95927 62.4658 3.87584C62.4448 3.79241 62.4522 3.70434 62.487 3.62561C62.5217 3.54687 62.5817 3.48199 62.6575 3.44124L64.7478 2.3175C64.838 2.26903 64.9438 2.25838 65.0418 2.28789C65.1399 2.3174 65.2222 2.38465 65.2707 2.47486C65.3192 2.56507 65.3299 2.67085 65.3004 2.76892C65.2709 2.86699 65.2036 2.94933 65.1134 2.99783L63.0231 4.12157C62.967 4.1518 62.9043 4.16764 62.8406 4.16765ZM56.6647 7.48796C56.5787 7.48803 56.4951 7.45935 56.4272 7.40649C56.3593 7.35362 56.311 7.2796 56.29 7.19616C56.2689 7.11272 56.2764 7.02464 56.3111 6.94591C56.3458 6.86718 56.4058 6.80229 56.4816 6.76155L58.5718 5.63781C58.6164 5.6138 58.6654 5.59883 58.7158 5.59374C58.7663 5.58865 58.8173 5.59356 58.8658 5.60817C58.9144 5.62278 58.9596 5.64681 58.9989 5.67889C59.0382 5.71097 59.0707 5.75048 59.0947 5.79515C59.1188 5.83982 59.1337 5.88878 59.1388 5.93924C59.1439 5.9897 59.139 6.04066 59.1244 6.08923C59.1098 6.13779 59.0858 6.183 59.0537 6.22228C59.0216 6.26156 58.9821 6.29413 58.9374 6.31814L56.8473 7.44188C56.7912 7.47211 56.7285 7.48795 56.6647 7.48796ZM65.2914 6.61727C65.2537 6.61726 65.2162 6.61172 65.1801 6.60082L62.9074 5.91741C62.8588 5.90284 62.8136 5.87883 62.7743 5.84677C62.7349 5.8147 62.7023 5.7752 62.6783 5.73053C62.6542 5.68585 62.6392 5.63688 62.6341 5.5864C62.629 5.53592 62.6339 5.48494 62.6485 5.43635C62.6631 5.38776 62.6872 5.34253 62.7193 5.30324C62.7514 5.26395 62.7909 5.23137 62.8356 5.20735C62.8803 5.18334 62.9293 5.16837 62.9797 5.1633C63.0302 5.15823 63.0812 5.16316 63.1298 5.1778L65.4025 5.86122C65.4912 5.88789 65.5674 5.9456 65.6171 6.0238C65.6669 6.102 65.6869 6.19549 65.6734 6.28718C65.6599 6.37888 65.6139 6.46268 65.5438 6.52328C65.4737 6.58388 65.3841 6.61724 65.2914 6.61727ZM58.5766 4.59794C58.5389 4.59793 58.5014 4.59239 58.4653 4.5815L56.1926 3.89809C56.144 3.8835 56.0988 3.85949 56.0595 3.82742C56.0202 3.79535 55.9876 3.75586 55.9635 3.71119C55.9395 3.66652 55.9245 3.61755 55.9194 3.56708C55.9143 3.51661 55.9192 3.46564 55.9338 3.41706C55.9484 3.36848 55.9724 3.32326 56.0045 3.28397C56.0366 3.24468 56.0761 3.2121 56.1208 3.18809C56.1655 3.16408 56.2145 3.1491 56.2649 3.14402C56.3154 3.13894 56.3664 3.14386 56.4149 3.15848L58.6876 3.84189C58.7764 3.86857 58.8526 3.92628 58.9023 4.00448C58.9521 4.08268 58.972 4.17616 58.9585 4.26786C58.9451 4.35955 58.8991 4.44335 58.829 4.50395C58.7588 4.56455 58.6693 4.59791 58.5766 4.59794ZM63.0198 9.39905C62.95 9.39912 62.8814 9.38023 62.8214 9.34441C62.7615 9.30859 62.7124 9.25717 62.6793 9.19563L61.5557 7.10534C61.5316 7.06066 61.5166 7.01168 61.5115 6.9612C61.5064 6.91072 61.5112 6.85973 61.5258 6.81113C61.5404 6.76254 61.5645 6.71729 61.5966 6.67799C61.6286 6.63869 61.6682 6.60609 61.7129 6.58207C61.7576 6.55805 61.8065 6.54307 61.857 6.53799C61.9075 6.53291 61.9585 6.53783 62.0071 6.55247C62.0557 6.56711 62.1009 6.59117 62.1402 6.6233C62.1795 6.65542 62.212 6.69497 62.236 6.73968L63.3597 8.82998C63.3913 8.88879 63.4071 8.9548 63.4055 9.02154C63.404 9.08829 63.3852 9.1535 63.351 9.21082C63.3168 9.26814 63.2683 9.31561 63.2102 9.3486C63.1522 9.38159 63.0866 9.39897 63.0198 9.39905ZM59.6995 3.22304C59.6297 3.22311 59.5611 3.20423 59.5011 3.1684C59.4412 3.13258 59.3921 3.08116 59.359 3.01962L58.2354 0.929402C58.2114 0.88473 58.1964 0.835765 58.1913 0.785303C58.1862 0.734842 58.1911 0.683871 58.2057 0.635302C58.2203 0.586734 58.2443 0.541518 58.2764 0.502238C58.3085 0.462957 58.348 0.430382 58.3927 0.406371C58.4374 0.38236 58.4863 0.367384 58.5368 0.362298C58.5872 0.357212 58.6382 0.362116 58.6868 0.37673C58.7353 0.391344 58.7806 0.415382 58.8198 0.44747C58.8591 0.479559 58.8917 0.519071 58.9157 0.563748L60.0394 2.65397C60.0709 2.71279 60.0868 2.77879 60.0852 2.84554C60.0837 2.91228 60.0649 2.9775 60.0307 3.03482C59.9965 3.09214 59.948 3.13961 59.8899 3.1726C59.8319 3.20558 59.7663 3.22297 59.6995 3.22304Z" fill="#102770"/>
<path d="M70.6503 49.9109C70.554 49.9109 70.4577 49.9057 70.362 49.8954C69.6804 49.821 69.0547 49.4836 68.6181 48.955C68.1814 48.4263 67.9683 47.7482 68.024 47.0648C68.0796 46.3815 68.3997 45.7468 68.9162 45.2958C69.4326 44.8448 70.1047 44.6132 70.7893 44.6501C71.4739 44.687 72.1172 44.9895 72.5821 45.4934C73.0471 45.9973 73.2971 46.6627 73.279 47.3481C73.2609 48.0335 72.9761 48.6848 72.4851 49.1634C71.9942 49.642 71.3359 49.9102 70.6503 49.9109ZM70.6423 45.7809C70.2531 45.7811 69.8794 45.933 69.6006 46.2045C69.3218 46.476 69.1599 46.8456 69.1494 47.2346C69.139 47.6236 69.2807 48.0013 69.5445 48.2874C69.8082 48.5735 70.1732 48.7454 70.5618 48.7665C70.9504 48.7875 71.3319 48.6562 71.625 48.4003C71.9182 48.1444 72.1 47.7842 72.1317 47.3964C72.1633 47.0085 72.0424 46.6236 71.7946 46.3236C71.5468 46.0235 71.1917 45.832 70.8049 45.7898C70.7509 45.7839 70.6966 45.781 70.6423 45.7809Z" fill="#19B5FE"/>
<path d="M67.3205 39.0643C67.647 38.8014 67.6985 38.3235 67.4356 37.9969C67.1726 37.6704 66.6948 37.6189 66.3682 37.8818C66.0417 38.1447 65.9901 38.6226 66.2531 38.9492C66.516 39.2757 66.9939 39.3273 67.3205 39.0643Z" fill="#F7C714"/>
<path d="M64.086 55.2859C64.845 55.0356 65.2574 54.2175 65.0072 53.4585C64.7569 52.6995 63.9388 52.2871 63.1798 52.5374C62.4208 52.7876 62.0084 53.6058 62.2587 54.3647C62.5089 55.1237 63.327 55.5361 64.086 55.2859Z" fill="#FF5722"/>
<path d="M14.9747 46.6174H34.9457V61.1761H14.9747C13.5335 61.1761 12.1513 60.6035 11.1322 59.5844C10.1131 58.5653 9.54053 57.1831 9.54053 55.7419V52.0516C9.54053 50.6104 10.1131 49.2282 11.1322 48.2091C12.1513 47.19 13.5335 46.6174 14.9747 46.6174Z" fill="#22A7F0"/>
<g opacity="0.57">
<path d="M9.54126 52.0524V53.983C9.54122 53.2694 9.68173 52.5628 9.95479 51.9035C10.2278 51.2442 10.6281 50.6452 11.1327 50.1406C11.6372 49.6361 12.2363 49.2358 12.8955 48.9628C13.5548 48.6897 14.2614 48.5492 14.975 48.5492H34.9461V46.6172H14.975C11.9738 46.6172 9.54126 49.0512 9.54126 52.0524Z" fill="white"/>
</g>
<g opacity="0.3">
<path d="M9.55798 56.1865C9.78546 58.9799 12.1239 61.1758 14.975 61.1758H34.9461V46.6172H33.8087V58.2702H13.8376C13.0128 58.2708 12.1988 58.0835 11.4572 57.7225C10.7156 57.3614 10.0661 56.8361 9.55798 56.1865Z" fill="#282E6A"/>
</g>
<path d="M34.9457 61.7166H14.9748C11.6803 61.7166 8.99988 59.0362 8.99988 55.7417V52.0515C8.99988 48.757 11.6803 46.0767 14.9748 46.0767H34.9457C35.0891 46.0767 35.2266 46.1336 35.328 46.235C35.4294 46.3364 35.4863 46.4739 35.4863 46.6173V61.1759C35.4863 61.3193 35.4294 61.4568 35.328 61.5582C35.2266 61.6596 35.0891 61.7166 34.9457 61.7166ZM14.9748 47.1579C12.2764 47.1579 10.0812 49.3532 10.0812 52.0515V55.7417C10.0812 58.44 12.2764 60.6353 14.9748 60.6353H34.4051V47.1579H14.9748Z" fill="#282E6A"/>
<path d="M49.4252 58.4463H33.1984C32.4746 58.4457 31.7806 58.158 31.2688 57.6462C30.757 57.1344 30.4692 56.4404 30.4686 55.7166V52.0769C30.4692 51.3531 30.757 50.6591 31.2688 50.1473C31.7806 49.6355 32.4746 49.3477 33.1984 49.3472H49.4252C47.6054 50.5103 47.6554 57.3347 49.4252 58.4463Z" fill="white"/>
<g opacity="0.3">
<path d="M30.4694 52.0767V55.0597C30.4699 54.3359 30.7577 53.6419 31.2695 53.1301C31.7813 52.6183 32.4753 52.3305 33.1991 52.3299H48.1733C48.3462 50.9499 48.7617 49.7716 49.4259 49.3469H33.1991C32.4753 49.3475 31.7813 49.6353 31.2695 50.1471C30.7577 50.6589 30.4699 51.3529 30.4694 52.0767Z" fill="#282E6A"/>
</g>
<path d="M49.4251 58.9868H33.1982C32.3312 58.9858 31.4999 58.6409 30.8868 58.0278C30.2737 57.4147 29.9288 56.5835 29.9279 55.7164V52.0768C29.9288 51.2097 30.2737 50.3785 30.8868 49.7654C31.4999 49.1523 32.3312 48.8074 33.1982 48.8064H49.4251C49.542 48.8064 49.6558 48.8443 49.7493 48.9144C49.8429 48.9846 49.9112 49.0832 49.944 49.1954C49.9768 49.3076 49.9723 49.4275 49.9313 49.5369C49.8902 49.6464 49.8147 49.7396 49.7162 49.8026C49.073 50.2137 48.6119 51.9472 48.6197 53.9244C48.6285 56.1473 49.1762 57.6514 49.7126 57.9884C49.8119 58.0507 49.8883 58.1437 49.9301 58.2533C49.972 58.3629 49.9771 58.4831 49.9446 58.5958C49.9122 58.7085 49.8439 58.8076 49.7502 58.8781C49.6565 58.9487 49.5424 58.9868 49.4251 58.9868ZM33.1982 49.8877C32.6179 49.8883 32.0614 50.1192 31.651 50.5296C31.2406 50.94 31.0098 51.4964 31.0091 52.0768V55.7164C31.0098 56.2968 31.2406 56.8532 31.651 57.2636C32.0614 57.674 32.6179 57.9049 33.1982 57.9055H48.2967C47.7579 56.8506 47.5437 55.2912 47.5384 53.9287C47.533 52.5468 47.7427 50.9597 48.2945 49.8877H33.1982Z" fill="#282E6A"/>
<path d="M51.2829 59.8112C51.2829 60.1732 51.1391 60.5203 50.8831 60.7763C50.6272 61.0322 50.2801 61.176 49.9181 61.1761H33.1984C30.1881 61.1761 27.7389 58.7269 27.7389 55.7166V52.0769C27.7389 49.0666 30.1881 46.6174 33.1984 46.6174H49.9181C50.2801 46.6174 50.6272 46.7612 50.8832 47.0172C51.1391 47.2732 51.2829 47.6203 51.2829 47.9823C51.2829 48.3443 51.1391 48.6915 50.8832 48.9474C50.6272 49.2034 50.2801 49.3472 49.9181 49.3472H33.1984C32.4746 49.3477 31.7806 49.6355 31.2688 50.1473C30.757 50.6591 30.4692 51.3531 30.4686 52.0769V55.7166C30.4692 56.4404 30.757 57.1344 31.2688 57.6462C31.7806 58.158 32.4746 58.4458 33.1984 58.4463H49.9181C50.2801 58.4464 50.6272 58.5902 50.8832 58.8461C51.1391 59.1021 51.2829 59.4492 51.2829 59.8112Z" fill="#22A7F0"/>
<g opacity="0.57">
<path d="M30.4694 55.7163V56.5125C30.4699 57.2363 30.7577 57.9303 31.2695 58.4421C31.7813 58.9539 32.4753 59.2417 33.1991 59.2422H49.9188C50.2114 59.2423 50.4962 59.3363 50.7313 59.5105C50.9664 59.6847 51.1393 59.9299 51.2245 60.2098C51.2635 60.0804 51.2834 59.946 51.2837 59.8109C51.2836 59.4489 51.1398 59.1018 50.8839 58.8458C50.6279 58.5899 50.2808 58.4461 49.9188 58.4461H33.1991C32.4753 58.4455 31.7813 58.1577 31.2695 57.6459C30.7577 57.1341 30.4699 56.4401 30.4694 55.7163Z" fill="white"/>
</g>
<g opacity="0.3">
<path d="M27.7396 54.6926V55.7163C27.7396 58.7266 30.1888 61.1758 33.1991 61.1758H49.9188C50.2808 61.1757 50.6279 61.0319 50.8839 60.776C51.1398 60.52 51.2836 60.1729 51.2837 59.8109C51.2842 59.6356 51.2502 59.462 51.1836 59.2998C51.0815 59.5516 50.9067 59.7673 50.6813 59.9191C50.456 60.0709 50.1905 60.1521 49.9188 60.1521H33.1991C30.1888 60.1521 27.7396 57.7029 27.7396 54.6926Z" fill="#282E6A"/>
</g>
<g opacity="0.57">
<path d="M27.7396 52.0767V53.2398C27.7396 50.2295 30.1888 47.7804 33.1991 47.7804H49.9188C50.1779 47.78 50.4316 47.8536 50.6503 47.9925C50.869 48.1314 51.0434 48.3298 51.1532 48.5644C51.2514 48.3564 51.2953 48.1269 51.281 47.8974C51.2668 47.6678 51.1947 47.4456 51.0715 47.2513C50.9484 47.057 50.7781 46.8971 50.5766 46.7862C50.3751 46.6753 50.1488 46.6172 49.9188 46.6172H33.1991C30.1888 46.6172 27.7396 49.0664 27.7396 52.0767Z" fill="white"/>
</g>
<path d="M49.9181 61.7166H33.1982C29.8897 61.7166 27.1981 59.0249 27.1981 55.7164V52.0768C27.1981 48.7683 29.8897 46.0767 33.1982 46.0767H49.9181C50.4234 46.0767 50.9081 46.2774 51.2655 46.6348C51.6228 46.9921 51.8236 47.4768 51.8236 47.9822C51.8236 48.4875 51.6228 48.9722 51.2655 49.3296C50.9081 49.6869 50.4234 49.8877 49.9181 49.8877H33.1982C32.6179 49.8883 32.0614 50.1192 31.651 50.5296C31.2406 50.94 31.0098 51.4964 31.0091 52.0768V55.7164C31.0098 56.2968 31.2406 56.8532 31.651 57.2636C32.0614 57.674 32.6179 57.9049 33.1982 57.9055H49.9181C50.4234 57.9055 50.9081 58.1063 51.2655 58.4636C51.6228 58.821 51.8236 59.3057 51.8236 59.811C51.8236 60.3164 51.6228 60.8011 51.2655 61.1584C50.9081 61.5158 50.4234 61.7166 49.9181 61.7166ZM33.1982 47.1579C30.486 47.1579 28.2794 49.3645 28.2794 52.0768V55.7164C28.2794 58.4287 30.486 60.6353 33.1982 60.6353H49.9181C50.1367 60.6353 50.3463 60.5484 50.5009 60.3939C50.6554 60.2393 50.7423 60.0296 50.7423 59.811C50.7423 59.5924 50.6554 59.3828 50.5009 59.2282C50.3463 59.0737 50.1367 58.9868 49.9181 58.9868H33.1982C32.3312 58.9858 31.4999 58.6409 30.8868 58.0278C30.2737 57.4147 29.9288 56.5835 29.9279 55.7164V52.0768C29.9288 51.2097 30.2737 50.3785 30.8868 49.7654C31.4999 49.1523 32.3312 48.8074 33.1982 48.8064H49.9181C50.1367 48.8064 50.3463 48.7196 50.5009 48.565C50.6554 48.4104 50.7423 48.2008 50.7423 47.9822C50.7423 47.7636 50.6554 47.5539 50.5009 47.3993C50.3463 47.2448 50.1367 47.1579 49.9181 47.1579H33.1982Z" fill="#282E6A"/>
<path d="M40.5282 49.3472V53.8967L42.0321 52.5698L43.5486 53.8967V49.3472H40.5282Z" fill="#FF5722"/>
<g opacity="0.3">
<path d="M43.5494 49.3469H40.5284V50.9908H43.5494V49.3469Z" fill="#282E6A"/>
</g>
<path d="M43.5486 54.3602C43.4363 54.3602 43.3279 54.3195 43.2433 54.2455L42.0334 53.1867L40.8349 54.2442C40.768 54.3033 40.6855 54.3417 40.5973 54.355C40.5091 54.3683 40.4189 54.3559 40.3376 54.3192C40.2563 54.2825 40.1873 54.2231 40.139 54.1482C40.0906 54.0733 40.0648 53.986 40.0648 53.8968V49.3472C40.0648 49.2863 40.0768 49.2261 40.1001 49.1699C40.1234 49.1136 40.1575 49.0625 40.2005 49.0195C40.2436 48.9765 40.2947 48.9423 40.3509 48.9191C40.4071 48.8958 40.4674 48.8838 40.5282 48.8838H43.5485C43.6094 48.8838 43.6696 48.8958 43.7258 48.9191C43.7821 48.9423 43.8331 48.9765 43.8762 49.0195C43.9192 49.0625 43.9533 49.1136 43.9766 49.1699C43.9999 49.2261 44.0119 49.2863 44.0119 49.3472V53.8968C44.0119 54.0196 43.9631 54.1375 43.8762 54.2244C43.7893 54.3113 43.6715 54.3601 43.5486 54.3602ZM42.032 52.1064C42.1443 52.1063 42.2528 52.1471 42.3372 52.2211L43.0851 52.8755V49.8106H40.9916V52.8699L41.7254 52.2224C41.81 52.1476 41.9191 52.1064 42.032 52.1064Z" fill="#282E6A"/>
<g opacity="0.25">
<path d="M16.1776 50.1342C16.1776 50.7253 17.384 51.3387 18.8722 51.3387C20.3604 51.3387 21.5668 50.7253 21.5668 50.1342C21.5668 49.5431 20.3604 49.6121 18.8722 49.6121C17.384 49.6121 16.1776 49.5431 16.1776 50.1342Z" fill="white"/>
</g>
<g opacity="0.25">
<path d="M22.4019 50.3401C22.4019 50.7435 22.9224 51.0705 23.5645 51.0705C24.2066 51.0705 24.7272 50.7435 24.7272 50.3401C24.7272 49.9366 24.2066 49.7612 23.5645 49.7612C22.9224 49.7612 22.4019 49.9366 22.4019 50.3401Z" fill="white"/>
</g>
<path d="M50.9792 13.8484L45.8108 19.6294L42.899 17.0273L48.0679 11.2446L48.3789 13.7442L50.9792 13.8484Z" fill="#22A7F0"/>
<g opacity="0.57">
<path d="M47.3712 14.1685L47.1374 12.291L42.964 16.9602L42.9315 16.9306L48.1002 11.1484L48.4124 13.6485L51.0123 13.7513L49.9939 14.8916L48.0741 14.8148C47.8994 14.8078 47.7328 14.739 47.6041 14.6206C47.4753 14.5023 47.3928 14.3421 47.3712 14.1685Z" fill="white"/>
</g>
<path d="M44.976 17.3242L41.1095 17.8774L40.0132 10.1993L42.2777 11.631L43.8791 9.64771L44.976 17.3242Z" fill="#22A7F0"/>
<g opacity="0.57">
<path d="M44.9911 17.43L44.0643 10.9446L42.9084 12.3758C42.7855 12.5281 42.6108 12.6298 42.4178 12.6617C42.2247 12.6936 42.0266 12.6534 41.8612 12.5488L40.242 11.5247L40.0669 10.2992L42.3315 11.73L43.9327 9.74683L45.03 17.4238L44.9911 17.43Z" fill="white"/>
</g>
<path d="M45.8106 20.1699C45.6777 20.1701 45.5495 20.1211 45.4505 20.0324L42.5389 17.4302C42.432 17.3347 42.3674 17.2006 42.3594 17.0574C42.3513 16.9142 42.4005 16.7737 42.496 16.6668L47.6648 10.8842C47.734 10.8068 47.824 10.751 47.9241 10.7233C48.0242 10.6957 48.1301 10.6975 48.2292 10.7285C48.3282 10.7594 48.4163 10.8182 48.4829 10.8979C48.5494 10.9776 48.5916 11.0747 48.6045 11.1778L48.8588 13.2222L51.0008 13.3081C51.1032 13.3122 51.2024 13.3454 51.2867 13.4037C51.371 13.462 51.4369 13.5431 51.4769 13.6375C51.5169 13.7319 51.5292 13.8357 51.5124 13.9368C51.4956 14.0379 51.4505 14.1322 51.3822 14.2086L46.2138 19.9896C46.1632 20.0464 46.101 20.0919 46.0315 20.1229C45.962 20.154 45.8867 20.17 45.8106 20.1699ZM43.6625 16.9843L45.7679 18.866L49.812 14.3425L48.3572 14.2842C48.2292 14.2791 48.1072 14.2287 48.0129 14.142C47.9187 14.0553 47.8582 13.9379 47.8424 13.8108L47.6783 12.4916L43.6625 16.9843Z" fill="#102770"/>
<path d="M41.1095 18.4182C40.9794 18.4182 40.8536 18.3712 40.7553 18.286C40.657 18.2007 40.5927 18.0828 40.5743 17.954L39.478 10.2759C39.4634 10.1737 39.4784 10.0694 39.5211 9.97544C39.5639 9.88147 39.6327 9.80172 39.7194 9.74562C39.8061 9.68951 39.907 9.6594 40.0103 9.65885C40.1135 9.65829 40.2148 9.68731 40.302 9.74248L42.1596 10.9168L43.4584 9.30819C43.5245 9.22627 43.6131 9.16545 43.7134 9.13319C43.8136 9.10093 43.921 9.09863 44.0226 9.12657C44.1241 9.15451 44.2152 9.21149 44.2848 9.2905C44.3544 9.36951 44.3994 9.46712 44.4143 9.57134L45.5113 17.2478C45.5315 17.3898 45.4946 17.5339 45.4086 17.6486C45.3226 17.7633 45.1946 17.8392 45.0527 17.8595L41.1862 18.4128C41.1608 18.4164 41.1352 18.4182 41.1095 18.4182ZM40.7139 11.2821L41.5683 17.2658L44.3644 16.8657L43.5196 10.9537L42.6984 11.9708C42.6151 12.074 42.4968 12.1429 42.366 12.1646C42.2351 12.1862 42.1009 12.159 41.9888 12.0882L40.7139 11.2821Z" fill="#102770"/>
<path d="M22.1429 9.66729C22.1429 9.66729 23.1418 7.41555 26.2338 4.96558C37.1201 13.8865 49.7832 18.3186 64.6608 17.1556L63.3583 19.3416L38.4143 17.9225L22.1429 9.66729Z" fill="white"/>
<g opacity="0.3">
<path d="M62.0992 19.2705L38.4138 17.9227L22.1438 9.66786C22.1438 9.66786 23.1426 7.41618 26.2341 4.96509C36.6902 13.5343 48.7836 17.9599 62.9037 17.2673C62.6471 17.894 62.3509 18.6372 62.0992 19.2705Z" fill="#102770"/>
</g>
<path d="M63.3584 19.8821C63.3482 19.8821 63.3379 19.8818 63.3275 19.8812L38.3835 18.4621C38.309 18.4579 38.2361 18.4383 38.1696 18.4045L21.8982 10.1492C21.7747 10.0865 21.68 9.97882 21.6336 9.84834C21.5871 9.71785 21.5926 9.57452 21.6487 9.44792C21.6821 9.37264 22.4929 7.58065 24.8354 5.44449C25.2052 5.10568 25.6837 4.90965 26.1849 4.89152C26.6862 4.87338 27.1775 5.03434 27.5709 5.34554C38.2485 13.7413 50.4606 17.552 63.8674 16.6705C64.038 16.6589 64.2085 16.6942 64.3605 16.7725C64.5124 16.8509 64.6401 16.9693 64.7296 17.115C64.819 17.2607 64.867 17.4281 64.8681 17.5991C64.8693 17.7701 64.8236 17.9381 64.7361 18.085L63.8227 19.6182C63.7748 19.6986 63.7068 19.7652 63.6254 19.8115C63.544 19.8577 63.452 19.8821 63.3584 19.8821ZM38.558 17.3891L63.0617 18.7831L63.6672 17.7667C56.7975 18.1868 50.1965 17.4047 44.0455 15.4406C38.0284 13.5191 32.2607 10.4087 26.9026 6.19556C26.7102 6.04322 26.4698 5.96437 26.2245 5.97313C25.9792 5.98189 25.7451 6.0777 25.564 6.24338C24.0763 7.60011 23.2525 8.80923 22.8816 9.43562L38.558 17.3891Z" fill="#102770"/>
<path d="M26.5681 14.2904C25.6273 17.4001 23.5698 19.5306 21.9733 19.0476C20.3752 18.5641 19.8437 15.6504 20.7846 12.5406C21.7254 9.43092 23.7829 7.3005 25.381 7.78401C26.4355 8.10304 27.0261 9.48445 27.0327 11.2825C27.0369 12.205 26.8867 13.2375 26.5681 14.2904Z" fill="white"/>
<g opacity="0.3">
<path d="M22.542 19.1137L22.541 19.1123C21.2461 18.3067 20.8759 15.6259 21.7368 12.7802C22.5696 10.0303 24.2768 8.04477 25.766 7.95923C26.5781 8.46746 27.0278 9.71642 27.032 11.2829C27.0375 12.2056 26.8867 13.2386 26.5679 14.291C25.7362 17.0423 24.0293 19.0255 22.542 19.1137Z" fill="#102770"/>
</g>
<path d="M22.445 19.6579C22.2322 19.6582 22.0205 19.627 21.8169 19.5654C20.8403 19.2699 20.1577 18.315 19.8951 16.8764C19.6555 15.5646 19.7877 13.9693 20.2672 12.3844C21.3103 8.93627 23.6251 6.68857 25.5377 7.26684C26.8046 7.65015 27.5657 9.15078 27.5734 11.2809C27.5779 12.2823 27.4094 13.3774 27.0858 14.4473L27.0857 14.4473C26.6063 16.032 25.832 17.433 24.9056 18.3922C24.1028 19.2233 23.2493 19.6579 22.445 19.6579ZM24.9273 8.25934C23.7919 8.25934 22.1377 9.93579 21.302 12.6976C20.8713 14.1211 20.7495 15.5362 20.9587 16.6822C21.1423 17.6871 21.5692 18.3608 22.13 18.5304C22.6891 18.6995 23.4181 18.3757 24.1278 17.641C24.9373 16.803 25.6202 15.5576 26.0509 14.1342L26.0507 14.1343C26.3436 13.166 26.4962 12.1809 26.4921 11.2853C26.4863 9.70394 25.9888 8.53306 25.2245 8.30181C25.1281 8.27312 25.0279 8.25881 24.9273 8.25934Z" fill="#282E6A"/>
<path d="M21.9734 19.0479C22.111 19.0699 22.2487 19.0919 22.3842 19.1151C22.2449 19.1107 22.1068 19.088 21.9734 19.0479Z" fill="white"/>
<path d="M22.3845 19.6136C22.3787 19.6136 22.373 19.6136 22.3671 19.6133C22.1846 19.6073 22.0037 19.5776 21.8289 19.5249C21.7078 19.4883 21.6052 19.4071 21.5418 19.2976C21.4784 19.1882 21.4589 19.0588 21.4874 18.9355C21.5158 18.8123 21.5899 18.7045 21.6948 18.6338C21.7998 18.5632 21.9276 18.5351 22.0524 18.5551L22.0782 18.5593C22.2089 18.5803 22.3395 18.6012 22.4682 18.6232C22.5913 18.6443 22.7021 18.7108 22.7786 18.8096C22.855 18.9085 22.8916 19.0324 22.8811 19.1569C22.8706 19.2814 22.8137 19.3974 22.7217 19.482C22.6298 19.5666 22.5094 19.6136 22.3845 19.6136Z" fill="#282E6A"/>
<path d="M23.0874 19.0004C21.6773 17.4411 21.8588 12.8658 24.2383 10.3013L27.0271 11.6337C27.0128 14.615 25.6996 17.0706 23.0874 19.0004Z" fill="white"/>
<g opacity="0.3">
<path d="M23.6238 18.5815C22.7761 16.6483 23.1551 12.9779 25.1438 10.7329L27.0273 11.6328C27.0125 14.4036 25.878 16.7198 23.6238 18.5815Z" fill="#102770"/>
</g>
<path d="M60.3113 30.6463C57.4724 29.2351 54.4363 27.921 51.2708 26.7116C45.4066 24.4738 39.0967 22.5951 32.7509 21.1328C30.3868 20.5869 28.0175 20.1009 25.6643 19.6753C24.5776 19.4775 23.4841 19.2909 22.3838 19.1157C23.9065 19.1669 25.7066 17.1391 26.5679 14.2911C26.8867 13.2387 27.0375 12.2058 27.032 11.283C27.0265 9.73418 26.5887 8.49292 25.7909 7.97607C28.9303 9.45373 32.156 10.8359 35.4224 12.0945C41.3134 14.3683 47.3384 16.2458 53.2343 17.5829C56.7957 18.3916 60.3111 19.0022 63.7198 19.3834C65.24 19.8429 65.7954 22.508 65.0326 25.4464C64.9946 25.5929 64.9539 25.7414 64.9085 25.8892C63.9673 29 61.9075 31.13 60.3113 30.6463Z" fill="white"/>
<g opacity="0.3">
<path d="M36.9895 13.8731C41.4399 15.5163 45.9503 16.9273 50.4089 18.0436C50.5769 18.0853 50.7316 18.1686 50.8591 18.2857C50.9865 18.4028 51.0825 18.55 51.1383 18.7138C51.1941 18.8777 51.2079 19.0529 51.1784 19.2234C51.1489 19.3939 51.0771 19.5543 50.9695 19.6899C50.3939 20.4172 50.0167 21.1552 49.8378 21.9041C49.6824 22.5454 49.6734 23.2134 49.8115 23.8586C50.5606 24.1289 51.3043 24.4048 52.0424 24.6862C55.2074 25.8945 58.2431 27.2091 61.0821 28.6206C62.3584 29.0056 63.9313 27.722 64.991 25.6016C64.9645 25.6979 64.9379 25.7928 64.9087 25.8894C64.793 26.2721 64.6571 26.6484 64.5014 27.0167C63.454 29.4958 61.7063 31.0695 60.3119 30.646C57.4729 29.2345 54.436 27.9214 51.2708 26.7117C45.4067 24.4731 39.097 22.5945 32.7505 21.1326C30.3871 20.5873 28.0175 20.1007 25.6641 19.6749C25.0543 19.5644 24.443 19.4573 23.8301 19.3535C23.35 19.2722 22.8678 19.1929 22.3835 19.1156C23.2535 19.1447 24.2131 18.4966 25.0369 17.4033C25.5044 17.483 25.9706 17.565 26.4357 17.6494C28.7891 18.0751 31.1572 18.5605 33.5221 19.1071C33.9735 19.2102 34.4239 19.3175 34.8758 19.4261C35.2184 19.042 35.5085 18.6142 35.7385 18.1538C36.2396 17.1353 36.4161 15.9493 36.1802 14.5519C36.102 14.0887 36.5488 13.7104 36.9895 13.8731Z" fill="#102770"/>
</g>
<path d="M60.7723 31.255C60.5633 31.2553 60.3554 31.2248 60.1553 31.1644C60.1265 31.1556 60.0984 31.1445 60.0714 31.1311C50.513 26.3849 38.2596 22.5051 25.5682 20.2066C24.4961 20.0124 23.3961 19.8247 22.2987 19.649C22.1629 19.6272 22.0405 19.5545 21.9564 19.4456C21.8723 19.3367 21.8329 19.1999 21.8461 19.063C21.8594 18.9261 21.9244 18.7993 22.0278 18.7086C22.1312 18.6179 22.2653 18.5701 22.4028 18.5748C23.5216 18.6107 25.195 16.963 26.0509 14.1341C26.3437 13.166 26.4962 12.1809 26.4921 11.2853C26.4873 9.89817 26.1155 8.83092 25.4973 8.42966C25.3823 8.35504 25.3 8.23956 25.267 8.10657C25.234 7.97358 25.2526 7.83301 25.3193 7.71327C25.3859 7.59354 25.4956 7.50357 25.626 7.46157C25.7564 7.41957 25.8979 7.42866 26.0219 7.48701C38.8493 13.5233 52.2586 17.5573 63.7797 18.846C63.8124 18.8497 63.8447 18.8563 63.8763 18.8658C65.6869 19.4136 66.4087 22.3012 65.5552 25.5826C65.5167 25.7341 65.473 25.8913 65.4258 26.0469C64.4928 29.1309 62.542 31.255 60.7723 31.255ZM60.5071 30.1402C61.6353 30.4304 63.4893 28.7134 64.391 25.7337C64.4333 25.5936 64.4727 25.4522 64.5079 25.3134C65.1819 22.7223 64.7756 20.3218 63.6053 19.9145C52.498 18.6646 39.6706 14.8974 27.2863 9.26355C27.4716 9.84432 27.5707 10.5258 27.5734 11.2809C27.5779 12.2822 27.4094 13.3773 27.0859 14.4472C26.4933 16.4057 25.4748 18.0045 24.348 18.8932C24.8227 18.9748 25.2937 19.058 25.761 19.1426C38.5292 21.4551 50.8669 25.3604 60.5071 30.1402Z" fill="#102770"/>
<path d="M45.2235 24.5648L39.7289 22.9024C41.0411 20.2663 41.8998 17.428 42.269 14.5066L47.7636 16.1689C47.5519 19.3009 46.7704 22.1338 45.2235 24.5648Z" fill="#22A7F0"/>
<g opacity="0.57">
<path d="M40.4713 21.2681C40.2777 21.8291 40.0637 22.3839 39.8291 22.9326L39.7278 22.9024C39.9954 22.3629 40.2433 21.8181 40.4713 21.2681Z" fill="white"/>
</g>
<g opacity="0.57">
<path d="M46.2866 22.5719C46.7891 21.0343 47.0817 19.3876 47.2001 17.649L42.0198 16.0813C42.1195 15.5612 42.2009 15.0361 42.2687 14.5066L47.7643 16.169C47.6075 18.4795 47.1418 20.6284 46.2866 22.5719Z" fill="white"/>
</g>
<g opacity="0.57">
<path d="M40.4713 21.268C41.0638 19.5549 41.4771 17.7849 41.7045 15.9866L42.0198 16.0813C41.6855 17.8594 41.1666 19.5977 40.4713 21.268Z" fill="white"/>
</g>
<g opacity="0.3">
<path d="M45.2234 24.5646L39.7278 22.9022C40.0848 22.182 40.4073 21.451 40.6955 20.7089L45.9555 22.3001C46.4427 21.5335 46.858 20.7236 47.1962 19.8806C46.7778 21.5672 46.1329 23.1363 45.2234 24.5646Z" fill="#282E6A"/>
</g>
<path d="M45.2235 25.1056C45.1705 25.1056 45.1177 25.0977 45.067 25.0823L39.5723 23.42C39.4971 23.3972 39.4277 23.3584 39.369 23.306C39.3104 23.2537 39.2638 23.1893 39.2326 23.1171C39.2014 23.045 39.1863 22.9669 39.1884 22.8883C39.1905 22.8097 39.2097 22.7325 39.2447 22.6621C40.5278 20.0792 41.3688 17.2993 41.7328 14.4383C41.7427 14.3603 41.7695 14.2855 41.8114 14.2189C41.8532 14.1524 41.9091 14.0958 41.975 14.053C42.041 14.0103 42.1154 13.9824 42.1933 13.9714C42.2711 13.9604 42.3504 13.9665 42.4256 13.9892L47.9201 15.6516C48.0371 15.687 48.1387 15.7611 48.2082 15.8617C48.2778 15.9623 48.3112 16.0835 48.3029 16.2055C48.0726 19.6138 47.2146 22.4431 45.6797 24.8551C45.6309 24.9318 45.5634 24.995 45.4837 25.0388C45.404 25.0826 45.3145 25.1055 45.2235 25.1056ZM40.4901 22.568L44.9817 23.9268C46.2218 21.8489 46.9471 19.4312 47.1915 16.5608L42.717 15.2071C42.3316 17.7548 41.5816 20.2339 40.4901 22.568Z" fill="#102770"/>
<path d="M23.0875 19.5412C23.0119 19.5413 22.9371 19.5255 22.868 19.4948C22.7989 19.4642 22.7371 19.4193 22.6864 19.3632C21.0499 17.5534 21.3163 12.6557 23.8419 9.93367C23.9203 9.84918 24.0237 9.79195 24.1369 9.77033C24.2501 9.74872 24.3673 9.76385 24.4713 9.81352L27.2601 11.146C27.3895 11.2078 27.489 11.3184 27.5368 11.4536C27.5846 11.5888 27.5767 11.7375 27.5149 11.8669C27.4531 11.9962 27.3424 12.0958 27.2072 12.1436C27.072 12.1913 26.9234 12.1834 26.794 12.1216L24.3765 10.9666C22.379 13.4305 22.3727 17.4042 23.4883 18.6379C23.5585 18.7155 23.6047 18.8117 23.6212 18.915C23.6377 19.0183 23.624 19.1242 23.5815 19.2198C23.5391 19.3154 23.4699 19.3967 23.3822 19.4537C23.2945 19.5107 23.1921 19.5411 23.0875 19.5412Z" fill="#282E6A"/>
<g opacity="0.3">
<path d="M56.6943 42.0906C56.5256 42.5565 56.4679 43.0553 56.5257 43.5474H57.5499C57.1502 43.0618 56.865 42.5762 56.6943 42.0906Z" fill="#282E6A"/>
</g>
<path d="M19.4116 35.561H36.1195V46.4277H19.4116C18.3559 46.4277 17.3434 46.0083 16.5969 45.2618C15.8504 44.5153 15.431 43.5028 15.431 42.4471V39.5416C15.431 39.0189 15.534 38.5013 15.734 38.0183C15.9341 37.5354 16.2273 37.0965 16.5969 36.7269C16.9665 36.3573 17.4054 36.0641 17.8883 35.864C18.3713 35.664 18.8889 35.561 19.4116 35.561Z" fill="#F7C714"/>
<g opacity="0.57">
<path d="M15.4313 39.5423V40.9086C15.4311 39.8528 15.8503 38.8402 16.5967 38.0935C17.3431 37.3469 18.3555 36.9272 19.4113 36.927H36.1197V35.5608H19.4113C18.3555 35.561 17.3431 35.9806 16.5967 36.7273C15.8503 37.474 15.4311 38.4866 15.4313 39.5423Z" fill="white"/>
</g>
<g opacity="0.3">
<path d="M15.4313 39.9109V42.4466C15.4311 43.5023 15.8503 44.5149 16.5967 45.2616C17.3431 46.0083 18.3555 46.4279 19.4113 46.4281H36.1197V43.8909H19.4113C18.8886 43.8909 18.371 43.788 17.8881 43.588C17.4052 43.3881 16.9664 43.0949 16.5969 42.7253C16.2273 42.3557 15.9341 41.9169 15.7341 41.434C15.5341 40.9511 15.4312 40.4336 15.4313 39.9109Z" fill="#282E6A"/>
</g>
<path d="M36.1196 46.9682H19.4117C16.9186 46.9682 14.8905 44.94 14.8905 42.447V39.5415C14.8905 37.0485 16.9186 35.0203 19.4117 35.0203H36.1196C36.263 35.0203 36.4005 35.0772 36.5019 35.1786C36.6033 35.28 36.6602 35.4175 36.6602 35.5609V46.4276C36.6602 46.571 36.6033 46.7085 36.5019 46.8099C36.4005 46.9113 36.263 46.9682 36.1196 46.9682ZM19.4117 36.1015C18.4997 36.1026 17.6253 36.4653 16.9805 37.1102C16.3356 37.7551 15.9728 38.6295 15.9718 39.5415V42.447C15.9728 43.359 16.3355 44.2333 16.9804 44.8782C17.6253 45.5231 18.4997 45.8859 19.4117 45.887H35.579V36.1015H19.4117Z" fill="#282E6A"/>
<path d="M59.6207 44.9491C59.6268 45.1431 59.5938 45.3363 59.5237 45.5173C59.4536 45.6983 59.3479 45.8634 59.2128 46.0028C59.0777 46.1421 58.916 46.2529 58.7373 46.3286C58.5585 46.4043 58.3664 46.4433 58.1723 46.4434H35.7318C35.2523 46.4433 34.7775 46.3487 34.3345 46.1651C33.8916 45.9815 33.4891 45.7124 33.1502 45.3733C32.8112 45.0341 32.5424 44.6315 32.3591 44.1884C32.1758 43.7453 32.0816 43.2705 32.0818 42.791V39.2134C32.0817 38.2452 32.4662 37.3165 33.1506 36.6316C33.8351 35.9467 34.7635 35.5616 35.7318 35.561H58.112C58.9062 35.561 59.5966 36.1742 59.6207 36.966C59.6267 37.1599 59.5937 37.3529 59.5235 37.5338C59.4534 37.7146 59.3476 37.8795 59.2125 38.0187C59.0774 38.1579 58.9157 38.2685 58.737 38.3439C58.5583 38.4193 58.3663 38.4581 58.1723 38.4578H36.1132C35.812 38.4584 35.5234 38.5785 35.3107 38.7917C35.098 39.0048 34.9786 39.2937 34.9786 39.5948V42.4096C34.9786 42.7107 35.098 42.9996 35.3107 43.2127C35.5234 43.4259 35.812 43.546 36.1132 43.5466H58.112C58.9062 43.5466 59.5966 44.1573 59.6207 44.9491Z" fill="#F7C714"/>
<g opacity="0.57">
<path d="M34.9783 42.4089V43.2942C34.9782 43.5955 35.0977 43.8844 35.3106 44.0975C35.5234 44.3107 35.8122 44.4306 36.1134 44.4309H58.1119C58.7692 44.4309 59.3532 44.8478 59.5499 45.4396C59.6019 45.2816 59.6257 45.1156 59.6202 44.9493C59.5968 44.1577 58.9066 43.5472 58.1119 43.5472H36.1134C35.812 43.5465 35.5232 43.4262 35.3104 43.2128C35.0976 42.9994 34.9782 42.7103 34.9783 42.4089Z" fill="white"/>
</g>
<g opacity="0.3">
<path d="M32.082 41.7002V42.7916C32.0818 43.76 32.4663 44.6888 33.1509 45.3737C33.8355 46.0586 34.7642 46.4435 35.7326 46.4437H58.1729C58.3669 46.4436 58.559 46.4045 58.7376 46.3287C58.9162 46.253 59.0778 46.1422 59.2128 46.0028C59.3478 45.8635 59.4534 45.6984 59.5234 45.5175C59.5934 45.3365 59.6264 45.1434 59.6203 44.9495C59.6155 44.7787 59.579 44.6103 59.5126 44.4529C59.4036 44.7187 59.218 44.9461 58.9795 45.1063C58.741 45.2664 58.4602 45.352 58.1729 45.3523H35.7326C34.7642 45.3521 33.8355 44.9672 33.1509 44.2823C32.4663 43.5974 32.0818 42.6686 32.082 41.7002Z" fill="#282E6A"/>
</g>
<g opacity="0.57">
<path d="M32.082 39.2129V40.3777C32.0821 39.4094 32.4667 38.4807 33.1512 37.7959C33.8358 37.111 34.7643 36.7261 35.7326 36.7256H58.112C58.7163 36.7256 59.2597 37.08 59.4954 37.5984C59.5849 37.3999 59.6276 37.1836 59.6203 36.966C59.5969 36.1744 58.9068 35.5608 58.112 35.5608H35.7326C34.7643 35.5613 33.8358 35.9463 33.1512 36.6311C32.4667 37.3159 32.0821 38.2446 32.082 39.2129Z" fill="white"/>
</g>
<path d="M58.1724 46.9838H35.7318C33.4211 46.9838 31.5413 45.1029 31.5413 42.7908V39.2133C31.5413 36.9013 33.4211 35.0203 35.7318 35.0203H58.112C59.2095 35.0203 60.1287 35.8857 60.1611 36.9494C60.1693 37.2156 60.1239 37.4808 60.0276 37.7291C59.9314 37.9774 59.7861 38.2039 59.6006 38.395C59.4151 38.5861 59.1931 38.738 58.9478 38.8417C58.7024 38.9453 58.4387 38.9986 58.1724 38.9983H36.1132C35.9554 38.9988 35.8042 39.0619 35.6929 39.1737C35.5815 39.2855 35.5191 39.4369 35.5193 39.5947V42.4094C35.5191 42.5672 35.5815 42.7186 35.6929 42.8304C35.8042 42.9422 35.9554 43.0053 36.1132 43.0058H58.112C59.2096 43.0058 60.1289 43.87 60.1611 44.9325V44.933C60.1693 45.1993 60.1239 45.4645 60.0276 45.713C59.9314 45.9614 59.7862 46.188 59.6007 46.3792C59.4152 46.5705 59.1932 46.7226 58.9479 46.8264C58.7025 46.9303 58.4388 46.9838 58.1724 46.9838ZM35.7318 36.1015C34.9071 36.1028 34.1166 36.4312 33.5338 37.0145C32.9509 37.5979 32.6232 38.3886 32.6225 39.2133V42.7908C32.6232 43.6155 32.9509 44.4062 33.5338 44.9896C34.1166 45.573 34.9071 45.9013 35.7318 45.9026H58.1724C58.2941 45.9025 58.4146 45.878 58.5267 45.8305C58.6388 45.783 58.7402 45.7134 58.8249 45.6259C58.9096 45.5385 58.9759 45.4349 59.0198 45.3213C59.0637 45.2077 59.0843 45.0865 59.0805 44.9648C59.0652 44.4808 58.631 44.087 58.112 44.087H36.1132C35.6687 44.0862 35.2427 43.9091 34.9287 43.5946C34.6146 43.2801 34.4382 42.8538 34.438 42.4094V39.5947C34.4382 39.1503 34.6146 38.724 34.9287 38.4095C35.2427 38.095 35.6687 37.9179 36.1132 37.9171H58.1724C58.294 37.9173 58.4144 37.8931 58.5265 37.8458C58.6386 37.7986 58.74 37.7292 58.8248 37.642C58.9095 37.5547 58.9758 37.4513 59.0197 37.3378C59.0637 37.2244 59.0843 37.1033 59.0805 36.9817C59.0657 36.4966 58.6313 36.1015 58.112 36.1015H35.7318Z" fill="#282E6A"/>
<path d="M57.5496 43.5467H36.1132C35.8121 43.5461 35.5235 43.4261 35.3108 43.2129C35.0981 42.9997 34.9786 42.7109 34.9786 42.4097V39.595C34.9786 39.2939 35.0981 39.005 35.3108 38.7918C35.5235 38.5787 35.8121 38.4586 36.1132 38.458H57.5496C56.1543 40.1551 56.1543 41.8513 57.5496 43.5467Z" fill="white"/>
<g opacity="0.3">
<path d="M34.9783 39.5955V41.7705C34.9782 41.4692 35.0976 41.1801 35.3104 40.9667C35.5232 40.7533 35.812 40.633 36.1134 40.6323H56.5255C56.6114 39.9078 56.9528 39.1828 57.5498 38.4573H36.1134C35.812 38.458 35.5232 38.5782 35.3104 38.7916C35.0976 39.005 34.9782 39.2941 34.9783 39.5955Z" fill="#282E6A"/>
</g>
<path d="M57.5494 44.0872H36.113C35.6686 44.0864 35.2426 43.9093 34.9286 43.5948C34.6145 43.2803 34.438 42.854 34.4379 42.4096V39.5949C34.438 39.1504 34.6145 38.7242 34.9286 38.4097C35.2426 38.0952 35.6686 37.9181 36.113 37.9172H57.5494C57.6519 37.9172 57.7522 37.9463 57.8388 38.0011C57.9253 38.056 57.9945 38.1343 58.0383 38.2269C58.0821 38.3195 58.0986 38.4227 58.086 38.5244C58.0734 38.6261 58.0322 38.7221 57.9671 38.8012C56.7326 40.3028 56.7326 41.7016 57.9671 43.2032C58.0322 43.2824 58.0734 43.3784 58.086 43.4801C58.0986 43.5817 58.0821 43.6849 58.0383 43.7776C57.9945 43.8702 57.9253 43.9485 57.8388 44.0033C57.7522 44.0581 57.6519 44.0872 57.5494 44.0872ZM36.113 38.9985C35.9552 38.999 35.8041 39.0621 35.6928 39.1739C35.5814 39.2857 35.519 39.4371 35.5191 39.5949V42.4096C35.519 42.5673 35.5814 42.7187 35.6928 42.8306C35.8041 42.9424 35.9552 43.0054 36.113 43.0059H56.5223C55.7818 41.6819 55.7818 40.3226 56.5223 38.9985H36.113Z" fill="#282E6A"/>
<g opacity="0.25">
<path d="M19.4285 38.9849C19.4285 39.5935 20.6706 40.225 22.2028 40.225C23.735 40.225 24.9771 39.5935 24.9771 38.9849C24.9771 38.3763 23.735 38.4474 22.2028 38.4474C20.6706 38.4474 19.4285 38.3763 19.4285 38.9849Z" fill="white"/>
</g>
<g opacity="0.25">
<path d="M25.7755 39.0408C25.7755 39.4562 26.3115 39.7929 26.9726 39.7929C27.6337 39.7929 28.1696 39.4562 28.1696 39.0408C28.1696 38.6254 27.6337 38.4448 26.9726 38.4448C26.3115 38.4448 25.7755 38.6254 25.7755 39.0408Z" fill="white"/>
</g>
<g opacity="0.3">
<path d="M50.8158 31.0344C50.6471 31.5003 50.5893 31.9991 50.6471 32.4912H51.6714C51.2717 32.0056 50.9865 31.52 50.8158 31.0344Z" fill="#282E6A"/>
</g>
<path d="M13.5333 24.5049H30.2412V35.3716H13.5333C12.4776 35.3716 11.4651 34.9522 10.7186 34.2057C9.97212 33.4592 9.55273 32.4467 9.55273 31.391V28.4855C9.55273 27.4297 9.97212 26.4173 10.7186 25.6708C11.4651 24.9243 12.4776 24.5049 13.5333 24.5049Z" fill="#FF5722"/>
<g opacity="0.57">
<path d="M9.55286 28.4862V29.8524C9.55268 28.7967 9.97189 27.7841 10.7183 27.0374C11.4647 26.2907 12.4771 25.8711 13.5329 25.8709H30.2413V24.5046H13.5329C12.4771 24.5049 11.4647 24.9245 10.7183 25.6712C9.97189 26.4178 9.55268 27.4304 9.55286 28.4862Z" fill="white"/>
</g>
<g opacity="0.3">
<path d="M9.55286 28.8545V31.3902C9.55268 32.446 9.97189 33.4586 10.7183 34.2052C11.4647 34.9519 12.4771 35.3715 13.5329 35.3718H30.2413V32.8345H13.5329C13.0102 32.8345 12.4926 32.7316 12.0097 32.5317C11.5268 32.3317 11.088 32.0385 10.7184 31.6689C10.3489 31.2993 10.0557 30.8605 9.85569 30.3776C9.6557 29.8947 9.5528 29.3772 9.55286 28.8545Z" fill="#102770"/>
</g>
<path d="M30.2412 35.9123H13.5333C11.0402 35.9123 9.01208 33.8841 9.01208 31.3911V28.4856C9.01208 25.9926 11.0402 23.9644 13.5333 23.9644H30.2412C30.3846 23.9644 30.5221 24.0213 30.6235 24.1227C30.7249 24.2241 30.7818 24.3616 30.7818 24.505V35.3717C30.7818 35.5151 30.7249 35.6526 30.6235 35.754C30.5221 35.8554 30.3846 35.9123 30.2412 35.9123ZM13.5333 25.0456C12.6213 25.0467 11.7469 25.4094 11.102 26.0543C10.4571 26.6992 10.0944 27.5736 10.0934 28.4856V31.3911C10.0944 32.3031 10.4572 33.1775 11.102 33.8224C11.7469 34.4673 12.6213 34.83 13.5333 34.831H29.7006V25.0456H13.5333Z" fill="#102770"/>
<path d="M53.7423 33.8929C53.7483 34.0869 53.7153 34.2802 53.6452 34.4612C53.5752 34.6422 53.4694 34.8073 53.3344 34.9466C53.1993 35.086 53.0376 35.1968 52.8588 35.2725C52.6801 35.3482 52.488 35.3872 52.2939 35.3872H29.8533C29.3738 35.3871 28.8991 35.2926 28.4561 35.109C28.0132 34.9254 27.6107 34.6563 27.2718 34.3171C26.9328 33.9779 26.664 33.5753 26.4807 33.1322C26.2974 32.6892 26.2031 32.2143 26.2034 31.7348V28.1573C26.2033 27.189 26.5878 26.2603 27.2722 25.5754C27.9567 24.8905 28.8851 24.5055 29.8533 24.5049H52.2336C53.0278 24.5049 53.7182 25.118 53.7423 25.9098C53.7483 26.1037 53.7152 26.2968 53.6451 26.4776C53.575 26.6585 53.4692 26.8234 53.3341 26.9626C53.199 27.1017 53.0373 27.2123 52.8586 27.2877C52.6799 27.3632 52.4879 27.4019 52.2939 27.4017H30.2348C29.9336 27.4023 29.645 27.5224 29.4323 27.7355C29.2196 27.9487 29.1001 28.2375 29.1002 28.5387V31.3534C29.1001 31.6546 29.2196 31.9434 29.4323 32.1566C29.645 32.3697 29.9336 32.4898 30.2348 32.4904H52.2336C53.0278 32.4904 53.7182 33.1012 53.7423 33.8929Z" fill="#FF5722"/>
<g opacity="0.57">
<path d="M29.0999 31.3528V32.2381C29.0998 32.5393 29.2193 32.8282 29.4322 33.0414C29.645 33.2545 29.9338 33.3744 30.235 33.3748H52.2335C52.8908 33.3748 53.4748 33.7917 53.6715 34.3835C53.7235 34.2254 53.7473 34.0595 53.7418 33.8932C53.7184 33.1015 53.0282 32.491 52.2335 32.491H30.235C29.9336 32.4903 29.6448 32.3701 29.432 32.1567C29.2192 31.9433 29.0997 31.6542 29.0999 31.3528Z" fill="white"/>
</g>
<g opacity="0.3">
<path d="M26.2035 30.644V31.7355C26.2033 32.7038 26.5878 33.6326 27.2724 34.3175C27.957 35.0024 28.8856 35.3873 29.854 35.3876H52.2944C52.4884 35.3874 52.6804 35.3483 52.859 35.2726C53.0377 35.1969 53.1993 35.086 53.3342 34.9467C53.4692 34.8073 53.5749 34.6423 53.6449 34.4613C53.7149 34.2804 53.7478 34.0872 53.7418 33.8933C53.737 33.7225 53.7004 33.5542 53.6341 33.3968C53.525 33.6626 53.3395 33.89 53.1009 34.0501C52.8624 34.2102 52.5817 34.2959 52.2944 34.2961H29.854C28.8856 34.2959 27.957 33.911 27.2724 33.2261C26.5878 32.5412 26.2033 31.6124 26.2035 30.644Z" fill="#102770"/>
</g>
<g opacity="0.57">
<path d="M26.2035 28.1567V29.3215C26.2036 28.3532 26.5881 27.4246 27.2727 26.7397C27.9572 26.0549 28.8857 25.6699 29.854 25.6694H52.2335C52.8378 25.6694 53.3811 26.0239 53.6169 26.5423C53.7063 26.3438 53.7491 26.1275 53.7418 25.9099C53.7184 25.1183 53.0282 24.5046 52.2335 24.5046H29.854C28.8857 24.5051 27.9572 24.8901 27.2727 25.5749C26.5881 26.2598 26.2036 27.1884 26.2035 28.1567Z" fill="white"/>
</g>
<path d="M52.294 35.928H29.8534C27.5427 35.928 25.6627 34.047 25.6627 31.735V28.1574C25.6627 25.8454 27.5427 23.9644 29.8534 23.9644H52.2336C53.3309 23.9644 54.2502 24.8297 54.2828 25.8934C54.291 26.1596 54.2456 26.4248 54.1493 26.6731C54.053 26.9215 53.9078 27.1479 53.7223 27.3391C53.5368 27.5302 53.3147 27.6821 53.0694 27.7857C52.824 27.8894 52.5603 27.9427 52.294 27.9424H30.2348C30.077 27.9429 29.9258 28.006 29.8145 28.1178C29.7032 28.2296 29.6407 28.381 29.6409 28.5388V31.3536C29.6407 31.5113 29.7032 31.6627 29.8145 31.7746C29.9258 31.8864 30.077 31.9494 30.2348 31.9499H52.2336C53.3309 31.9499 54.2502 32.8142 54.2828 33.8765V33.8772C54.2909 34.1435 54.2455 34.4087 54.1493 34.6571C54.053 34.9056 53.9078 35.1321 53.7223 35.3234C53.5368 35.5147 53.3148 35.6668 53.0695 35.7706C52.8241 35.8745 52.5604 35.928 52.294 35.928ZM29.8534 25.0456C29.0287 25.0469 28.2382 25.3752 27.6553 25.9586C27.0723 26.5419 26.7446 27.3327 26.744 28.1574V31.735C26.7446 32.5597 27.0723 33.3504 27.6553 33.9338C28.2382 34.5172 29.0287 34.8455 29.8534 34.8467H52.294C52.4157 34.8467 52.5361 34.8222 52.6482 34.7747C52.7602 34.7273 52.8616 34.6578 52.9463 34.5704C53.031 34.483 53.0973 34.3795 53.1412 34.266C53.1852 34.1525 53.2059 34.0313 53.2021 33.9097C53.1872 33.4253 52.7527 33.0312 52.2336 33.0312H30.2348C29.7903 33.0304 29.3643 32.8533 29.0503 32.5388C28.7362 32.2242 28.5598 31.798 28.5596 31.3536V28.5388C28.5598 28.0944 28.7362 27.6681 29.0503 27.3536C29.3643 27.0391 29.7903 26.862 30.2348 26.8612H52.294C52.4156 26.8614 52.536 26.8372 52.6481 26.7899C52.7602 26.7427 52.8616 26.6733 52.9463 26.5861C53.0311 26.4988 53.0974 26.3954 53.1413 26.282C53.1852 26.1686 53.2059 26.0475 53.2021 25.9259C53.1872 25.4409 52.7527 25.0456 52.2336 25.0456H29.8534Z" fill="#102770"/>
<path d="M51.671 32.4903H30.2347C29.9335 32.4897 29.6449 32.3697 29.4322 32.1565C29.2195 31.9433 29.1001 31.6545 29.1001 31.3534V28.5386C29.1001 28.2375 29.2195 27.9486 29.4322 27.7354C29.6449 27.5223 29.9335 27.4022 30.2347 27.4016H51.671C50.2757 29.0987 50.2757 30.7949 51.671 32.4903Z" fill="white"/>
<g opacity="0.3">
<path d="M29.0999 28.5391V30.7142C29.0997 30.4128 29.2192 30.1237 29.432 29.9103C29.6448 29.6969 29.9336 29.5766 30.235 29.5759H50.6471C50.733 28.8514 51.0744 28.1264 51.6714 27.4009H30.235C29.9336 27.4016 29.6448 27.5218 29.432 27.7352C29.2192 27.9486 29.0997 28.2378 29.0999 28.5391Z" fill="#102770"/>
</g>
<path d="M51.6711 33.0309H30.2347C29.7903 33.0301 29.3643 32.853 29.0503 32.5384C28.7362 32.2239 28.5597 31.7977 28.5596 31.3532V28.5385C28.5597 28.094 28.7362 27.6678 29.0503 27.3533C29.3643 27.0388 29.7903 26.8617 30.2347 26.8608H51.6711C51.7736 26.8608 51.8739 26.8899 51.9605 26.9447C52.047 26.9996 52.1162 27.0779 52.16 27.1705C52.2037 27.2632 52.2203 27.3663 52.2076 27.468C52.195 27.5697 52.1537 27.6657 52.0886 27.7448C50.8541 29.2465 50.8541 30.6453 52.0886 32.1469C52.1537 32.226 52.195 32.322 52.2076 32.4237C52.2203 32.5254 52.2037 32.6286 52.16 32.7212C52.1162 32.8139 52.047 32.8922 51.9605 32.947C51.8739 33.0018 51.7736 33.0309 51.6711 33.0309ZM30.2347 27.9421C30.077 27.9426 29.9258 28.0057 29.8145 28.1175C29.7031 28.2293 29.6407 28.3807 29.6408 28.5385V31.3532C29.6407 31.511 29.7031 31.6624 29.8145 31.7742C29.9258 31.886 30.077 31.9491 30.2347 31.9496H50.644C49.9033 30.6255 49.9033 29.2662 50.644 27.9421H30.2347Z" fill="#102770"/>
<g opacity="0.25">
<path d="M13.55 27.9285C13.55 28.5371 14.7922 29.1686 16.3244 29.1686C17.8566 29.1686 19.0987 28.5371 19.0987 27.9285C19.0987 27.3199 17.8566 27.391 16.3244 27.391C14.7922 27.391 13.55 27.3199 13.55 27.9285Z" fill="white"/>
</g>
<g opacity="0.25">
<path d="M19.8971 27.9844C19.8971 28.3998 20.433 28.7365 21.0942 28.7365C21.7553 28.7365 22.2912 28.3998 22.2912 27.9844C22.2912 27.569 21.7553 27.3884 21.0942 27.3884C20.433 27.3884 19.8971 27.569 19.8971 27.9844Z" fill="white"/>
</g>
<path d="M41.9391 27.4622V31.1811L43.4258 30.0964L44.925 31.1811V27.4622H41.9391Z" fill="#F7C414"/>
<g opacity="0.3">
<path d="M44.9258 27.4617H41.9393V28.8054H44.9258V27.4617Z" fill="#102770"/>
</g>
<path d="M41.9392 31.6058C41.8265 31.6058 41.7185 31.561 41.6389 31.4814C41.5593 31.4017 41.5145 31.2937 41.5145 31.1811V27.4621C41.5145 27.4063 41.5255 27.3511 41.5468 27.2995C41.5682 27.248 41.5994 27.2012 41.6389 27.1618C41.6783 27.1223 41.7251 27.091 41.7766 27.0697C41.8282 27.0483 41.8834 27.0374 41.9392 27.0374H44.925C44.9808 27.0374 45.036 27.0483 45.0876 27.0697C45.1391 27.091 45.1859 27.1223 45.2253 27.1618C45.2648 27.2012 45.296 27.248 45.3174 27.2995C45.3387 27.3511 45.3497 27.4063 45.3497 27.4621V31.1811C45.3497 31.2593 45.3281 31.336 45.2872 31.4028C45.2464 31.4695 45.1879 31.5237 45.1182 31.5593C45.0485 31.5949 44.9704 31.6105 44.8924 31.6045C44.8144 31.5985 44.7395 31.571 44.6761 31.5251L43.427 30.6213L42.1894 31.5242C42.1168 31.5772 42.0291 31.6058 41.9392 31.6058ZM43.4259 29.6717C43.5153 29.6717 43.6024 29.6999 43.6748 29.7523L44.5004 30.3496V27.8868H42.3638V30.3455L43.1757 29.7533C43.2483 29.7002 43.336 29.6716 43.4259 29.6717Z" fill="#102770"/>
</svg>
