<svg width="31" height="31" viewBox="0 0 31 31" fill="none" xmlns="http://www.w3.org/2000/svg">
<mask id="path-1-outside-1_479_108" maskUnits="userSpaceOnUse" x="0" y="0.012085" width="20" height="31" fill="black">
<rect fill="white" y="0.012085" width="20" height="31"/>
<path d="M18.3548 17.5155C17.5532 18.4293 16.5772 19.1769 15.4786 19.7189V22.834C15.4786 23.1094 15.3692 23.3735 15.1744 23.5682C14.9797 23.763 14.7156 23.8724 14.4402 23.8724H8.21C7.93461 23.8724 7.6705 23.763 7.47577 23.5682C7.28104 23.3735 7.17164 23.1094 7.17164 22.834V19.7189C4.98348 18.6267 3.31067 16.7202 2.51217 14.4087C1.71367 12.0971 1.85312 9.56461 2.9006 7.35469C3.94807 5.14477 5.8201 3.43351 8.11495 2.58815C10.4098 1.74279 12.9446 1.8307 15.1754 2.833M7.17164 28.9998H15.4786H7.17164Z"/>
</mask>
<path d="M19.3369 18.3771C19.8128 17.8347 19.7588 17.0092 19.2164 16.5334C18.674 16.0576 17.8486 16.1115 17.3727 16.6539L19.3369 18.3771ZM15.4786 19.7189L14.9005 18.5473C14.4545 18.7673 14.1721 19.2216 14.1721 19.7189H15.4786ZM7.17164 19.7189H8.47809C8.47809 19.2237 8.19815 18.7711 7.75511 18.55L7.17164 19.7189ZM14.6399 4.02469C15.2981 4.3204 16.0713 4.02659 16.3671 3.36843C16.6628 2.71028 16.3689 1.93702 15.7108 1.64131L14.6399 4.02469ZM7.17164 27.6934C6.4501 27.6934 5.86519 28.2783 5.86519 28.9998C5.86519 29.7213 6.4501 30.3063 7.17164 30.3063V27.6934ZM15.4786 30.3063C16.2001 30.3063 16.785 29.7213 16.785 28.9998C16.785 28.2783 16.2001 27.6934 15.4786 27.6934V30.3063ZM17.3727 16.6539C16.6851 17.4377 15.8467 18.0805 14.9005 18.5473L16.0566 20.8905C17.3076 20.2733 18.4213 19.4208 19.3369 18.3771L17.3727 16.6539ZM14.1721 19.7189V22.834H16.785V19.7189H14.1721ZM14.1721 22.834C14.1721 22.7629 14.2004 22.6947 14.2506 22.6444L16.0982 24.492C16.538 24.0523 16.785 23.4559 16.785 22.834H14.1721ZM14.2506 22.6444C14.3009 22.5942 14.3691 22.5659 14.4402 22.5659V25.1788C15.0621 25.1788 15.6585 24.9318 16.0982 24.492L14.2506 22.6444ZM14.4402 22.5659H8.21V25.1788H14.4402V22.5659ZM8.21 22.5659C8.28111 22.5659 8.3493 22.5942 8.39957 22.6444L6.55197 24.492C6.9917 24.9318 7.58812 25.1788 8.21 25.1788V22.5659ZM8.39957 22.6444C8.44985 22.6947 8.47809 22.7629 8.47809 22.834H5.86519C5.86519 23.4559 6.11223 24.0523 6.55197 24.492L8.39957 22.6444ZM8.47809 22.834V19.7189H5.86519V22.834H8.47809ZM7.75511 18.55C5.87285 17.6104 4.43389 15.9705 3.74702 13.9821L1.27731 14.8352C2.18744 17.4699 4.09412 19.6429 6.58817 20.8878L7.75511 18.55ZM3.74702 13.9821C3.06015 11.9937 3.18011 9.81524 4.08115 7.91426L1.72005 6.79512C0.526133 9.31398 0.367186 12.2005 1.27731 14.8352L3.74702 13.9821ZM4.08115 7.91426C4.98219 6.01328 6.59251 4.54125 8.56655 3.81407L7.66335 1.36223C5.04769 2.32577 2.91396 4.27626 1.72005 6.79512L4.08115 7.91426ZM8.56655 3.81407C10.5406 3.08689 12.721 3.16251 14.6399 4.02469L15.7108 1.64131C13.1682 0.498884 10.279 0.398692 7.66335 1.36223L8.56655 3.81407ZM7.17164 30.3063H15.4786V27.6934H7.17164V30.3063Z" fill="#4A4A4A" mask="url(#path-1-outside-1_479_108)"/>
<path d="M20.9715 2.40594L20.9721 2.40305C21.2792 1.00094 23.2748 0.99267 23.5947 2.39042C23.5948 2.39067 23.5948 2.39092 23.5949 2.39118L23.6486 2.62478L23.649 2.62627C23.9104 3.77495 24.5058 4.82063 25.3602 5.63172C26.2146 6.44281 27.2898 6.98306 28.4505 7.18449L28.4518 7.18471C29.9052 7.43998 29.9052 9.52454 28.4518 9.77981L28.4507 9.78001C27.2904 9.98177 26.2156 10.5222 25.3615 11.3332C24.5075 12.1443 23.9124 13.1898 23.651 14.3382L23.6507 14.3397L23.5969 14.5734C23.5969 14.5736 23.5968 14.5739 23.5968 14.5741C23.2769 15.9719 21.2813 15.9636 20.9742 14.5615L20.9725 14.5536L20.9725 14.5536L20.9319 14.3565C20.6779 13.2048 20.0873 12.1546 19.2353 11.3391C18.3827 10.5232 17.3063 9.98077 16.1425 9.77794L20.9715 2.40594ZM20.9715 2.40594L20.9283 2.60774C20.6748 3.75986 20.0846 4.81067 19.2326 5.62666C18.3803 6.44296 17.3046 6.9874 16.1421 7.19081M20.9715 2.40594L16.1421 7.19081M16.1421 7.19081C14.6918 7.44319 14.6918 9.52557 16.1422 9.77789L16.1421 7.19081ZM23.012 2.77125C23.3021 4.04559 23.9626 5.20566 24.9105 6.10547C25.8583 7.00528 27.0512 7.60463 28.3388 7.82809C29.0719 7.95685 29.0719 9.00768 28.3388 9.13643C27.0515 9.36027 25.8592 9.95979 24.9117 10.8596C23.9643 11.7594 23.304 12.9192 23.0141 14.1933L23.012 2.77125Z" stroke="#4A4A4A" stroke-width="1.30645" stroke-linecap="round" stroke-linejoin="round"/>
</svg>
