<svg width="28" height="28" viewBox="0 0 28 28" fill="none" xmlns="http://www.w3.org/2000/svg">
<path d="M21.6997 17.0577L17.2997 14.8577C17.2131 14.8146 17.1166 14.795 17.02 14.8011C16.9235 14.8071 16.8302 14.8385 16.7497 14.8921L14.4617 16.4184C13.2039 15.8152 12.1897 14.801 11.5865 13.5432L13.1128 11.2552C13.1664 11.1747 13.1978 11.0814 13.2038 10.9849C13.2099 10.8883 13.1903 10.7918 13.1472 10.7052L10.9472 6.30525C10.9015 6.21341 10.8311 6.13615 10.7439 6.08221C10.6567 6.02827 10.5561 5.9998 10.4535 6C9.14071 6 7.88166 6.52152 6.95335 7.44982C6.02505 8.37813 5.50353 9.63718 5.50353 10.95C5.50681 14.0122 6.72473 16.9481 8.89006 19.1135C11.0554 21.2788 13.9913 22.4967 17.0535 22.5C18.3664 22.5 19.6254 21.9785 20.5537 21.0502C21.482 20.1219 22.0035 18.8628 22.0035 17.55C22.0036 17.4478 21.9752 17.3476 21.9215 17.2607C21.8679 17.1737 21.791 17.1035 21.6997 17.0577ZM17.0535 21.4C14.2829 21.3971 11.6266 20.2952 9.66748 18.336C7.70836 16.3769 6.60644 13.7206 6.60353 10.95C6.60337 9.9864 6.96455 9.05778 7.61574 8.34753C8.26693 7.63727 9.16079 7.19703 10.1208 7.11375L12.0183 10.9101L10.5058 13.1844C10.4554 13.2594 10.4242 13.3457 10.4151 13.4356C10.406 13.5256 10.4192 13.6164 10.4535 13.7C11.1843 15.4372 12.5663 16.8193 14.3035 17.55C14.3872 17.5848 14.4782 17.5983 14.5684 17.5894C14.6586 17.5806 14.7452 17.5495 14.8205 17.4991L17.0948 15.9866L20.8912 17.8841C20.8075 18.8441 20.3669 19.7378 19.6564 20.3888C18.9459 21.0397 18.0171 21.4005 17.0535 21.4ZM13.7535 0.5C11.3598 0.499555 9.00737 1.12404 6.92901 2.31169C4.85066 3.49933 3.11836 5.20898 1.90346 7.27153C0.688574 9.33408 0.0331876 11.6781 0.00213391 14.0716C-0.0289198 16.4652 0.565435 18.8254 1.72641 20.9187L0.0901572 25.8261C-0.00679619 26.1168 -0.0208662 26.4288 0.0495238 26.7271C0.119914 27.0254 0.271982 27.2981 0.488685 27.5148C0.705388 27.7315 0.978161 27.8836 1.27643 27.954C1.5747 28.0244 1.88668 28.0103 2.17741 27.9134L7.08478 26.2771C8.92048 27.2943 10.9646 27.8777 13.0607 27.9828C15.1567 28.0878 17.249 27.7117 19.1772 26.8832C21.1054 26.0546 22.8183 24.7958 24.1848 23.2029C25.5513 21.6101 26.535 19.7256 27.0607 17.6938C27.5863 15.6621 27.6399 13.537 27.2173 11.4813C26.7947 9.42561 25.9072 7.49395 24.6227 5.83429C23.3382 4.17464 21.6908 2.83103 19.8068 1.90641C17.9228 0.981795 15.8522 0.500704 13.7535 0.5ZM13.7535 26.9C11.5294 26.9007 9.34445 26.3149 7.41891 25.2019C7.33523 25.1537 7.24046 25.1281 7.14391 25.1276C7.08452 25.1278 7.02555 25.1375 6.96928 25.1565L1.82953 26.8697C1.73262 26.9021 1.62863 26.9068 1.52921 26.8833C1.42978 26.8598 1.33886 26.8091 1.26662 26.7369C1.19439 26.6647 1.1437 26.5737 1.12024 26.4743C1.09677 26.3749 1.10146 26.2709 1.13378 26.174L2.84703 21.0342C2.87174 20.9604 2.88048 20.8821 2.87266 20.8046C2.86483 20.727 2.84063 20.6521 2.80166 20.5846C1.407 18.1739 0.846895 15.3703 1.20824 12.6088C1.56958 9.84722 2.83217 7.28212 4.80013 5.31139C6.76809 3.34066 9.33142 2.07446 12.0924 1.70924C14.8535 1.34402 17.6579 1.90018 20.0705 3.29145C22.4832 4.68271 24.3693 6.83131 25.4363 9.40392C26.5032 11.9765 26.6913 14.8293 25.9714 17.5198C25.2515 20.2102 23.6639 22.5879 21.4548 24.2839C19.2457 25.9799 16.5386 26.8995 13.7535 26.9Z" fill="white"/>
</svg>
