<svg width="90" height="76" viewBox="0 0 90 76" fill="none" xmlns="http://www.w3.org/2000/svg">
<g opacity="0.1">
<path  d="M67.7686 22.4208C74.9899 25.0169 83.1116 25.2179 90.5019 22.9833M26.9823 76.4219C29.6361 70.185 29.3973 63.3356 26.3137 57.2403C23.9001 52.3869 23.247 47.0413 24.4368 41.8764C25.6266 36.7114 28.606 31.9581 33 28.2146C37.5043 24.4643 43.2275 21.9199 49.4482 20.902" stroke="#595959" stroke-width="6.57643" stroke-linecap="round" stroke-linejoin="round"/>
<path  d="M44.3663 58.8156C50.6185 57.7924 56.3675 55.2273 60.8814 51.4467M60.8814 51.4467C65.283 47.7073 68.2676 42.9537 69.4578 37.7871C70.6479 32.6206 69.9901 27.2731 67.5676 22.4211C64.5469 16.3243 64.3797 9.49184 67.0996 3.29565M60.8814 51.4467L33.2671 28.2149M3.58008 56.7343C10.9734 54.4891 19.108 54.7105 26.3134 57.3531" stroke="#595959" stroke-width="6.57643" stroke-linecap="round" stroke-linejoin="round"/>
</g>
</svg>
