<svg width="58" height="69" viewBox="0 0 58 69" fill="none" xmlns="http://www.w3.org/2000/svg">
<path opacity="0.1" d="M14.875 0H43.625C51.5514 0 58 6.44863 58 14.375V57.5C58 63.8423 52.8423 69 46.5 69H14.875C6.94863 69 0.500004 62.5514 0.500004 54.625V14.375C0.500004 6.44863 6.94863 0 14.875 0ZM6.25 14.375V46H40.75V5.75H29.25V29.7476C29.25 31.5387 26.9759 32.3064 25.8891 30.8832L22.0625 25.8721L18.2359 30.8832C17.1491 32.3064 14.875 31.5387 14.875 29.7476V5.75C10.1198 5.75 6.25 9.61975 6.25 14.375ZM46.5 6.279V46C48.6045 46 50.5509 46.6095 52.25 47.5985V14.375C52.25 10.6318 49.8379 7.46925 46.5 6.279ZM14.875 63.25H46.5C54.0584 63.1149 54.0526 51.8823 46.5 51.75H6.25V54.625C6.25 59.3802 10.1198 63.25 14.875 63.25Z" fill="#595959"/>
</svg>
