<svg width="71" height="71" viewBox="0 0 71 71" fill="none" xmlns="http://www.w3.org/2000/svg">
<path  d="M11.4969 31.0871C12.5186 31.5246 13.5212 31.9571 14.5877 32.3258M17.0651 64.0876C13.4127 59.653 14.026 52.941 9.54153 49.0284C7.54651 46.7733 7.84456 43.5292 8.38724 40.7899C8.69046 36.2693 4.66252 32.6789 4.50402 28.0962M27.9601 5.0467C27.6363 10.9301 19.937 7.35528 18.7672 12.5909C20.2281 14.1208 22.1887 12.6202 23.4257 11.9569C29.683 12.1809 26.6818 17.8868 22.1767 18.3468C19.1669 19.9404 15.4198 21.5599 13.8158 24.8677C12.7666 25.7308 12.9389 27.7017 10.9904 27.576C10.2375 26.5078 10.4598 22.5522 8.55952 24.5093C4.34035 27.414 9.33479 31.7831 9.44505 35.668C16.6912 35.0133 20.2643 41.5911 25.4741 45.3382C28.2547 47.5709 33.9435 49.7089 29.583 53.5146C27.2882 58.2334 20.5899 62.0977 23.2689 67.7709C23.2414 68.0294 23.6031 67.9794 23.4808 68.274M68.827 47.6209C65.3435 47.3625 64.6337 53.0047 65.3401 55.5183M39.267 16.2123C39.553 16.1434 39.8579 16.0779 40.0956 15.8953C40.5332 15.6317 40.4643 14.896 40.4178 14.4309C40.2111 14.076 40.0388 13.4523 39.627 13.2008M68.2309 23.946C66.7579 24.3577 62.9677 22.3093 64.5028 24.6661C64.7491 26.2632 66.1222 26.637 66.8906 27.1797C67.4643 28.3323 67.8485 31.2473 66.2738 31.8365C65.2729 31.8727 60.0217 26.525 61.4792 29.6657C61.7618 31.7038 63.3002 33.3284 64.5424 34.6102C65.1936 36.4192 68.0518 35.4699 68.1603 36.8568C67.0887 40.3506 64.8111 42.8125 63.3881 46.1117C63.6396 49.8175 63.5087 53.537 61.3104 56.6898C51.2991 67.6986 48.8717 55.9042 52.3586 46.5562C53.6301 35.4148 42.0286 44.8213 38.0937 39.2291C34.5447 35.4871 37.6492 28.6562 41.2775 25.9944C42.6213 24.5248 44.9488 24.4628 46.7733 25.0727C50.4463 25.6688 55.6733 25.3828 58.8847 23.5067C58.671 22.3748 56.7828 21.174 55.4976 21.0568C55.2857 19.8698 58.2937 19.4546 56.316 18.4536C54.0711 18.259 54.0746 22.5815 51.9796 20.3091C51.4886 18.812 48.2204 18.8172 50.1431 20.4177C50.2292 22.1508 50.3791 23.2982 49.2731 21.4341C46.3357 19.8664 43.574 23.2948 40.8933 23.7048C38.3056 20.7071 44.7524 14.4757 47.5468 13.5161C49.3627 11.9776 44.9833 9.58287 46.0307 12.3962C45.302 14.2241 41.4102 12.9441 43.1847 11.1558C43.6636 9.42782 45.0108 8.23908 46.4649 7.71534C48.2773 7.89968 49.0457 7.8101 49.0646 5.80647M31.9054 4.65907C31.7572 5.8392 32.3792 6.96075 32.2499 8.14088C32.2499 9.18835 29.6382 11.0611 31.1784 11.5452C32.7857 12.0878 33.9693 11.4625 34.9341 10.1893C36.6862 8.84034 38.2591 7.45348 37.9783 4.96918C37.7526 4.88821 37.4236 4.82618 37.4821 4.67974C35.811 3.3773 33.7471 3.94583 31.9054 4.65907ZM70.9995 36.9997C70.9995 55.7784 55.7784 70.9995 36.9997 70.9995C18.2211 70.9995 3 55.7784 3 36.9997C3 18.2211 18.2211 3 36.9997 3C55.7784 3 70.9995 18.2211 70.9995 36.9997Z" stroke="#EEEEEE" stroke-width="4.85714" stroke-linecap="round" stroke-linejoin="round"/>
</svg>
