<svg width="78" height="70" viewBox="0 0 78 70" fill="none" xmlns="http://www.w3.org/2000/svg">
<g opacity="0.1">
<path d="M18.3758 30.9155C13.8243 32.2823 11.0097 34.165 11.0097 36.252C11.0097 39.0928 16.2432 41.5685 23.9709 42.8515C21.0999 44.1446 19.3855 45.7828 19.3855 47.5683C19.3855 51.7324 28.756 55.1092 40.3156 55.1092C43.1225 55.1141 45.9247 54.9045 48.6913 54.4827M23.9747 42.8549C27.9864 43.4916 32.0545 43.8055 36.1295 43.7929C42.5649 43.7929 48.4314 43.0693 52.8773 41.8733M57.0596 30.2153C51.7432 31.6123 44.3282 32.4799 36.1295 32.4799C19.9469 32.4799 6.82373 29.1031 6.82373 24.9357C6.82373 21.7197 14.6494 18.9727 25.6626 17.8873" stroke="#595959" stroke-width="5.025" stroke-linecap="round" stroke-linejoin="round"/>
<path d="M78.0002 60.1845C78.0002 65.6048 61.1318 70 40.3224 70C19.5129 70 2.64453 65.6048 2.64453 60.1845C2.64453 56.332 9.07614 52.9954 21.4834 51.3874M65.7926 25.7398C81.67 22.0749 83.9382 44.0576 61.2524 51.3874M61.2637 3C58.4755 3.41205 53.227 5.73025 54.5646 11.6865C55.9059 17.6395 54.0069 20.7852 52.8917 21.6126M44.5159 3C41.724 3.4958 36.4755 6.2763 37.8168 13.4218C39.1581 20.5674 37.2592 22.4802 36.1439 23.4718" stroke="#595959" stroke-width="5.025" stroke-linecap="round" stroke-linejoin="round"/>
</g>
</svg>
