
<svg width="140" height="33" viewBox="0 0 140 33" fill="none" xmlns="http://www.w3.org/2000/svg">
<path d="M13.9275 15.7113L7.88407 19.712C7.74801 19.8027 7.57253 19.8027 7.43648 19.712L1.39702 15.7113C1.2097 15.5871 1.15843 15.3347 1.28265 15.1474C1.31223 15.1021 1.35167 15.0646 1.39702 15.0331L7.43845 11.0324C7.5745 10.9417 7.74999 10.9417 7.88604 11.0324L13.9294 15.0331C14.1168 15.1573 14.168 15.4097 14.0438 15.597C14.0142 15.6423 13.9748 15.6798 13.9294 15.7113H13.9275Z" fill="#41A36E"/>
<path d="M7.7 25.0003C4.001 24.9944 1.00394 21.9973 1 18.2983H3.67961C3.70524 20.5185 5.52713 22.297 7.74732 22.2714C9.93005 22.2458 11.6948 20.4811 11.7204 18.2983H14.4C14.3961 21.9973 11.397 24.9944 7.69803 24.9983L7.7 25.0003Z" fill="#41A36E"/>
<path d="M30.3165 20.9069L32.5426 21.1822C32.1915 22.4827 31.5412 23.492 30.5918 24.2101C29.6423 24.9282 28.4295 25.2872 26.9535 25.2872C25.0944 25.2872 23.6184 24.7168 22.5253 23.5758C21.4402 22.4269 20.8976 20.8191 20.8976 18.7527C20.8976 16.6144 21.4481 14.9548 22.5492 13.7739C23.6503 12.5931 25.0785 12.0027 26.8338 12.0027C28.5332 12.0027 29.9215 12.5811 30.9987 13.738C32.0758 14.8949 32.6144 16.5226 32.6144 18.621C32.6144 18.7487 32.6104 18.9402 32.6024 19.1955H23.1237C23.2035 20.5918 23.5984 21.6609 24.3085 22.4029C25.0186 23.1449 25.9043 23.516 26.9654 23.516C27.7553 23.516 28.4295 23.3085 28.988 22.8936C29.5465 22.4787 29.9894 21.8165 30.3165 20.9069ZM23.2434 17.4242H30.3404C30.2447 16.3551 29.9734 15.5532 29.5266 15.0186C28.8404 14.1888 27.9508 13.7739 26.8577 13.7739C25.8684 13.7739 25.0346 14.1051 24.3564 14.7673C23.6862 15.4295 23.3152 16.3152 23.2434 17.4242ZM43.2602 25V23.3963C42.4544 24.6569 41.2695 25.2872 39.7057 25.2872C38.6924 25.2872 37.7589 25.008 36.9052 24.4495C36.0594 23.891 35.4012 23.113 34.9304 22.1157C34.4677 21.1104 34.2363 19.9574 34.2363 18.6569C34.2363 17.3883 34.4477 16.2394 34.8706 15.2101C35.2935 14.1729 35.9278 13.379 36.7735 12.8285C37.6193 12.2779 38.5647 12.0027 39.6099 12.0027C40.3759 12.0027 41.0581 12.1662 41.6565 12.4933C42.2549 12.8125 42.7416 13.2314 43.1166 13.75V7.45479H45.2589V25H43.2602ZM36.4504 18.6569C36.4504 20.2846 36.7935 21.5013 37.4796 22.3072C38.1658 23.113 38.9756 23.516 39.9092 23.516C40.8506 23.516 41.6485 23.133 42.3028 22.367C42.965 21.5931 43.2961 20.4162 43.2961 18.8364C43.2961 17.0971 42.961 15.8205 42.2908 15.0066C41.6206 14.1928 40.7948 13.7859 39.8134 13.7859C38.856 13.7859 38.0541 14.1769 37.4078 14.9588C36.7695 15.7407 36.4504 16.9734 36.4504 18.6569ZM56.7425 25V23.133C55.7531 24.5691 54.4087 25.2872 52.7093 25.2872C51.9593 25.2872 51.2571 25.1436 50.6029 24.8564C49.9566 24.5691 49.4739 24.2101 49.1547 23.7793C48.8436 23.3404 48.6242 22.8059 48.4965 22.1755C48.4087 21.7527 48.3648 21.0824 48.3648 20.1649V12.2899H50.5191V19.3391C50.5191 20.4641 50.563 21.2221 50.6507 21.613C50.7864 22.1795 51.0736 22.6263 51.5124 22.9535C51.9513 23.2726 52.4938 23.4322 53.1401 23.4322C53.7864 23.4322 54.3928 23.2686 54.9593 22.9415C55.5257 22.6064 55.9247 22.1556 56.1561 21.5891C56.3954 21.0146 56.5151 20.1848 56.5151 19.0997V12.2899H58.6694V25H56.7425ZM65.3418 25L60.5067 12.2899H62.7806L65.5094 19.9016C65.8046 20.7234 66.0759 21.5771 66.3232 22.4628C66.5147 21.7926 66.782 20.9867 67.1251 20.0452L69.9495 12.2899H72.1636L67.3525 25H65.3418ZM82.1153 23.4322C81.3175 24.1104 80.5475 24.5891 79.8055 24.8684C79.0714 25.1476 78.2815 25.2872 77.4358 25.2872C76.0395 25.2872 74.9664 24.9481 74.2164 24.2699C73.4664 23.5838 73.0914 22.7101 73.0914 21.6489C73.0914 21.0266 73.231 20.4601 73.5103 19.9495C73.7975 19.4309 74.1685 19.016 74.6233 18.7048C75.0861 18.3936 75.6047 18.1582 76.1792 17.9987C76.602 17.887 77.2403 17.7793 78.094 17.6755C79.8334 17.4681 81.114 17.2207 81.9358 16.9335C81.9438 16.6383 81.9478 16.4508 81.9478 16.371C81.9478 15.4933 81.7443 14.875 81.3374 14.516C80.7869 14.0293 79.969 13.7859 78.8839 13.7859C77.8706 13.7859 77.1206 13.9654 76.6339 14.3245C76.1552 14.6755 75.8002 15.3019 75.5688 16.2035L73.4624 15.9162C73.6539 15.0146 73.969 14.2886 74.4079 13.738C74.8467 13.1795 75.481 12.7527 76.3108 12.4574C77.1406 12.1543 78.102 12.0027 79.1951 12.0027C80.2802 12.0027 81.1619 12.1303 81.8401 12.3856C82.5183 12.641 83.0169 12.9641 83.3361 13.3551C83.6552 13.738 83.8786 14.2247 84.0063 14.8152C84.0781 15.1822 84.114 15.8444 84.114 16.8019V19.6742C84.114 21.6769 84.1579 22.9455 84.2456 23.4801C84.3414 24.0066 84.5249 24.5133 84.7962 25H82.5462C82.3228 24.5532 82.1792 24.0306 82.1153 23.4322ZM81.9358 18.621C81.1539 18.9402 79.981 19.2114 78.4172 19.4348C77.5315 19.5625 76.9052 19.7061 76.5382 19.8657C76.1712 20.0253 75.8879 20.2606 75.6885 20.5718C75.489 20.875 75.3893 21.2141 75.3893 21.5891C75.3893 22.1636 75.6047 22.6423 76.0355 23.0253C76.4744 23.4082 77.1127 23.5997 77.9504 23.5997C78.7802 23.5997 79.5183 23.4202 80.1645 23.0612C80.8108 22.6941 81.2855 22.1955 81.5887 21.5652C81.8201 21.0785 81.9358 20.3604 81.9358 19.4109V18.621ZM95.5138 20.3444L97.6322 20.6197C97.4008 22.0798 96.8064 23.2247 95.8489 24.0545C94.8995 24.8763 93.7306 25.2872 92.3423 25.2872C90.6029 25.2872 89.2027 24.7207 88.1415 23.5878C87.0883 22.4468 86.5617 20.8152 86.5617 18.6928C86.5617 17.3205 86.7891 16.1197 87.2439 15.0904C87.6987 14.0612 88.3888 13.2912 89.3144 12.7806C90.2479 12.262 91.2612 12.0027 92.3543 12.0027C93.7346 12.0027 94.8636 12.3537 95.7412 13.0558C96.6189 13.75 97.1814 14.7394 97.4287 16.0239L95.3343 16.3471C95.1348 15.4933 94.7798 14.8511 94.2692 14.4202C93.7665 13.9894 93.1561 13.7739 92.438 13.7739C91.3529 13.7739 90.4713 14.1649 89.7931 14.9468C89.1149 15.7207 88.7758 16.9495 88.7758 18.633C88.7758 20.3404 89.1029 21.5811 89.7572 22.3551C90.4114 23.129 91.2652 23.516 92.3184 23.516C93.1641 23.516 93.8702 23.2566 94.4367 22.738C95.0032 22.2194 95.3622 21.4215 95.5138 20.3444ZM99.2421 9.93218V7.45479H101.396V9.93218H99.2421ZM99.2421 25V12.2899H101.396V25H99.2421ZM109.146 23.0731L109.457 24.9761C108.851 25.1037 108.308 25.1676 107.829 25.1676C107.048 25.1676 106.441 25.0439 106.01 24.7965C105.579 24.5492 105.276 24.2261 105.101 23.8271C104.925 23.4202 104.837 22.5705 104.837 21.2779V13.9654H103.258V12.2899H104.837V9.14229L106.98 7.84973V12.2899H109.146V13.9654H106.98V21.3976C106.98 22.012 107.016 22.4069 107.087 22.5824C107.167 22.758 107.291 22.8976 107.458 23.0013C107.634 23.1051 107.881 23.1569 108.2 23.1569C108.44 23.1569 108.755 23.129 109.146 23.0731ZM110.923 29.8949L110.684 27.8723C111.155 28 111.566 28.0638 111.917 28.0638C112.396 28.0638 112.779 27.984 113.066 27.8245C113.353 27.6649 113.588 27.4415 113.772 27.1543C113.908 26.9388 114.127 26.4043 114.43 25.5505C114.47 25.4309 114.534 25.2553 114.622 25.0239L109.798 12.2899H112.12L114.765 19.6503C115.108 20.5838 115.415 21.5652 115.687 22.5944C115.934 21.6051 116.229 20.6396 116.572 19.6981L119.289 12.2899H121.443L116.608 25.2154C116.09 26.6117 115.687 27.5731 115.4 28.0997C115.017 28.8098 114.578 29.3285 114.083 29.6556C113.588 29.9907 112.998 30.1582 112.312 30.1582C111.897 30.1582 111.434 30.0705 110.923 29.8949Z" fill="white"/>
</svg>
