<svg xmlns="http://www.w3.org/2000/svg" width="20" height="20" viewBox="0 0 20 20" fill="none">
  <path d="M15.8788 0.632249C15.8788 0.28381 15.595 2.49711e-07 15.2465 2.3448e-07L9.88228 0C9.72777 -6.75594e-09 9.57318 0.00280998 9.42142 0.01124C8.8791 0.0365299 8.63181 0.705309 9.01679 1.09027L14.7969 6.87043C15.196 7.26946 15.8788 6.98565 15.8788 6.42365V0.632249Z" fill="#6E9887"/>
  <path d="M0.641741 9.14371H13.1546C13.7195 9.14371 14.0005 8.4609 13.6014 8.06184L6.52868 0.989115C6.34041 0.800841 6.0566 0.753072 5.81494 0.86266C2.78296 2.21427 0.546203 5.0327 0.0123034 8.41873C-0.0467065 8.8009 0.253964 9.14371 0.638933 9.14371H0.641741Z" fill="#6E9887"/>
  <path d="M0.64174 10.8301C0.253961 10.8301 -0.0467081 11.1757 0.0123017 11.5607C0.349501 13.6878 1.35829 15.5902 2.81387 17.0486C3.67372 17.9085 4.68532 18.6109 5.80932 19.1112C6.05379 19.2208 6.3376 19.173 6.52587 18.9847L13.5987 11.912C13.9976 11.5129 13.7138 10.8301 13.1519 10.8301H0.638932H0.64174Z" fill="#6E9887"/>
  <path d="M19.8677 19.3412V0.632249C19.8677 0.283067 19.5846 6.07235e-08 19.2354 4.54167e-08L18.1957 0C17.8465 -1.52347e-08 17.5635 0.283067 17.5635 0.632249V19.3412C17.5635 19.6904 17.8465 19.9735 18.1957 19.9735H19.2354C19.5846 19.9735 19.8677 19.6904 19.8677 19.3412Z" fill="#6E9887"/>
  <path d="M9.01679 18.8848C8.63181 19.2697 8.8791 19.9386 9.42142 19.9638C9.57318 19.9723 9.72777 19.9751 9.88228 19.9751H15.2465C15.595 19.9751 15.8788 19.6913 15.8788 19.3428V13.5514C15.8788 12.9866 15.196 12.7056 14.7969 13.1046L9.01679 18.8848Z" fill="#6E9887"/>
</svg>