<svg width="73" height="65" viewBox="0 0 73 65" fill="none" xmlns="http://www.w3.org/2000/svg">
<path opacity="0.1" d="M73 32.3679C73 33.8595 71.6373 35.0652 69.9583 35.0652H39.5417V62.0385C39.5417 63.5301 38.179 64.7358 36.5 64.7358C34.821 64.7358 33.4583 63.5301 33.4583 62.0385V35.0652H3.04167C1.36267 35.0652 0 33.8595 0 32.3679C0 30.8763 1.36267 29.6706 3.04167 29.6706H33.4583V2.69733C33.4583 1.2057 34.821 0 36.5 0C38.179 0 39.5417 1.2057 39.5417 2.69733V29.6706H69.9583C71.6373 29.6706 73 30.8763 73 32.3679ZM69.9583 43.1572H51.7083C50.0293 43.1572 48.6667 44.3629 48.6667 45.8545C48.6667 47.3462 50.0293 48.5519 51.7083 48.5519H69.9583C71.6373 48.5519 73 47.3462 73 45.8545C73 44.3629 71.6373 43.1572 69.9583 43.1572ZM69.9583 53.9465H51.7083C50.0293 53.9465 48.6667 55.1522 48.6667 56.6438C48.6667 58.1355 50.0293 59.3412 51.7083 59.3412H69.9583C71.6373 59.3412 73 58.1355 73 56.6438C73 55.1522 71.6373 53.9465 69.9583 53.9465ZM3.04167 16.184H21.2917C22.9707 16.184 24.3333 14.9783 24.3333 13.4866C24.3333 11.995 22.9707 10.7893 21.2917 10.7893H3.04167C1.36267 10.7893 0 11.995 0 13.4866C0 14.9783 1.36267 16.184 3.04167 16.184ZM51.7083 16.184H57.7917V21.5786C57.7917 23.0702 59.1543 24.2759 60.8333 24.2759C62.5123 24.2759 63.875 23.0702 63.875 21.5786V16.184H69.9583C71.6373 16.184 73 14.9783 73 13.4866C73 11.995 71.6373 10.7893 69.9583 10.7893H63.875V5.39465C63.875 3.90303 62.5123 2.69733 60.8333 2.69733C59.1543 2.69733 57.7917 3.90303 57.7917 5.39465V10.7893H51.7083C50.0293 10.7893 48.6667 11.995 48.6667 13.4866C48.6667 14.9783 50.0293 16.184 51.7083 16.184ZM23.4421 43.9475C22.2528 42.8929 20.3305 42.8929 19.1412 43.9475L13.6875 48.7838L8.23379 43.9475C7.0445 42.8929 5.12217 42.8929 3.93288 43.9475C2.74358 45.0022 2.74358 46.7069 3.93288 47.7616L9.38658 52.5979L3.93288 57.4342C2.74358 58.4888 2.74358 60.1935 3.93288 61.2482C4.526 61.7742 5.30467 62.0385 6.08333 62.0385C6.862 62.0385 7.64067 61.7742 8.23379 61.2482L13.6875 56.4119L19.1412 61.2482C19.7343 61.7742 20.513 62.0385 21.2917 62.0385C22.0703 62.0385 22.849 61.7742 23.4421 61.2482C24.6314 60.1935 24.6314 58.4888 23.4421 57.4342L17.9884 52.5979L23.4421 47.7616C24.6314 46.7069 24.6314 45.0022 23.4421 43.9475Z" fill="#595959"/>
</svg>
