<svg width="76" height="76" viewBox="0 0 76 76" fill="none" xmlns="http://www.w3.org/2000/svg">
<g opacity="0.1" clip-path="url(#clip0_1878_10925)">
<path d="M71.449 4.55042C63.9313 -2.96725 52.7055 -1.13375 37.9995 9.93375C23.2966 -1.13375 12.074 -2.97042 4.54995 4.55042C-2.97405 12.0713 -1.13421 23.2939 9.93329 37.9999C-1.13421 52.7028 -2.97088 63.9286 4.54995 71.4494C5.96005 72.9116 7.65453 74.0696 9.52905 74.8522C11.4036 75.6348 13.4185 76.0254 15.4496 75.9999C21.6911 75.9999 29.2278 72.6686 37.9995 66.0693C46.768 72.6686 54.3046 75.9999 60.5493 75.9999C62.5805 76.0254 64.5953 75.6348 66.4698 74.8522C68.3444 74.0696 70.0389 72.9116 71.449 71.4494C78.9698 63.9286 77.149 52.7059 66.0656 37.9999C77.1331 23.2939 78.9698 12.0713 71.449 4.55042ZM60.4353 6.42192C61.6454 6.38548 62.8503 6.59674 63.9759 7.04272C65.1014 7.4887 66.124 8.16 66.9808 9.01542C72.5098 14.5476 68.4248 23.9399 61.9521 32.8889C59.2984 29.7603 56.3091 26.5081 52.9018 23.0976C49.4944 19.6871 46.2328 16.6978 43.1041 14.0409C49.1145 9.69309 55.3274 6.42192 60.4353 6.42192ZM57.9843 37.9999C54.7828 41.8633 51.3913 45.4764 48.4336 48.4499C45.476 51.4234 41.8628 54.7833 37.9995 57.9848C34.1361 54.7833 30.523 51.3918 27.5653 48.4499C24.6076 45.5081 21.2161 41.8633 18.0146 37.9999C21.2161 34.1366 24.6076 30.5203 27.5653 27.5658C30.523 24.6113 34.1361 21.2166 37.9995 18.0119C41.8628 21.2103 45.476 24.6081 48.4495 27.5658C51.423 30.5234 54.7828 34.1366 57.9843 37.9999ZM9.01812 9.01859C9.87397 8.16168 10.8963 7.4892 12.022 7.0426C13.1478 6.59601 14.3531 6.38477 15.5636 6.42192C20.6715 6.42192 26.8845 9.69309 32.8948 14.0409C29.7661 16.6978 26.5108 19.6871 23.0971 23.0976C19.6835 26.5081 16.7005 29.7476 14.0436 32.8889C7.57412 23.9399 3.48278 14.5476 9.01812 9.01859ZM9.01812 66.9686C3.48912 61.4396 7.57412 52.0441 14.0436 43.0983C16.7005 46.2269 19.6898 49.4791 23.0971 52.8896C26.5045 56.3001 29.7471 59.2957 32.879 61.9494C23.9331 68.4284 14.5408 72.5166 9.01812 66.9813V66.9686ZM66.9681 66.9686C61.4423 72.4913 52.0531 68.4157 43.1073 61.9494C46.2296 59.2957 49.4849 56.2906 52.8891 52.8896C56.2933 49.4886 59.2858 46.2396 61.9394 43.0983C68.4248 52.0599 72.5161 61.4523 66.9808 66.9813L66.9681 66.9686Z" fill="#595959"/>
<path d="M37.9993 44.3332C41.4972 44.3332 44.3327 41.4976 44.3327 37.9998C44.3327 34.502 41.4972 31.6665 37.9993 31.6665C34.5015 31.6665 31.666 34.502 31.666 37.9998C31.666 41.4976 34.5015 44.3332 37.9993 44.3332Z" fill="#595959"/>
</g>
<defs>
<clipPath id="clip0_1878_10925">
<rect width="76" height="76" fill="white"/>
</clipPath>
</defs>
</svg>
