<svg width="104" height="98" viewBox="0 0 104 98" fill="none" xmlns="http://www.w3.org/2000/svg">
<path d="M2.82639 4.44024C6.95938 -0.430061 14.9037 -1.32764 25.203 1.91464C34.8199 4.94169 45.592 11.2568 55.5422 19.6957C58.4696 22.1789 61.2116 24.7549 63.7509 27.379L73.4308 24.9598C76.6277 24.2036 79.9629 24.2575 83.1337 25.1165C86.3045 25.9756 89.2106 27.6127 91.5885 29.8794L102.245 39.5032C102.566 39.7931 102.802 40.1643 102.93 40.5776C103.057 40.9909 103.07 41.4309 102.967 41.851C102.865 42.2711 102.651 42.6557 102.348 42.9641C102.045 43.2726 101.664 43.4933 101.246 43.603L80.2417 49.1075L83.1039 51.537C83.9571 52.2627 84.5932 53.2102 84.9419 54.2747C85.2907 55.3392 85.3384 56.4794 85.0799 57.5693C91.9973 62.964 96.223 71.2712 97.6438 82.2986L97.9804 84.9089L95.3472 85.0028C94.6602 85.0272 93.9817 85.0395 93.3116 85.0395C83.2184 85.0395 75.0726 82.254 69.0345 76.7586C68.3363 77.1086 67.5771 77.3208 66.7986 77.3837C66.6291 77.3974 66.4551 77.4043 66.2891 77.4043C64.8539 77.407 63.465 76.897 62.3725 75.9663L59.5103 73.5369L57.5056 95.1613C57.4639 95.5912 57.3072 96.0018 57.0519 96.3502C56.7966 96.6986 56.4522 96.9717 56.0549 97.141C55.6576 97.3103 55.222 97.3694 54.7939 97.3121C54.3658 97.2549 53.9611 97.0834 53.6222 96.8156L42.391 87.8696C39.7662 85.8928 37.6766 83.292 36.3115 80.3031C34.9464 77.3143 34.3491 74.0319 34.5738 70.7537L35.3866 60.8047C32.3836 58.7268 29.3955 56.4416 26.4681 53.9584C16.5214 45.5195 8.53472 35.9186 3.98155 26.9256C-0.895615 17.2995 -1.30547 9.31168 2.82639 4.44024ZM6.48998 7.54399C4.21626 10.2253 4.25748 14.9548 6.51173 20.8245C9.51624 19.1262 12.1918 16.9027 14.4114 14.2598C16.6573 11.6393 18.415 8.63727 19.6011 5.39621C13.4314 4.13341 8.75912 4.8627 6.48426 7.54399H6.48998ZM88.3726 33.4422C86.5749 31.7084 84.3731 30.4504 81.9665 29.7823C79.56 29.1142 77.0248 29.0571 74.5906 29.616L67.442 31.402C71.1284 35.574 74.3632 40.1242 77.0921 44.9768L95.7353 40.0882L88.3726 33.4422ZM82.4948 61.6508L72.5035 73.4247C77.4551 77.8027 84.148 80.0924 92.4712 80.239C90.9715 72.0508 87.6204 65.8204 82.4948 61.6485V61.6508ZM65.4797 72.3153C65.7395 72.5319 66.074 72.6376 66.4112 72.6098C66.7483 72.582 67.0609 72.4227 67.2817 72.1665L80.1501 56.9969C80.365 56.7363 80.4697 56.4022 80.4419 56.0656C80.4141 55.729 80.256 55.4166 80.0013 55.1948L76.7842 52.4655L62.2626 69.5836L65.4797 72.3153ZM39.3593 71.1418C39.2045 73.6345 39.6739 76.1265 40.725 78.3921C41.7761 80.6577 43.3758 82.6253 45.3791 84.1167L53.1391 90.299L54.9216 71.1086C49.6888 69.207 44.6719 66.7571 39.9547 63.7997L39.3593 71.1418ZM29.5718 50.3051C38.8991 58.2185 49.1927 64.2726 58.0689 67.1107L59.0214 65.9876L73.6609 48.7309C69.4192 40.4363 61.7645 31.267 52.4338 23.3536C43.1294 15.4539 33.1392 9.54753 24.2378 6.64985C22.8607 10.5741 20.7667 14.2085 18.0624 17.3682C15.3864 20.5514 12.1421 23.2096 8.49465 25.2071C12.8051 33.5166 20.2628 42.4112 29.5718 50.3051ZM46.8526 24.945C48.7897 26.5888 50.1959 28.7701 50.8934 31.2131C51.5909 33.656 51.5484 36.251 50.7713 38.6698C49.9941 41.0886 48.5172 43.2227 46.5273 44.8022C44.5374 46.3817 42.1238 47.3357 39.5918 47.5436C39.2338 47.5726 38.8766 47.5872 38.5201 47.5872C36.4528 47.5838 34.4168 47.0816 32.5851 46.1231C30.7533 45.1647 29.1799 43.7783 27.9986 42.0818C26.8172 40.3853 26.0626 38.4287 25.7991 36.3782C25.5356 34.3277 25.7708 32.2439 26.4847 30.3038C27.1987 28.3637 28.3704 26.6245 29.9002 25.234C31.43 23.8435 33.2729 22.8427 35.2722 22.3167C37.2715 21.7907 39.3682 21.7549 41.3843 22.2125C43.4003 22.67 45.2762 23.6074 46.8526 24.945ZM30.5198 35.3988C30.6723 37.2534 31.4632 38.9976 32.7575 40.3345C34.0519 41.6714 35.7697 42.5182 37.6184 42.7306C39.467 42.943 41.3322 42.5079 42.896 41.4994C44.4598 40.4909 45.6257 38.9714 46.1949 37.1998C46.7641 35.4282 46.7015 33.514 46.0177 31.7834C45.3339 30.0528 44.0713 28.6128 42.4449 27.7086C40.8185 26.8045 38.9289 26.4922 37.0981 26.825C35.2673 27.1578 33.6085 28.115 32.4042 29.5336C31.718 30.3382 31.1982 31.2708 30.8747 32.2775C30.5513 33.2843 30.4306 34.3451 30.5198 35.3988Z" fill="#15272D"/>
</svg>
