<svg width="21" height="21" viewBox="0 0 21 21" fill="none" xmlns="http://www.w3.org/2000/svg">
<g clip-path="url(#clip0_55_1788)">
<path d="M16.3163 1.19311C16.3163 0.846652 16.0341 0.564453 15.6876 0.564453L10.3538 0.564453C10.2001 0.564453 10.0465 0.567247 9.89562 0.575629C9.35634 0.600776 9.11049 1.26576 9.49327 1.64855L15.2406 7.39589C15.6374 7.79265 16.3163 7.51046 16.3163 6.95164V1.19311Z" fill="white"/>
<path d="M1.16987 9.65646H13.6118C14.1734 9.65646 14.4528 8.97749 14.056 8.58072L7.02338 1.54812C6.83618 1.36092 6.55398 1.31342 6.31372 1.42239C3.29893 2.76633 1.07487 5.56874 0.544 8.93559C0.485325 9.31558 0.784289 9.65646 1.16707 9.65646H1.16987Z" fill="white"/>
<path d="M1.16986 11.333C0.784285 11.333 0.485323 11.6766 0.543998 12.0595C0.879285 14.1745 1.88235 16.0661 3.32967 17.5162C4.18464 18.3712 5.1905 19.0697 6.30813 19.567C6.55118 19.676 6.83338 19.6285 7.02058 19.4413L14.0532 12.4087C14.45 12.0119 14.1678 11.333 13.609 11.333H1.16707H1.16986Z" fill="white"/>
<path d="M20.2838 19.7959V1.19311C20.2838 0.845914 20.0023 0.564453 19.6551 0.564453L18.6213 0.564453C18.2741 0.564453 17.9927 0.845914 17.9927 1.19311V19.7959C17.9927 20.1431 18.2741 20.4245 18.6213 20.4245H19.6551C20.0023 20.4245 20.2838 20.1431 20.2838 19.7959Z" fill="white"/>
<path d="M9.49327 19.3412C9.11049 19.7239 9.35634 20.389 9.89562 20.4141C10.0465 20.4225 10.2001 20.4253 10.3538 20.4253H15.6876C16.0341 20.4253 16.3163 20.1431 16.3163 19.7966V14.0381C16.3163 13.4765 15.6374 13.1971 15.2406 13.5938L9.49327 19.3412Z" fill="white"/>
</g>
<defs>
<clipPath id="clip0_55_1788">
<rect width="19.9072" height="19.87" fill="white" transform="translate(0.467773 0.564941)"/>
</clipPath>
</defs>
</svg>
